<?xml version="1.0" encoding="utf-8"?>
<!-- Generator: Adobe Illustrator 22.1.0, SVG Export Plug-In . SVG Version: 6.00 Build 0)  -->
<svg version="1.1" id="Layer_1" xmlns="http://www.w3.org/2000/svg" xmlns:xlink="http://www.w3.org/1999/xlink" x="0px" y="0px"
	 viewBox="0 0 233 209" style="enable-background:new 0 0 233 209;" xml:space="preserve">
<g id="capricorn">
	<path d="M214.3,27.7l-2,21l-86.9,40.5L87,95.8h-0.1l-33.8,10l-18.4-0.5v1.2h0.1l-0.4,0.6L66,127.5l0,0l21.1,11.8l0,0l12.3,4.1l0,0
		l42.4,11.2l36.2,8.3l0.3-0.5l5.8-14.1l29.3-98.8l2-21.8H214.3z M183.2,147.8l-5.7,13.9l-35.2-8l0,0l-42.1-11.2l-12.6-4.2
		l-20.9-11.7l-30.9-19.9l18,0.5L87.3,97l38.7-6.6l86.2-40.2L183.2,147.8z"/>
	<path d="M54.2,103c1.6,0.7,2.4,2.5,1.8,4.2c-0.7,1.6-2.5,2.4-4.2,1.8s-2.4-2.5-1.8-4.2C50.7,103.2,52.6,102.4,54.2,103z
		 M84.6,137.4c-0.7,1.6,0.1,3.5,1.8,4.2c1.6,0.7,3.5-0.1,4.2-1.8c0.7-1.6-0.1-3.5-1.8-4.2C87.1,134.9,85.2,135.7,84.6,137.4z
		 M84.2,95.2c-0.7,1.6,0.1,3.5,1.8,4.2s3.5-0.1,4.2-1.8s-0.1-3.5-1.8-4.2S84.8,93.6,84.2,95.2z M139.2,152.6
		c-0.7,1.6,0.1,3.5,1.8,4.2c1.6,0.7,3.5-0.1,4.2-1.8c0.7-1.6-0.1-3.5-1.8-4.2C141.8,150.2,139.9,150.9,139.2,152.6z M210.2,48.7
		c-0.7,1.6,0.1,3.5,1.8,4.2c1.6,0.7,3.5-0.1,4.2-1.8c0.7-1.6-0.1-3.5-1.8-4.2S210.9,47,210.2,48.7z M180.4,147.1
		c-0.7,1.6,0.1,3.5,1.8,4.2c1.6,0.7,3.5-0.1,4.2-1.8c0.7-1.6-0.1-3.5-1.8-4.2C183,144.7,181.1,145.4,180.4,147.1z M122.6,88.6
		c-0.7,1.6,0.1,3.5,1.8,4.2s3.5-0.1,4.2-1.8c0.7-1.7-0.1-3.5-1.8-4.2C125.1,86.2,123.2,87,122.6,88.6z M212.1,26.6
		c-0.7,1.6,0.1,3.5,1.8,4.2c1.6,0.7,3.5-0.1,4.2-1.8c0.7-1.6-0.1-3.5-1.8-4.2C214.7,24.1,212.8,24.9,212.1,26.6z M174.9,160.7
		c-0.7,1.6,0.1,3.5,1.8,4.2c1.6,0.7,3.5-0.1,4.2-1.8c0.7-1.6-0.1-3.5-1.8-4.2C177.4,158.3,175.6,159.1,174.9,160.7z M31.6,105.7
		c-0.2,1.8,1.1,3.3,2.9,3.5s3.3-1.1,3.5-2.9s-1.1-3.3-2.9-3.5S31.8,103.9,31.6,105.7z M62.6,126.7c-0.2,1.8,1.1,3.3,2.9,3.5
		s3.3-1.1,3.5-2.9s-1.1-3.3-2.9-3.5S62.8,125,62.6,126.7z M96.3,143.1c-0.2,1.8,1.1,3.3,2.9,3.5s3.3-1.1,3.5-2.9
		c0.2-1.8-1.1-3.3-2.9-3.5S96.5,141.4,96.3,143.1z"/>
	<path d="M81.9,49v1.7h-2.5v-1.8c0-1.2-0.5-1.7-1.4-1.7s-1.4,0.5-1.4,1.7V58c0,1.2,0.5,1.7,1.4,1.7s1.4-0.4,1.4-1.7v-2.4h2.5v2.3
		c0,2.7-1.4,4.3-4,4.3s-4-1.6-4-4.3V49c0-2.7,1.4-4.3,4-4.3S81.9,46.2,81.9,49z M89.5,44.9L92.2,62h-2.7L89,58.9h-3.3L85.3,62h-2.5
		l2.7-17.1H89.5z M88.7,56.5l-1.3-8.6l0,0l-1.3,8.6H88.7z M101.5,49.1v2.2c0,2.7-1.3,4.2-4,4.2h-1.3V62h-2.7V44.9h4
		C100.1,44.9,101.5,46.3,101.5,49.1z M98.8,48.9c0-1.2-0.5-1.6-1.3-1.6h-1.3v5.8h1.3c0.9,0,1.3-0.4,1.3-1.6V48.9z M110.8,59.9
		c0,0.8,0,1.4,0.3,2.1h-2.7c-0.1-0.4-0.2-0.7-0.2-2.1v-2.7c0-1.6-0.5-2.2-1.8-2.2h-0.9v7h-2.7V44.9h4.1c2.8,0,4,1.3,4,3.9v1.3
		c0,1.8-0.6,2.9-1.8,3.4l0,0c1.3,0.6,1.8,1.8,1.8,3.6v2.8H110.8z M108.1,49.1c0-1.2-0.4-1.8-1.4-1.8h-1.3v5.3h1.1
		c1,0,1.6-0.4,1.6-1.8C108.1,50.8,108.1,49.1,108.1,49.1z M112.5,62h2.7V44.9h-2.7V62z M121,44.7c-2.6,0-4,1.6-4,4.3v8.9
		c0,2.7,1.4,4.3,4,4.3s4-1.6,4-4.3v-2.3h-2.5V58c0,1.2-0.5,1.7-1.4,1.7s-1.4-0.4-1.4-1.7v-9.2c0-1.2,0.5-1.7,1.4-1.7
		s1.4,0.5,1.4,1.7v1.8h2.5V49C125,46.2,123.6,44.7,121,44.7z M134.5,49v8.9c0,2.7-1.4,4.3-4.1,4.3c-2.6,0-4.1-1.6-4.1-4.3V49
		c0-2.7,1.4-4.3,4.1-4.3C133.1,44.7,134.5,46.2,134.5,49z M131.8,48.8c0-1.2-0.5-1.7-1.4-1.7s-1.4,0.5-1.4,1.7V58
		c0,1.2,0.5,1.7,1.4,1.7s1.4-0.5,1.4-1.7V48.8z M144.3,59.9c0,0.8,0,1.4,0.3,2.1h-2.7c-0.1-0.4-0.2-0.7-0.2-2.1v-2.7
		c0-1.6-0.5-2.2-1.8-2.2H139v7h-2.7V44.9h4.1c2.8,0,4,1.3,4,3.9v1.3c0,1.8-0.6,2.9-1.8,3.4l0,0c1.3,0.6,1.8,1.8,1.8,3.6v2.8H144.3z
		 M141.6,49.1c0-1.2-0.4-1.8-1.4-1.8H139v5.3h1.1c1,0,1.6-0.4,1.6-1.8v-1.7H141.6z M152.2,44.9v10.2l0,0l-2.7-10.2h-3.4V62h2.4V49.6
		l0,0l3.3,12.4h2.8V44.9H152.2z"/>
	<path d="M48.8,184.6c-0.2,0.6-0.3,1.3-0.5,1.9c-0.8,3.5-1.7,6.5-3.9,9.3c-0.6,0.8-1.2,1.4-1.8,2.1c-0.4,0.5-0.9,0.9-1.3,1.3
		c-0.2,0.2-0.5,0.4-0.8,0.5c-1.4,0.8-3,1.1-4.6,1.2c-1.7,0.1-5.1-1-6.6-1.8c-9.5-5-10.5-15-10.3-24.6c0-1.3,0.6-6.2,0.9-7.3
		c1.2-5.1,5.4-12.5,10-15.1c0.6-0.3,1.1-0.6,1.7-0.8c1.9-0.8,5.5-1.2,7.6-0.5c1.8,0.7,3.5,1.3,5.1,2.5c0.3,0.2,0.6,0.4,0.9,0.7
		c0.9,0.7,2.2,2.6,2.2,3.5c0,1.1-1.3,2-2.5,0.5c-0.3-0.4-0.2-1.2-0.1-1.6c0.2-0.8,0-1.2-0.6-1.6c-0.3-0.3-0.6-0.5-0.9-0.8
		c-0.8-0.5-1.5-1.2-2.4-1.5c-0.7-0.3-1.3-0.4-2.1-0.6c-2.6-0.7-4.5-0.2-6.9,1c-1.1,0.5-1.8,1.3-2.7,2c-0.2,0.2-1.5,1.9-1.9,2.4
		s-0.7,1.2-1.1,1.8c-0.2,0.3-0.4,0.7-0.6,1.1c-0.4,0.6-0.7,1.4-1.1,2.1c-1,2.2-1.9,7.9-2.1,9.1c-0.1,0.9-0.3,7.2-0.3,9
		c0,1.3,0.1,2.5,0.2,3.8c0.1,2.1,0.7,4,1.4,5.9c0.2,0.6,0.3,1.1,0.6,1.6c0.2,0.4,0.5,0.8,0.7,1.2c0.2,0.2,0.3,0.5,0.5,0.8
		c0.7,0.8,1.4,1.6,2.2,2.4c0.6,0.6,1.7,1.6,2.3,2.1c0.3,0.2,0.5,0.4,0.8,0.5c2.9,1.7,6.9,1.6,9.5-0.2c0.8-0.8,1.5-1.7,2.3-2.6
		c0.4-0.3,0.6-0.9,1-1.3c0.9-1.3,1.5-2.8,2.2-4.3c0.6-1.5,0.9-3.1,1.3-4.7c0.1-0.5,0.1-0.9,0.2-1.4
		C47.6,183.8,49.1,183.5,48.8,184.6z M94.9,170.1c0.2,0,0.4-0.1,0.6-0.2c0.4-1.2,0-2.4,0-2.4c-0.1-0.4-1.4-0.4-1.6,0
		c-0.1,0.3-0.5,2-0.3,2.2C94,169.9,94.4,170,94.9,170.1z M185.9,179c-1.6,0.4-6.7,1-8.4,1c-1.6,0-3.2,0-4.8,0c-0.9,0-4.3,0.1-5,0.2
		c-2.3,0.4-4.5,0.7-6.4,2c-3.9,2.5-4.8,6.4-7.2,9.2c-2.5,2.9-5.4,2-6.7-1.3c-0.2-0.7-0.4-1.5-0.4-2.2c-0.2-3.4,0-6.7,0.7-10
		c0.2-1.3,0.6-2.5,0.8-3.7c0.1-0.9,0.1-1.8-0.1-2.7c-0.2-0.5-2.4,0-2.7,0.7c-0.5,0.8-0.9,1.7-1.3,2.5c-0.4,0.9-1.6,4-1.9,4.8
		c-0.3,0.9-0.6,1.7-0.9,2.6c-0.1,0.6-1.4,2.5-2.7,1.5c-0.3-0.1-0.6-0.5-0.7-0.9c-0.2-0.5-0.3-1-0.3-1.5c-0.1,0.2-2.1,7.6-4.7,11.2
		c-0.1,0.1-0.2,0.2-0.4,0.3c-1,0.7-2,0.8-3,0.3c-0.3-0.1-1.3-1-1.3-3.5c0-1.4,0.1-2.9,0.2-4.3c0-0.9,0.1-1.8,0.2-2.7
		c0.1-1.2,0.1-1.3,0.2-2c0.1-1.4-0.7-1.6-1.6-2.2c-0.4-0.3-0.8-0.6-1.1-1.1c-1.1,0.4-2.4,0.5-4.2,0c-0.5-0.1-0.5-0.1-0.6,0.4
		c-0.2,0.8-0.6,1.6-0.9,2.4c-0.9,2.2-2.1,4.6-4.3,4.7c-1.6,0.1-3.3-1.7-3.9-3.6c0-0.1-0.1-0.2-0.1-0.3c-0.6,2.1-1.8,4.6-2.8,6.4
		c-0.8,1.4-1.6,2.9-3.8,3.2c-3.2,0.1-4.6-2.5-5.2-5.1c-0.1-0.8-0.2-1.6-0.3-2.4c-0.2,0.7-1.1,2.7-1.5,3.3c-0.9,1-1.6,1.5-3.2,1.3
		c-1.5-0.3-2.1-1.8-2.3-2.1c-0.5-1.1-0.8-2.2-0.9-3.3c-0.1-0.4-0.1-0.9-0.2-1.3c-0.1,0.3-2.4,8.8-4.7,11.4c-0.9,1-2.4,1.2-3.4,0.6
		c-1.3-0.7-1.3-2.6-1.3-3.5c0-1.4,0.1-2.9,0.2-4.3c0-0.9,0.1-1.8,0.2-2.7c0.1-1.2,0.1-1.3,0.2-2c0.1-1.4-0.7-1.6-1.6-2.2
		c-0.5-0.3-0.9-0.7-1.2-1.2c-0.8,0.4-1.5,0.9-2.5,1.1c-0.5,0.1-1,0.2-1.5,0.2c-0.3,0-0.5,0.1-0.5,0.5s-0.3,1.9-0.4,2.2
		c0,0.4-1,2.4-1.4,2.6c-0.1,0-1.2,1.6-2.5,1c-0.5-0.2-1.3-1-1.4-1c0,0-0.1,0.6,0,0.9c0,1.4,0,2.4,0,3.6c0,2.4-0.2,7.3-1.1,9.6
		c-0.4,1.2-2.9,0.7-3.1-0.5c-0.1-0.8-0.1-1.6-0.2-2.4c-0.1-1.4,0-2.9-0.1-4.4s-0.1-3-0.1-4.4c0-1.6-0.1-3.2-0.1-4.8
		c-0.2,0.5-0.3,0.9-0.4,1.1c-0.3,1-0.6,1.9-0.9,2.9c-0.4,1-1.8,4.1-2.2,4.7c-0.6,1.2-1.8,1.9-3.1,1.1c-3.3-2-1.1-13.3-0.8-16.3
		c0-0.1-0.5,1.1-0.8,1.7c-0.2,0.8-0.5,1.6-0.8,2.5c-0.2,0.5-0.3,1.1-0.5,1.7c-0.2,0.6-0.4,1.3-0.7,1.9c-0.3,0.6-0.7,1.1-1.1,1.8
		c-0.7,1.3-2.4,2-3.8,0.9c-0.6-0.5-1-1.1-1.2-1.8c-0.3-1.8-0.1-3.5,0.4-5.2c0.5-1.6,1.2-3.1,2.2-4.5c0.5-0.6,1.3-1.1,2.2-1.3
		c0.8-0.2,1.8,0.1,2.3,0.8c0.2,0.4,0.3,0.8,0.4,1.2c0,0.2,0.1,0.4,0.1,0.6c0,0,0.8-1.8,0.9-2.3c0-0.1,0.2-0.2,0.3-0.2
		c0.6-0.1,1.2,0,1.8,0.3s0.8,0.6,0.7,1.2c-0.1,0.9-0.1,1.8-0.3,2.7c-0.1,0.6-0.4,3.3-0.4,4c-0.1,1.5-0.3,2.9-0.4,4.4
		c-0.1,0.8-0.1,1.7-0.1,2.5c0,0.4-0.1,1.3,0.1,2c0.3,1.2,1.4,1,1.9,0.2c0.4-0.7,0.8-1.3,1.1-2.1c0.5-1.1,1-2.2,1.4-3.3
		c0.4-1.3,1.3-4,1.6-5.4c0-0.2,0.1-0.3,0.1-0.5c0-2.9-0.1-7.8-0.1-10.2c0-0.6,0-2.1,0.8-2c0.8,0,1,0.2,1.5,0.8
		c0.2,0.2,0.2,0.4,0.2,0.7c0,1.7,0,6.4,0,8c0,0.6,0.1,10.1,0.1,10.4c0,1,0.1,2,0,3c0,1.4,0,4.8,0,6.4c0,0.3,0.8,0.7,0.9,0
		c0.4-3.1,0.4-4.5,0.3-7.1c0-2.5-0.2-8-0.2-8.3c0-0.6,0-1.2,0-1.8c0-0.2,0.2-4.1,0.4-5.9c0.1-0.9,0.2-1.7,0.9-2.5
		c0.4-0.4,1-0.8,1.6-0.8c2.5,0.1,3.5,1.6,3.9,3.8c0.2,1.3,0.2,4.2,0.2,4.4s0.1,0.3,0.4,0.3c1.4-0.3,2.4-0.9,3.6-1.5
		c-0.9-1.8-0.9-4-0.5-5.6c0.4-1.3,1.2-2.3,2.6-2.8c0.7-0.2,1.3-0.1,1.8,0.3c0.4,0.2,0.5,0.8,0.4,1.3c-0.1,1.5-1.4,4.4-2.3,6
		c-0.2,0.2-0.2,0.4-0.1,0.7c0.5,1.3,3.9,1.3,4,3.8c0,1-0.1,2-0.3,3.6c-0.1,1-0.3,2-0.4,3c0,0.9-0.3,4.4-0.1,5.3
		c0.1,0.2,1.5-0.1,1.7-0.6c0.6-1,2.3-5.3,2.8-6.4c0.2-0.4,0.3-0.9,0.5-1.4c0.6-1.5,1.1-2.9,1.7-4.4c0.1-1.9,0.3-3.8,0.7-5.6
		c0.1-0.8,0.3-0.9,1.3-0.8c0.5,0,0.9,0.2,1.3,0.5c0.2,0.1,0.3,0.3,0.2,0.6c-0.2,1.3-0.4,2.6-0.6,3.9c-0.1,1.3-0.1,2.6,0,3.9
		c0,1,0.2,2,0.4,3c0.1,0.8,0.6,2,0.8,2.2c0.8,0.8,2-1,2.2-1.4c0.6-1.3,1.5-3.5,2.1-5.3c0.1-0.5,0.1-1,0.2-1.4
		c0.1-0.3,0.6-2.6,0.9-3.5s0.9-1.7,1.5-2.3c0.4-0.4,1.1-0.8,1.8-1c0.4-0.1,1.1-0.2,1.5-0.1c2.4,0.2,1.8,4.3,1.2,5.5
		c-0.2,0.3-0.5,0.5-0.9,0.6c-0.2,0-0.3-0.1-0.2-0.3c0.4-0.5,0.3-0.8,0.5-1.4c0.3-0.9,0.3-2.8-0.3-3.6c-0.5-0.6-1.7,1.3-2,1.7
		c-0.2,0.3-0.3,0.7-0.5,1.1c-0.4,1-0.7,2-0.9,3c-0.2,1-0.3,2.1-0.5,3.2c-0.1,1,0,2.1,0.1,3.1c0.1,0.9,0.3,1.8,0.5,2.7
		c0.1,0.5,0.3,1,0.7,1.4c0.6,0.9,1.2,1.1,1.5,1.2c1.4,0.4,2-0.9,2.5-1.4c1-1.1,3.8-8.6,4-9.2c-0.1-0.8,0-1.7,0.1-2.9
		c0.3-2.4,2.2-6.3,5.1-4.5c0.4,0.3,0.7,0.7,0.8,1.1c0.2,0.9,0.3,1.8,0.2,2.7c0,0.3,0,0.5-0.3,0.6c-0.5,0.2-0.6,0.1-0.6-0.4
		c0-0.9,0-1.3-0.1-2.2c0-0.3-0.2-0.6-0.4-0.9c-1-0.9-1.6,3.7-1.6,4.4c-0.1,1.6,0,3.2,0.4,4.8c0.1,0.7,0.2,1.2,0.7,1.6
		c0.3,0.3,0.9,0.4,1.2,0.2c0.3-0.2,0.5-0.4,0.8-0.7c0.7-0.8,1.2-1.8,1.5-2.9c0.3-1.1,0.7-1.9,1-3c-0.1-0.2-0.5-0.7-0.7-0.9
		c-2.1-2.7-3.5-9.3,0.4-9.3c0.6,0,0.9,0.2,1.4,0.9c0.3,0.5,0.4,1.2,0.5,1.7c0.2,1.4,0.2,1.6,0.2,3c0,1.3-0.3,2.4-0.6,3.6
		c-0.1,0.5-0.1,0.5,0.4,0.7c1.4,0.7,2.5,0.4,3.4,0c-0.9-1.8-1-4.1-0.6-5.8c0.4-1.3,1.2-2.3,2.6-2.8c0.7-0.2,1.3-0.1,1.8,0.3
		c0.4,0.2,0.5,0.8,0.4,1.3c-0.1,1.5-1.4,4.4-2.3,6c-0.2,0.2-0.2,0.4-0.1,0.7c0.5,1.3,3.9,1.3,4,3.8c0,1-0.1,2-0.3,3.6
		c-0.1,1-0.3,2-0.4,3c0,0.9-0.3,4.4-0.1,5.3c0.1,0.2,1.1,0.4,1.7-0.6c0.6-1,4.4-10.7,5-12.2c0-0.9,0-1.8,0-2.8c0,0,0.1-3.3,0.1-5
		c0-0.7,2-0.9,2.6-0.7c0.4,0.1,0.6,0.4,0.5,0.8c0,0.4-0.1,0.9-0.1,1.3c0,1.1-0.1,2.2-0.1,3.3c0,1.3-0.1,2.6-0.1,3.9
		c0,0.3,0,0.6,0,0.8c0,0.1,0.1,0.2,0.2,0c0.7-1.7,1.4-3.5,2.1-5.3c0.5-1.1,1.1-2.2,1.5-3.3c0.2-0.6,0.6-1.2,1.2-1.6
		c1.6-1.3,4.7-0.6,5.4,1.4c0.4,1.3,0.4,2.6,0.1,3.9c-0.3,1.2-1.5,10.4-1.5,11.7c0,1,0.4,3.4,0.9,4.1c0.2,0.5,0.8,0.6,1.3,0.4
		c0.5-0.1,0.8-0.5,1.2-0.9c2.5-3,3-5.6,5.5-8.1c1.2-1.3,2.7-2.3,4.6-3.1c0.8-0.3,1.5-0.6,2.4-0.8c0.6-0.1,1.3-0.3,2-0.4
		c1.1-0.2,5.4-0.3,5.8-0.3c2.4,0,4.7,0,7,0c1.3,0,2.6-0.1,3.9-0.3c1.5-0.2,2.9-0.5,4-1.1c2.3-1.1,2.7-2.2,2.4-3.7
		c-0.3-2.2,1.9-2.4,2.5-1C194,175.7,189.6,178,185.9,179z M56.7,176.9l-0.1-0.2c-0.3,0-0.4-0.1-0.3-0.4c0-0.7-0.1-1.3-0.2-2
		c-0.1-0.4-0.3-0.7-0.5-1c-0.2-0.2-0.4-0.2-0.6,0c-0.4,0.5-0.8,1-1.1,1.5c-0.4,0.6-0.8,1.3-1,1.9c-0.3,0.8-0.5,1.6-0.8,2.5
		s-0.6,1.8-0.4,2.8c0,0.3,0.5,2.8,0.6,2.9c0.2,0.2,1.3-0.7,1.6-1.1c0.7-1.1,1.3-2.3,1.6-3.5c0.2-0.8,0.5-1.5,0.8-2.3
		C56.4,177.7,56.6,177.3,56.7,176.9z M73.6,179.8c0-0.2-0.1-0.2-0.3-0.1c-0.1,0-0.3,0.1-0.4,0.2c-0.6,0.3-0.8,0.8-1,1.3
		s-0.3,1-0.2,1.6c0,0.4,0.1,0.8,0.3,1.2c0.2,0.3,0.3,0.4,0.6,0.1c0.2-0.2,0.4-0.5,0.5-0.8C73.3,182.2,73.6,180.9,73.6,179.8z
		 M73.7,177.6v-0.1c0-0.4-0.1-0.9-0.1-1.3c0-1.5-0.2-2.9-0.5-4.4c-0.1-0.4-0.3-0.8-0.5-1.2c-0.1-0.2-0.2-0.3-0.4,0
		c-0.8,0.7-1.1,1.5-1.2,2.5c-0.1,0.9-0.2,1.7-0.3,2.5c0,0.7-0.1,1.4-0.1,2.1c0,0.3,0,0.7,0,1c-0.1,0.8,0,1.6,0,2.5v0.1l0.1-0.1
		c0.3-1,1-1.7,2.1-2.2C73.5,178.6,73.8,178.2,73.7,177.6z M82,174.6c0.8-1.8,1.7-3.4,1.7-5.4c0-0.3-0.1-0.5-0.4-0.6
		c-0.6-0.3-1.6,1.8-1.7,2.4C81.4,172.6,81.6,174.2,82,174.6C81.9,174.7,81.9,174.6,82,174.6z M121.5,171.1c0-1.1-0.1-2-0.5-3
		c-0.5-1.5-1.3-0.4-1.5,0.3c-0.6,2.8,0.2,5.2,1.6,6.8c0-0.2,0.1-1.3,0.2-1.5C121.5,172.4,121.5,172.3,121.5,171.1z M127.6,174.6
		c0.8-1.8,1.7-3.4,1.7-5.4c0-0.3-0.1-0.5-0.4-0.6c-0.6-0.3-1.6,1.8-1.7,2.4C127,172.6,127.2,174.2,127.6,174.6
		C127.5,174.7,127.5,174.6,127.6,174.6z M170.8,178.7C170.8,178.7,170.7,178.7,170.8,178.7L170.8,178.7L170.8,178.7z"/>
</g>
</svg>
