<?xml version="1.0" encoding="utf-8"?>
<!-- Generator: Adobe Illustrator 22.1.0, SVG Export Plug-In . SVG Version: 6.00 Build 0)  -->
<svg version="1.1" id="Layer_1" xmlns="http://www.w3.org/2000/svg" xmlns:xlink="http://www.w3.org/1999/xlink" x="0px" y="0px"
	 viewBox="0 0 200.1 209.8" style="enable-background:new 0 0 200.1 209.8;" xml:space="preserve">
<g id="libra">
	<path d="M154.8,148.2l1.1-11.2l-11.6-71.1L75.8,19.5L11.5,66.9l39.3,58.3l9.7,45.5l1.1-0.2l-9.8-45.6l-0.6,0.1l0.5-0.3L13.6,68.1
		l66.2,2.6l0,0l63.4-3.2l11.4,69.6l-1.3,12l13.4,6.1l0.5-1.1L154.8,148.2z M80.5,69.5l-66.9-2.7l62.3-45.7l66.7,45.2L80.5,69.5z"/>
	<path d="M145.3,63.8c1.6,0.7,2.4,2.5,1.8,4.2c-0.7,1.6-2.5,2.4-4.2,1.8c-1.6-0.7-2.4-2.5-1.8-4.2C141.8,64,143.7,63.2,145.3,63.8z
		 M152.9,135.3c-0.7,1.6,0.1,3.5,1.8,4.2c1.6,0.7,3.5-0.1,4.2-1.8c0.7-1.6-0.1-3.5-1.8-4.2C155.4,132.8,153.6,133.6,152.9,135.3z
		 M153.6,145.2c-1.6,0.8-2.3,2.7-1.5,4.3s2.7,2.3,4.3,1.5c1.6-0.8,2.3-2.7,1.5-4.3C157.1,145.1,155.2,144.4,153.6,145.2z
		 M165.7,150.8c-1.6,0.8-2.3,2.7-1.5,4.3s2.7,2.3,4.3,1.5c1.6-0.8,2.3-2.7,1.5-4.3S167.3,150,165.7,150.8z M72.9,18.7
		c-0.7,1.6,0.1,3.5,1.8,4.2c1.6,0.7,3.5-0.1,4.2-1.8c0.7-1.6-0.1-3.5-1.8-4.2C75.4,16.3,73.6,17,72.9,18.7z M77.6,68.8
		c-0.7,1.6,0.1,3.5,1.8,4.2c1.6,0.7,3.5-0.1,4.2-1.8c0.7-1.6-0.1-3.5-1.8-4.2C80.1,66.4,78.2,67.2,77.6,68.8z M48.4,123.2
		c-0.7,1.6,0.1,3.5,1.8,4.2c1.6,0.7,3.5-0.1,4.2-1.8c0.7-1.6-0.1-3.5-1.8-4.2C50.9,120.7,49.1,121.5,48.4,123.2z M58.2,168.2
		c-0.7,1.6,0.1,3.5,1.8,4.2c1.6,0.7,3.5-0.1,4.2-1.8c0.7-1.6-0.1-3.5-1.8-4.2C60.7,165.7,58.8,166.5,58.2,168.2z M8.9,65.6
		c-0.7,1.6,0.1,3.5,1.8,4.2c1.6,0.7,3.5-0.1,4.2-1.8c0.7-1.6-0.1-3.5-1.8-4.2C11.5,63.2,9.6,64,8.9,65.6z"/>
	<path d="M99.7,162.1c-0.2-0.2,0.2-2,0.3-2.3c0.1-0.4,1.5-0.3,1.6,0c0,0,0.4,1.3,0,2.5c-0.2,0.1-0.4,0.2-0.6,0.2
		C100.6,162.5,100.1,162.4,99.7,162.1z M182.2,171.8c-1.7,0.4-6.9,1-8.6,1s-3.3,0-5,0c-0.9,0-4.4,0.1-5.1,0.2
		c-2.4,0.4-4.7,0.7-6.6,2.1c-0.9,0.6-2.7,2.1-4.2,4.1c-0.7,1.4-3.1,4.8-4.9,5.3c-0.9,0.2-1.8,0.1-2.7-0.4c-0.5-0.3-1-0.8-1.3-1.4
		c-1-2-0.7-8-0.4-10.4c0-0.1,0-0.3,0-0.4c0-0.3-0.2-0.3-0.3-0.2c-0.9,2.4-2.6,7.4-5.7,7.2c-1.8-0.3-2.5-1.4-2.7-3.1
		c-0.3,0.7-2.5,7.1-3.1,8.3c-1.6,2.8-3.3,2.5-4.3,2c-0.3-0.1-0.5-0.5-0.7-0.8c-0.5-0.8-0.6-1.8-0.6-2.8c0-1.5,0.1-2.9,0.2-4.4
		c0-0.9,0.1-1.8,0.2-2.8c0.1-1.2,0.1-1.4,0.2-2c0.1-1.4-0.7-1.6-1.7-2.2c-0.3-0.2-0.6-0.4-0.8-0.7c-0.2,0.4-0.5,0.8-0.8,1.2
		c-0.3,0.5-0.8,1-1.2,1.4c-0.9,0.9-3.3,2.3-3.4,2.4c-0.6,0.3-0.6,0.3-0.7,0.9c-0.1,0.7-0.3,1.5-0.4,2.2c0,0.1,0,0.2-0.1,0.3
		c-0.7,2.3-0.9,3-3,4.7c-1.6,0.9-3.8,0.3-3.5-1.4c0.1-0.7,0.3-1.4,0.6-2.1c0.8-1.5,2.1-2.7,3.7-3.6c0.5-0.2,0.6-0.6,0.7-1.1
		c0.1-1,0.2-2,0.1-3c0-0.7-0.1-1.4-0.3-2c-0.1-0.6-0.4-1.1-0.9-1.5c-0.4-0.3-0.5-0.3-0.9,0c-1,0.6-1.6,1.5-1.9,2.5
		c-0.2,0.8-0.4,1.7-0.6,2.5c-0.2,1.3-0.5,2.6-0.5,3.9c0,0.7,0,1.3-0.1,2c0,0.3,0,0.7,0,1.1c0,0.5-1.5,0.9-1.5,0.8
		c-0.4-0.1-1.7-0.4-1.8-0.8c-0.3-1.3-0.3-2.7-0.4-4.1c0-0.6,0-1.3,0-1.9c-0.1,0.4-0.2,0.7-0.3,1c-0.2,0.8-0.7,1.7-1,2.5
		c-0.1,0.4-0.4,0.7-0.6,1.1c-0.9,1-1.6,1.6-3.3,1.3c-1.7-0.2-2.1-1.8-2.3-2.2c-0.5-1.1-0.8-2.2-0.9-3.3c-0.1-0.8-0.2-1.7-0.3-2.6
		c0-2.2,0.3-4.4,0.7-6.5c0.1-0.8,0.3-0.9,1.3-0.8c0.5,0,0.9,0.2,1.4,0.5c0.2,0.1,0.3,0.3,0.2,0.6c-0.2,1.3-0.4,2.6-0.6,3.9
		c-0.1,1.3-0.1,2.6,0,3.9c0,1,0.2,2,0.4,3c0.1,3.2,2.8,1.2,3,0.8c0.7-1.5,1.8-4.1,2.4-6.1c0-0.2,0-0.4,0-0.5c0-1.3,0-2.6,0.1-3.9
		c0.2-3.1,0.5-5.7,1.2-8.7c0.7-3.2,1.5-5.7,3.4-8.5c1.2-1.6,3.7-1.1,3.7,0.7c0,0.6-0.1,1.4-0.1,1.7c-0.4,1.9-0.7,3.7-1.3,5.6
		c-0.5,1.8-2.1,5.4-2.2,5.6c-0.5,0.9-1,1.6-1.5,2.2c0,0-0.6,0.8-0.6,1.2c0,1.3,0,2.6,0,3.8c0,1.7,0,3.3,0.1,4.9
		c0,1.2,0.4,2.4,0.4,1.7c0-1.4,0.1-2.8,0.4-4.1c0.1-0.8,0.4-1.6,0.6-2.5c0.3-1,0.9-1.9,1.8-2.6c0.9-0.7,2-0.8,3-0.2
		c0.7,0.4,1.2,1,1.5,1.7c0.2,0.4,0.3,0.9,0.4,1.3c0.1,0.7,0.2,1.3,0.2,2c0,0.2,0,1.5,0.1,1.4c0.1,0,0.2-0.1,0.3-0.1
		c1.5-0.8,2.7-1.8,3.7-3.1c0.7-0.9,0.7-1.3,1.1-2c-1.1-1.8-1.2-4.4-0.7-6.2c0.4-1.3,1.2-2.4,2.6-2.9c0.7-0.2,1.3-0.1,1.9,0.3
		c0.4,0.2,0.5,0.8,0.4,1.3c-0.1,1.5-1.4,4.5-2.4,6.1c-0.2,0.2-0.2,0.4-0.1,0.7c0.5,1.3,4,1.3,4.1,3.9c0,1-0.1,2-0.3,3.6
		c-0.1,1-0.3,2-0.4,3c0,0.9-0.1,1.8-0.1,2.7s-0.3,2.9,0.3,3.3c0,0.1,1.2-0.8,1.4-1.3c0.6-1,1-2,1.3-3.1c0.4-1.2,2.8-6.8,3.2-7.7
		c0-0.1,0-0.1,0-0.2c0.3-1.7,0.8-3.2,1.5-4.7c0.4-0.8,0.9-1.6,1.6-2.1c0.6-0.6,1.2-0.9,2.1-1c0.1,0,0.8,0,0.9,0
		c1.5,0.3,1.9,1.1,2.6,2.7c0.1-0.6,0-0.8,0.1-1.6c0-0.3,0.2-0.5,0.4-0.5c0.5,0,1,0,1.5,0.3c0.4,0.3,0.5,0.7,0.4,1.2
		c-0.5,3.4-1.2,12.8,0,15.6c0.3,0.7,1.1,0.9,1.7,0.6c2.1-1.1,3.2-3.4,4.6-5.3c0.6-0.6,1.1-1.6,1.8-2.3c1.3-1.3,2.8-2.4,4.7-3.2
		c0.8-0.3,1.6-0.6,2.4-0.8c0.7-0.1,1.4-0.3,2-0.4c1.2-0.2,5.7-0.3,6-0.3c2.4,0,4.8,0,7.2,0c1.3,0,2.7-0.1,4-0.3
		c1.5-0.3,2.9-0.5,4.1-1.1c2.4-1.1,2.8-2.2,2.5-3.8c-0.3-2.2,2-2.4,2.6-1C190.5,168.3,186,170.8,182.2,171.8z M109.9,165.3l0.1-0.1
		c0.4-0.7,0.8-1.4,1.1-2.2c0.5-1,3.4-11.3,3.5-11.9c-0.1-0.9-0.4-1.1-1.2,0.1c-0.5,0.8-0.7,1.7-1,2.5c-0.3,1-0.6,2-0.9,2.9
		c-0.2,0.6-1.1,5.6-1.4,7c-0.1,0.5-0.1,1-0.1,1.4C109.9,165.2,109.9,165.3,109.9,165.3z M115.6,177.3c0,0,0-0.2-0.1-0.2
		c0,0-0.1,0-0.2,0c-0.2,0.1-0.4,0.3-0.6,0.4c-1.5,1.1-2.5,2.5-2.8,4.3c-0.1,0.3,0,0.6,0.1,0.9c0.1,0.2,0.2,0.3,0.5,0.1
		c0.2-0.1,0.5-0.3,0.7-0.6c0.8-0.9,1.5-1.9,1.8-3.1C115.2,178.6,115.4,177.9,115.6,177.3z M124.9,167.2c0.8-1.8,1.7-3.4,1.7-5.5
		c0-0.3-0.1-0.5-0.4-0.6c-0.6-0.3-1.7,1.8-1.7,2.5c-0.2,1.6,0,3.3,0.3,3.8C124.8,167.2,124.8,167.2,124.9,167.2z M143.2,169
		c-0.2-0.5-0.6-1.1-0.8-1.7c-1-1.7-1.6-1.4-2.5-0.2c-0.5,0.6-0.9,1.3-1.3,2.1c-0.9,2.4-2.2,5.6-1.5,8.3c0.4,1.9,2.5-0.4,2.8-1.1
		c1.4-2.1,1.4-2.9,2.5-5C142.6,171.1,143.4,169.4,143.2,169z M110.1,195.7c0.1,0.7-0.7,1.6-2.3,2.1c-2.5,0.9-4.5,0.8-6.8,0.6
		c-2.7-0.4-5.8-2.7-6.7-3.2c-0.4-0.3-0.7-0.6-1-0.8c-1.3-0.9-2.4-1.8-3.4-2.9c-0.5-0.6-1.1-1-1.7-1.6c-0.4-0.4-1.6-1.5-1.7-1.6
		c-1-0.7-0.9-0.2-1.4,0.7s-1.5,2.1-2.4,2.8c-0.9,0.8-1.9,1.3-3.1,1.8c-1,0.4-2.1,0.2-3.3,0.3c-1.9-0.1-3.4-1.3-3.9-2.9
		c-0.6-1.6-0.5-4.9,1.9-6.1c2.2-1.1,3.5-1.1,6-1.2c0.8,0,1.7,0.2,2.5,0.4c0.2,0,0.3,0,0.4-0.2l0.6-34.5c-0.1-2.7-0.2-5.3-0.3-7.9
		c-0.1-1-0.2-2-0.3-2.9c0-0.4,3.4-2.3,3.6,2.1c0.1,1.1,0.1,2.2,0.2,3.4s0.2,2.4,0.2,3.6c0,0.8,0,1.7,0.1,2.6
		c0,0.8-0.8,24.1-0.7,26.5c0,0.9-0.3,6.1-0.3,6.9c-0.1,0.6-0.1,1.5,0.1,1.6c0.9,0.3,3.8,2.5,4.3,3c0.5,0.6,2.1,1.9,2.2,2.1
		c0.6,0.6,3.4,3.3,3.9,3.9c0.9,0.8,4.3,2.9,5.7,3.1c1,0.1,2,0,2.9-0.1c0.4-0.1,0.7-0.2,0.8-0.5c0-0.2,0-1.1,0.5-1.5
		C108,194.1,109.8,193.7,110.1,195.7z M82.5,186.4c-1.2-0.6-2.4-1-3.7-1c-1.1-0.1-2.1,0.2-3,0.5c-0.8,0.2-1.4,0.8-1.7,1.5
		c-0.4,0.8-0.4,1.5-0.3,2.3c0,0.8,0.3,1.4,0.8,2.1c0.7,0.7,3.3,0.6,4.3,0.1c1.8-1,2.8-1.7,3.5-3.3c0.1-0.4,0.3-0.9,0.5-1.4
		C83,186.9,82.8,186.6,82.5,186.4z M83.5,187.1L83.5,187.1L83.5,187.1L83.5,187.1z"/>
	<path d="M84.9,116.9h4.4v2.4h-7.1v-17.1h2.7V116.9z M90.5,119.3h2.7v-17.1h-2.7V119.3z M103.5,113.9v1.4c0,2.6-1.4,4.1-4.1,4.1
		h-4.2v-17.1h4.1c2.8,0,4,1.3,4,3.9v0.6c0,1.8-0.5,2.9-1.7,3.4l0,0C102.9,110.8,103.5,112.1,103.5,113.9z M97.9,109.2H99
		c1,0,1.6-0.4,1.6-1.8v-1c0-1.2-0.4-1.8-1.4-1.8h-1.3L97.9,109.2L97.9,109.2z M100.8,113.7c0-1.6-0.5-2.1-1.7-2.1h-1.2v5.3h1.5
		c0.9,0,1.4-0.4,1.4-1.7L100.8,113.7L100.8,113.7z M113.2,117.2c0,0.8,0,1.4,0.3,2.1h-2.7c-0.1-0.4-0.2-0.7-0.2-2.1v-2.7
		c0-1.6-0.5-2.2-1.8-2.2h-0.9v7h-2.8v-17.1h4.1c2.8,0,4,1.3,4,3.9v1.3c0,1.8-0.6,2.9-1.8,3.4l0,0c1.3,0.6,1.8,1.8,1.8,3.6V117.2z
		 M110.4,106.4c0-1.2-0.4-1.8-1.4-1.8h-1.3v5.3h1.1c1,0,1.6-0.4,1.6-1.8L110.4,106.4L110.4,106.4z M123.6,119.3h-2.7l-0.5-3.1h-3.3
		l-0.5,3.1h-2.5l2.7-17.1h3.9L123.6,119.3z M120.1,113.9l-1.3-8.6l0,0l-1.3,8.6H120.1z"/>
</g>
</svg>
