<?xml version="1.0" encoding="utf-8"?>
<!-- Generator: Adobe Illustrator 22.1.0, SVG Export Plug-In . SVG Version: 6.00 Build 0)  -->
<svg version="1.1" id="Layer_1" xmlns="http://www.w3.org/2000/svg" xmlns:xlink="http://www.w3.org/1999/xlink" x="0px" y="0px"
	 viewBox="0 0 216.6 211.9" style="enable-background:new 0 0 216.6 211.9;" xml:space="preserve">
<g id="pisces">
	<path d="M185.4,51.1l-9.9,0.4l-9.7,11.9l-20.9,8.7L98.7,100l-16,7.7l-18.9,21.9l-9.9,8.7l-4.4,15.9l0,0l-6.7,6.5l0.3-32.5l-1.4-32
		l4.1-33.6L33.4,51.1l-11.6-8.9l-5.4-5.6L20,24l-1.1-0.3l-3.7,13.1L21,43l11.9,9.3L44.4,63l-3.8,33.1l1.5,31.7l-0.3,34.1l1.3,0.2
		l7.7-7l4.9-16.6l9.2-8.1L83.7,109l15.8-8l0,0l46.1-27.9l20.5-8.5l7.6,16.2l0.8-0.3l17.4-8.1l5.8-15.8L185.4,51.1z M190.6,71.8
		l-16.5,7.5L166.8,64l9.3-11.3l8.9-0.4l10.9,4.8L190.6,71.8z"/>
	<path d="M34.4,48.3c1.6,0.7,2.4,2.5,1.8,4.2c-0.7,1.6-2.5,2.4-4.2,1.8s-2.4-2.5-1.8-4.2C30.9,48.5,32.8,47.7,34.4,48.3z M18.3,41.6
		c-0.7,1.6,0.1,3.5,1.8,4.2s3.5-0.1,4.2-1.8c0.7-1.6-0.1-3.5-1.8-4.2S18.9,39.9,18.3,41.6z M38,95.1c-0.7,1.6,0.1,3.5,1.8,4.2
		s3.5-0.1,4.2-1.8s-0.1-3.5-1.8-4.2C40.6,92.7,38.7,93.4,38,95.1z M95.6,99.3c-0.7,1.6,0.1,3.5,1.8,4.2s3.5-0.1,4.2-1.8
		c0.7-1.6-0.1-3.5-1.8-4.2S96.3,97.7,95.6,99.3z M52,137.5c-0.7,1.6,0.1,3.5,1.8,4.2s3.5-0.1,4.2-1.8c0.7-1.6-0.1-3.5-1.8-4.2
		S52.7,135.9,52,137.5z M61.3,128.8c-0.7,1.6,0.1,3.5,1.8,4.2c1.6,0.7,3.5-0.1,4.2-1.8c0.7-1.7-0.1-3.5-1.8-4.2S62,127.2,61.3,128.8
		z M12.5,35.6c-0.7,1.6,0.1,3.5,1.8,4.2c1.7,0.7,3.5-0.1,4.2-1.8c0.7-1.6-0.1-3.5-1.8-4.2S13.2,34,12.5,35.6z M41.9,61.7
		c-0.7,1.6,0.1,3.5,1.8,4.2c1.7,0.7,3.5-0.1,4.2-1.8c0.7-1.6-0.1-3.5-1.8-4.2C44.4,59.3,42.6,60.1,41.9,61.7z M142,71.4
		c-0.7,1.6,0.1,3.5,1.8,4.2c1.6,0.7,3.5-0.1,4.2-1.8c0.7-1.7-0.1-3.5-1.8-4.2C144.5,68.9,142.6,69.8,142,71.4z M172.9,50.9
		c-0.7,1.6,0.1,3.5,1.8,4.2s3.5-0.1,4.2-1.8c0.7-1.6-0.1-3.5-1.8-4.2S173.6,49.2,172.9,50.9z M171,79c-0.7,1.6,0.1,3.5,1.8,4.2
		c1.6,0.7,3.5-0.1,4.2-1.8s-0.1-3.5-1.8-4.2S171.7,77.4,171,79z M182.8,50.5c-0.7,1.6,0.1,3.5,1.8,4.2s3.5-0.1,4.2-1.8
		s-0.1-3.5-1.8-4.2S183.5,48.8,182.8,50.5z M39.5,126.3c-0.7,1.6,0.1,3.5,1.8,4.2s3.5-0.1,4.2-1.8c0.7-1.7-0.1-3.5-1.8-4.2
		C42,123.9,40.2,124.7,39.5,126.3z M80.2,106.9c-0.7,1.6,0.1,3.5,1.8,4.2s3.5-0.1,4.2-1.8c0.7-1.6-0.1-3.5-1.8-4.2
		S80.9,105.3,80.2,106.9z M163.2,62.7c-0.7,1.6,0.1,3.5,1.8,4.2c1.7,0.7,3.5-0.1,4.2-1.8c0.7-1.6-0.1-3.5-1.8-4.2
		S163.9,61.1,163.2,62.7z M193.7,55.5c-0.7,1.6,0.1,3.5,1.8,4.2s3.5-0.1,4.2-1.8c0.7-1.6-0.1-3.5-1.8-4.2
		C196.2,53.1,194.4,53.9,193.7,55.5z M187.7,71.4c-0.7,1.6,0.1,3.5,1.8,4.2c1.6,0.7,3.5-0.1,4.2-1.8c0.7-1.7-0.1-3.5-1.8-4.2
		C190.2,68.9,188.4,69.8,187.7,71.4z M47.1,153.4c-0.7,1.6,0.1,3.5,1.8,4.2s3.5-0.1,4.2-1.8c0.7-1.6-0.1-3.5-1.8-4.2
		C49.6,151,47.7,151.8,47.1,153.4z M39.2,160.4c-0.7,1.6,0.1,3.5,1.8,4.2s3.5-0.1,4.2-1.8c0.7-1.6-0.1-3.5-1.8-4.2
		C41.7,158,39.9,158.8,39.2,160.4z M16.3,22.8c-0.7,1.6,0.1,3.5,1.8,4.2c1.6,0.7,3.5-0.1,4.2-1.8c0.7-1.6-0.1-3.5-1.8-4.2
		C18.8,20.3,17,21.2,16.3,22.8z"/>
	<path d="M117,103.5h-4v17.1h2.7v-6.4h1.3c2.7,0,4-1.5,4-4.2v-2.3C121,104.9,119.7,103.5,117,103.5z M118.4,110.1
		c0,1.2-0.5,1.6-1.3,1.6h-1.3v-5.8h1.3c0.9,0,1.3,0.4,1.3,1.6V110.1z M122.3,103.5h2.7v17.1h-2.7V103.5z M134.5,116.4
		c0,2.7-1.4,4.3-4,4.3s-4-1.6-4-4.3v-1h2.5v1.2c0,1.2,0.5,1.7,1.4,1.7s1.4-0.4,1.4-1.7c0-1.2-0.5-2.2-2.3-3.7c-2.2-2-3-3.4-3-5.3
		c0-2.7,1.3-4.3,4-4.3s4,1.6,4,4.3v0.5H132v-0.7c0-1.2-0.5-1.7-1.3-1.7c-0.9,0-1.3,0.5-1.3,1.7s0.5,2.2,2.3,3.7
		C133.8,113.1,134.5,114.5,134.5,116.4z M143.9,107.6v1.7h-2.5v-1.8c0-1.2-0.5-1.7-1.4-1.7s-1.4,0.5-1.4,1.7v9.2
		c0,1.2,0.5,1.7,1.4,1.7s1.4-0.4,1.4-1.7v-2.4h2.5v2.3c0,2.7-1.4,4.3-4,4.3s-4-1.6-4-4.3v-8.9c0-2.7,1.4-4.3,4-4.3
		C142.5,103.3,143.9,104.8,143.9,107.6z M145.5,103.5h7.3v2.4h-4.6v4.8h3.7v2.4h-3.7v5h4.6v2.4h-7.3V103.5z M162.1,116.4
		c0,2.7-1.4,4.3-4,4.3s-4-1.6-4-4.3v-1h2.5v1.2c0,1.2,0.5,1.7,1.4,1.7s1.4-0.4,1.4-1.7c0-1.2-0.5-2.2-2.3-3.7c-2.2-2-3-3.4-3-5.3
		c0-2.7,1.3-4.3,4-4.3s4,1.6,4,4.3v0.5h-2.5v-0.7c0-1.2-0.5-1.7-1.3-1.7c-0.9,0-1.3,0.5-1.3,1.7s0.5,2.2,2.3,3.7
		C161.4,113.1,162.1,114.5,162.1,116.4z"/>
	<path d="M113.9,159.2c-0.3-0.2,0.2-2.2,0.3-2.5c0.2-0.4,1.7-0.4,1.8,0.1c0,0,0.5,1.4,0.1,2.7c-0.2,0.1-0.4,0.2-0.7,0.2
		C114.9,159.6,114.4,159.5,113.9,159.2z M109.9,147.6c1.3,4.9,0.7,8.9-0.7,12.8c-0.5,1.3-0.9,2.5-1.6,3.7c-0.2,0.5-1.4,2.5-1.8,3
		c-0.8,0.9-4.8,7.3-11.2,10.2c-3.6,1.6-4,1.4-6.4,2.3c-0.8,0.3-1.8,0.5-2.8,0.8c-0.4,0.1-0.5,0.9-0.5,1c0,2.4,0.4,15.1,0.3,16.5
		c0,0.8-0.1,1.6-0.1,2.4c0,0.4-0.5,0.7-0.9,0.8c-1,0.4-2.8,0.8-2.8-0.3c0-1.3,0.1-2.4,0.1-3.6c0.1,0-0.2-9.5-0.2-11.2
		c0-0.9,0-4,0-4.7c0-0.3-3.7,0.5-5.2,0.4c-1.3-0.1-1.5-1.3-1.2-2.2c0.4-1.1,1.8-1.2,2.5-0.4s0.5,1.2,1.8,0.9
		c0.4-0.1,0.8-0.1,1.3-0.2c0.8-0.2,0.8-0.2,0.8-0.9s-0.1-2.6-0.1-3.4c-0.1-1.8-0.2-3.5-0.2-5.2c-0.1-1.5-0.1-2.9-0.1-4.3
		c0.1-0.7,0-1.4,0.1-2.1c0.1-2.1,0.2-4.3,0.4-6.4c0.7-6.9,0.8-12.9,2.9-20.2c0-0.1,0.1-0.3,0.1-0.4c0-0.4-0.1-0.4-0.4-0.3
		c-1.6,0.6-3,1.2-4.3,2c-4.1,2.7-6.5,6.5-7.9,9.2c-2.9,5.7-4.5,14.4-4.5,14.6c0,0.7-1.4,1.4-1-1.1c0.3-2.5,2.4-9.8,2.8-11.1
		c0.9-2.1,1.6-4.4,3.1-6.4c2.1-3.1,4.9-6.3,9.7-8c1.3-0.6,6.4-1.6,7.5-1.8c7-0.9,11.2,1.4,12.9,2.4c3.9,2.2,6.3,7.4,6.5,8
		C109.2,145.4,109.8,147.4,109.9,147.6z M106.4,144.7c-0.4-1.2-1-2.5-1.8-3.4c-6.5-6-15.5-5.6-16.6-5.3c-0.5,0.1-1.7,0.3-2.2,0.4
		c-0.1,0.1-0.1,0.2-0.2,0.2c0.1,0.1,0.2,0.1,0.2,0.1c0.5,0.1,1,0.3,1.6,0.4c0.5,0.2,0.6,0.3,0.6,0.7c0,0.5-0.1,0.9-0.1,1.4
		c-0.7,3-1,5.9-1.4,8.9c-0.3,1.9-0.5,3.8-0.8,5.7c-0.2,1.6-1,16.1-1,16.8c0.1,2.4,0.2,6,0.2,8.2c0,0.5,2.6-0.5,3.4-0.8
		c7.4-2.6,10.9-6.2,11.8-7.2c0.8-0.9,3.8-6.1,4.6-7.4c1.2-2.3,2.8-9.1,2.9-10.2C107.6,149.5,107.3,147.4,106.4,144.7z M196.1,169.8
		c-1.9,0.4-7.6,1.1-9.6,1.1c-1.8,0-3.6,0-5.5,0c-1,0-4.9,0.1-5.6,0.2c-2.7,0.5-5.2,0.9-7.3,2.3c-0.5,0.3-1.3,0.9-2.1,1.8
		c0,0.1,0.2,0.9,0.3,1.3c0.3,1.4,0.5,2.8,0.6,4.2c0.2,1.2,0.1,2.4,0.1,3.6c0,1-0.3,2-0.9,2.8c-1.5,2.4-4.9,2.9-5.9-0.1
		c-0.4-1.1-0.4-2.2-0.2-3.3c0.3-1.9,1-3.6,2-5.3c0.1-0.2,0.4-0.6,0.6-0.9c0.2-0.4,0.7-0.8,0.9-1.3c-0.1-0.6-0.2-1.1-0.2-1.1
		c-0.3-1-0.5-2-0.9-3c-0.3-1-0.7-2-1-3c-0.7,1.9-2,6.5-3.8,8.6c-1,1.4-2.9,2.1-4.7,1.9c-1.3-0.2-2-0.7-3.1-1.5c-1.3-1-2-2.7-2.2-4.7
		c-0.8,2.1-1.8,4.3-2.8,6c-0.9,1.6-1.8,3.4-4.3,3.6c-3.7,0.1-5.3-2.9-5.9-5.8c-0.4-2.1-0.5-4.2-0.2-6.3c0-0.2,0-0.3,0.1-0.5
		c-0.5,0.6-1.2,1.1-2.1,1.8c-1,0.7-2,1.1-3.3,1.8c0.3,1,1.1,4,1.2,4.8c0.2,1,0.5,3.7-0.2,5.9c-0.3,1-0.8,2-1.4,2.9
		c-0.8,1.1-1.9,1.8-3.5,1.6c-0.3,0-2.7-0.3-2.9-5.7c0.1-2.6,0.6-5,2-7.3c0.2-0.3,0.4-0.7,0.6-0.9c0.3-0.4,0.8-0.8,0.6-1.3
		c-0.9-2.5-0.9-2.8-1.7-5.1c-0.5,1.5-0.9,5.5-3.6,9.5c-1,1.2-1.8,1.8-3.7,1.4c-0.3-0.1-0.7-0.3-1-0.5c-0.4-0.3-1.3-1.5-1.5-1.9
		c-0.6-1.2-0.9-2.5-1-3.7c-0.2-0.9-0.2-1.9-0.3-2.9c0-2.5,0.3-4.9,0.8-7.3c0.2-0.9,0.4-1,1.4-0.9c0.5,0.1,1,0.2,1.5,0.5
		c0.2,0.2,0.3,0.4,0.3,0.7c-0.2,1.5-0.5,2.9-0.7,4.4c-0.2,1.4-0.2,2.9-0.1,4.4c0.1,1.2,0.2,2.3,0.4,3.4c0.1,0.9,0.8,2.4,0.9,2.5
		c0.9,0.9,2.3-1.2,2.5-1.6c2-3.6,3.5-9.6,3.5-9.9c-0.9-3.3-1.6-8.7,2.6-8.9c1.4-0.1,2.7,0.3,3.4,1.5c0.5,0.9,1.1,2.1,0.7,3.9
		c-0.1,0.7-0.6,1.3-1.3,1.6c-0.1,0.1-0.6-0.2-0.4-0.4c0.1-0.1,0.2-0.2,0.3-0.3c0.1-0.2,0.3-0.4,0.3-0.7c0.2-0.7,0.1-0.4,0.2-1.1
		c0.1-1-0.1-2.1-0.9-2.7c-1.9-1.6-2.9,0.9-2.9,1.4c0.1,1.1,0.4,2.3,0.6,3.4c0.2,1.2,0.6,2,1,3.2c0.2,0.5,1.2,3.4,1.3,3.5
		c0.2,0.2,0.6,1.6,0.7,1.6c3-1.1,6.1-4.5,6.1-4.5c0.2-1.2,0.5-2.2,0.9-3.3c0.4-1,1-1.9,1.7-2.6c0.5-0.5,1.3-0.9,2-1.2
		c0.4-0.2,1.3-0.2,1.7-0.2c2.7,0.3,2,4.9,1.3,6.3c-0.2,0.4-0.6,0.6-1,0.7c-0.3,0-0.4-0.2-0.2-0.3c0.5-0.6,0.9-4.8,0.2-5.8
		c-0.6-0.7-2,1.5-2.3,1.9c-0.2,0.4-0.4,0.8-0.5,1.3c-0.4,1.1-0.8,2.3-1,3.5c-0.3,1.2-0.4,2.4-0.5,3.6c-0.1,1.2-0.1,2.4,0.1,3.5
		c0.1,1,0.3,2.1,0.6,3.1c0.2,0.5,0.6,2.6,2.5,3c1.6,0.4,2.3-1,2.8-1.6c1.1-1.3,4.3-9.6,4.5-10.1c0.1-2.1,0.6-4.2,1.2-5.5
		c0.6-1.3,1.3-2,2.5-2.6c1.4-0.7,3.6-0.9,3.8,1.3c0.1,1-0.1,3-0.9,4.8c-0.8,1.7-2.4,3-3.1,3.5c-0.4,0.2-0.3,0.5-0.4,0.9
		c-0.2,1.3,0.3,3.4,0.8,4.3c0.4,0.8,2,1.9,2.9,1.5c0.7-0.2,1.4-0.4,1.9-1c1.2-1.3,1.8-3,2.7-4.5c0.1-0.2,1.2-3.4,1.6-4.6
		c0.1-0.2,0.2-0.9,0.2-1c-0.2-0.6-0.4-1.2-0.6-1.8c-0.4-1.1-0.8-2.2-0.9-3.4c-0.2-1.6,0.1-3.2,0.9-4.6c0.7-1,1.7-1.6,3-1.6
		c1.2,0.1,2.1,0.7,2.6,1.9c0.9,1.9,0.9,3.8,0.4,5.9c0,0.2-0.1,0.4-0.3,0.4c-0.2,0.1-0.5,0.2-0.7,0.1c-0.3-0.1-0.2-0.4-0.1-0.6
		c0.4-1.6,0-4.6-0.7-5.9c-0.5-1.2-1.6-1.2-2.2-0.1c-0.5,1-0.9,2.1-0.8,3.3c0.1,1.4,0.4,2.7,1,4c0.4,1,0.9,2,1.3,3.1
		c0.5,1.4,1,2.9,1.5,4.4c0.1,0.1,0.4,1.2,0.5,1.5c1.3-1.1,2.7-2,4.5-2.7c0.8-0.4,1.8-0.7,2.7-0.9c0.7-0.2,1.5-0.3,2.2-0.4
		c1.3-0.2,6.3-0.4,6.7-0.4c2.7,0,5.3,0.1,8,0c1.4,0,2.9-0.1,4.4-0.3c1.7-0.3,3.3-0.6,4.6-1.2c2.7-1.3,3-2.5,2.8-4.2
		c-0.4-2.5,2.2-2.7,2.8-1.2C205.3,166,200.3,168.7,196.1,169.8z M150.6,170.6c0.2-0.2,0.5-0.4,0.8-0.6c1.9-1.9,2.9-4.1,2.5-6.9
		c-0.1-0.5-0.5-0.3-0.7-0.1s-1.2,1.8-1.3,2c-0.8,1.9-0.9,2.5-1.3,4.5C150.5,169.8,150.6,170.2,150.6,170.6z M126.8,178.9
		c-0.2-0.8-0.4-1.5-0.7-2.3c0-0.1-0.2-0.3-0.2-0.4c-0.5,0.4-1.2,1.5-1.4,2c-0.3,0.6-0.5,1.3-0.7,1.9c-0.4,1.2-0.5,2.5-0.4,3.8
		c0.2,1.5,0.1,2.9,1.3,4.1c1,1,1.8-1,2-1.5c0.4-1.3,0.4-2.6,0.5-3.9C127.2,181.3,127.1,180.1,126.8,178.9z M164.3,184.5
		c-0.1-0.8,0-1.5-0.1-2.3c-0.1-1.2-0.3-2.4-0.4-3.5c0-0.1-0.1-0.5-0.2-1c-0.5,0.5-0.6,1.3-1,1.9c-0.4,0.9-0.7,1.8-0.9,2.6
		c-0.2,1-0.5,2.9-0.2,3.8c0.1,0.4,0.8,2.2,1.4,1.6C163.8,186.8,164.3,185.7,164.3,184.5z"/>
</g>
</svg>
