<?xml version="1.0" encoding="utf-8"?>
<!-- Generator: Adobe Illustrator 22.1.0, SVG Export Plug-In . SVG Version: 6.00 Build 0)  -->
<svg version="1.1" id="Layer_1" xmlns="http://www.w3.org/2000/svg" xmlns:xlink="http://www.w3.org/1999/xlink" x="0px" y="0px"
	 viewBox="0 0 223.4 249.8" style="enable-background:new 0 0 223.4 249.8;" xml:space="preserve">
<g id="sagittarius">
	<path d="M204.2,54.7l-20.4,18.8h-21.2l-14.7-22.7L171,12.3l-1-0.6l-23.2,38.7l-21.2,16.2l-14.4,0.2L97.9,78.1L91,43.3l-10.9-7.2
		l-13.2-1.4l-9.2-9.2l-0.8,0.8l9.3,9.5l13.4,1.3l10.3,6.6L96.7,78l-42.6-1.9v0.4l-0.2-0.1l-26.2,31.8l0.1,0.1l-0.4,0.2l19,34.6
		l-0.1,0.1l6.9,9.2l17.9,33l-0.1,0.7l46.5,3.5l0.1-1.2l-44.4-3.3l30.7-19.2l-0.6-1l-31.4,19.7l-17.7-32.8l-0.5,0.3l0.5-0.3l-6.6-8.8
		h0.1l-18.8-34.2l25.7-31.2l42.3,2.3l13,9.8l0.6-0.8l15.4-20.5l0,0l0,0l0.4-0.5L147.1,52l14.7,22.6l3.6,30.9l14,14.5l0.8-0.8
		l-13.8-14.6l-3.5-30H184l0.4-0.2l20.6-19L204.2,54.7z M109.6,87.8l-11.1-8.3l12.9-11.2l13.1-0.1L109.6,87.8z M125.9,67.1
		L125.9,67.1L125.9,67.1L125.9,67.1z"/>
	<path d="M63.4,36.1c-0.4-1.7,0.6-3.5,2.3-3.9s3.5,0.6,3.9,2.3s-0.6,3.5-2.3,3.9C65.6,38.9,63.9,37.8,63.4,36.1z M98.4,82.2
		c1.7-0.4,2.7-2.2,2.3-3.9s-2.2-2.7-3.9-2.3c-1.7,0.4-2.7,2.2-2.3,3.9C94.9,81.7,96.7,82.7,98.4,82.2z M48.4,146.6
		c1.7-0.4,2.7-2.2,2.3-3.9s-2.2-2.7-3.9-2.3s-2.7,2.2-2.3,3.9C44.9,146,46.6,147.1,48.4,146.6z M54.4,24.4c-0.7,1.6,0.1,3.5,1.8,4.2
		c1.6,0.7,3.5-0.1,4.2-1.8c0.7-1.6-0.1-3.5-1.8-4.2C56.9,22,54.9,22.8,54.4,24.4z M86.9,42.3c-0.7,1.6,0.1,3.5,1.8,4.2
		c1.6,0.7,3.5-0.1,4.2-1.8c0.7-1.6-0.1-3.5-1.8-4.2C89.4,39.8,87.5,40.6,86.9,42.3z M144.2,49.6c-0.7,1.6,0.1,3.5,1.8,4.2
		c1.6,0.7,3.5-0.1,4.2-1.8c0.7-1.6-0.1-3.5-1.8-4.2C146.9,47.2,144.9,48,144.2,49.6z M181.1,72.9c-0.7,1.6,0.1,3.5,1.8,4.2
		c1.6,0.7,3.5-0.1,4.2-1.8c0.7-1.6-0.1-3.5-1.8-4.2C183.6,70.5,181.7,71.3,181.1,72.9z M162.9,103.9c-0.7,1.6,0.1,3.5,1.8,4.2
		c1.6,0.7,3.5-0.1,4.2-1.8c0.7-1.6-0.1-3.5-1.8-4.2C165.5,101.5,163.6,102.3,162.9,103.9z M159.4,72.9c-0.7,1.6,0.1,3.5,1.8,4.2
		c1.6,0.7,3.5-0.1,4.2-1.8c0.7-1.6-0.1-3.5-1.8-4.2C161.9,70.5,160,71.3,159.4,72.9z M176.9,118.3c-0.7,1.6,0.1,3.5,1.8,4.2
		c1.6,0.7,3.5-0.1,4.2-1.8c0.7-1.6-0.1-3.5-1.8-4.2S177.5,116.6,176.9,118.3z M201.2,53.9c-0.7,1.6,0.1,3.5,1.8,4.2
		c1.6,0.7,3.5-0.1,4.2-1.8c0.7-1.6-0.1-3.5-1.8-4.2C203.9,51.5,201.9,52.3,201.2,53.9z M106.2,87.3c-0.7,1.6,0.1,3.5,1.8,4.2
		c1.6,0.7,3.5-0.1,4.2-1.8c0.7-1.6-0.1-3.5-1.8-4.2C108.9,84.8,106.9,85.6,106.2,87.3z M25.2,106.3c-0.7,1.6,0.1,3.5,1.8,4.2
		c1.6,0.7,3.5-0.1,4.2-1.8c0.7-1.6-0.1-3.5-1.8-4.2S25.9,104.6,25.2,106.3z M68.2,184.2c-0.7,1.6,0.1,3.5,1.8,4.2
		c1.6,0.7,3.5-0.1,4.2-1.8c0.7-1.6-0.1-3.5-1.8-4.2S68.9,182.6,68.2,184.2z M114.4,188.1c-0.7,1.6,0.1,3.5,1.8,4.2
		c1.6,0.7,3.5-0.1,4.2-1.8c0.7-1.6-0.1-3.5-1.8-4.2S115,186.4,114.4,188.1z M50.9,151.8c-0.2,1.8,1.1,3.3,2.9,3.5
		c1.8,0.2,3.3-1.1,3.5-2.9c0.2-1.8-1.1-3.3-2.9-3.5C52.6,148.7,51,150,50.9,151.8z M100.6,164.6c-0.2,1.8,1.1,3.3,2.9,3.5
		c1.8,0.2,3.3-1.1,3.5-2.9c0.2-1.8-1.1-3.3-2.9-3.5C102.4,161.5,100.7,162.8,100.6,164.6z M122.9,66.3c-0.7,1.6,0.1,3.5,1.8,4.2
		c1.6,0.7,3.5-0.1,4.2-1.8c0.7-1.6-0.1-3.5-1.8-4.2C125.4,63.9,123.6,64.7,122.9,66.3z M167.5,10.9c-0.7,1.6,0.1,3.5,1.8,4.2
		c1.6,0.7,3.5-0.1,4.2-1.8c0.7-1.6-0.1-3.5-1.8-4.2S168.2,9.2,167.5,10.9z M108.6,66.3c-0.7,1.6,0.1,3.5,1.8,4.2
		c1.6,0.7,3.5-0.1,4.2-1.8c0.7-1.6-0.1-3.5-1.8-4.2C111.1,63.9,109.2,64.7,108.6,66.3z M76.4,36.1c-0.7,1.6,0.1,3.5,1.8,4.2
		c1.6,0.7,3.5-0.1,4.2-1.8c0.7-1.6-0.1-3.5-1.8-4.2S77,34.4,76.4,36.1z"/>
	<path d="M81.9,141.7c0,2.7-1.4,4.3-4,4.3s-4-1.6-4-4.3v-1h2.5v1.2c0,1.2,0.5,1.7,1.4,1.7s1.4-0.4,1.4-1.7c0-1.2-0.5-2.2-2.3-3.7
		c-2.2-2-3-3.4-3-5.3c0-2.7,1.3-4.3,4-4.3s4,1.6,4,4.3v0.5h-2.5v-0.7c0-1.2-0.5-1.7-1.3-1.7c-0.9,0-1.3,0.5-1.3,1.7s0.5,2.2,2.3,3.7
		C81.2,138.4,81.9,139.8,81.9,141.7z M89.4,128.7l2.7,17.1h-2.7l-0.5-3.1h-3.3l-0.5,3.1h-2.5l2.7-17.1H89.4z M88.6,140.4l-1.3-8.6
		l0,0l-1.3,8.6H88.6z M97.1,128.6c-2.6,0-4,1.6-4,4.3v8.9c0,2.7,1.4,4.3,4,4.3s4-1.6,4-4.3v-5.4h-3.7v2.4h1.2v3.2
		c0,1.2-0.5,1.7-1.4,1.7s-1.4-0.4-1.4-1.7v-9.2c0-1.2,0.5-1.7,1.4-1.7s1.4,0.5,1.4,1.7v1.8h2.5v-1.7
		C101.1,130.1,99.7,128.6,97.1,128.6z M102.9,145.8h2.7v-17.1h-2.7V145.8z M106.7,131.2h2.8v14.6h2.7v-14.7h2.8v-2.4h-8.3V131.2z
		 M123.7,128.7h-8.3v2.4h2.8v14.7h2.7v-14.7h2.8V128.7z M129.9,128.7l2.7,17.1h-2.7l-0.5-3.1h-3.3l-0.5,3.1h-2.5l2.7-17.1H129.9z
		 M129.1,140.4l-1.3-8.6l0,0l-1.3,8.6H129.1z M142,143.8c0,0.8,0,1.4,0.3,2.1h-2.7c-0.1-0.4-0.2-0.7-0.2-2.1v-2.7
		c0-1.6-0.5-2.2-1.8-2.2h-0.9v7H134v-17.1h4.1c2.8,0,4,1.3,4,3.9v1.3c0,1.8-0.6,2.9-1.8,3.4l0,0c1.3,0.6,1.8,1.8,1.8,3.6L142,143.8
		L142,143.8z M139.4,133c0-1.2-0.4-1.8-1.4-1.8h-1.3v5.3h1.1c1,0,1.6-0.4,1.6-1.8L139.4,133L139.4,133z M143.7,145.8h2.7v-17.1h-2.7
		V145.8z M153.7,141.9c0,1.2-0.5,1.7-1.4,1.7s-1.4-0.4-1.4-1.7v-13.2h-2.7v13c0,2.7,1.4,4.3,4,4.3s4-1.6,4-4.3v-13h-2.5L153.7,141.9
		L153.7,141.9z M162.7,136.4c-1.8-1.5-2.3-2.5-2.3-3.7s0.5-1.7,1.3-1.7c0.9,0,1.3,0.5,1.3,1.7v0.7h2.5v-0.5c0-2.7-1.3-4.3-4-4.3
		s-4,1.6-4,4.3c0,2,0.7,3.4,3,5.3c1.8,1.5,2.3,2.5,2.3,3.7s-0.5,1.7-1.4,1.7s-1.4-0.4-1.4-1.7v-1.2h-2.5v1c0,2.7,1.4,4.3,4,4.3
		s4-1.6,4-4.3C165.7,139.8,165,138.4,162.7,136.4z"/>
	<path d="M137.9,209.1c-0.2-0.2,0.2-1.6,0.2-1.9c0.1-0.3,1.3-0.3,1.4,0c0,0,0.4,1.1,0,2.1c-0.2,0.1-0.3,0.2-0.5,0.2
		C138.6,209.5,138.1,209.3,137.9,209.1z M91.4,209.5c0.2,0,0.3-0.1,0.5-0.2c0.3-1,0-2.1,0-2.1c-0.1-0.3-1.2-0.4-1.4,0
		c-0.1,0.2-0.5,1.7-0.2,1.9C90.4,209.3,90.9,209.5,91.4,209.5z M63.2,195.9c0.1-0.7-0.6-1.2-1-1.8c-0.8-1-1.8-1.7-3.2-2.2
		c-1.6-0.6-3.2-0.9-5-1c-1.6-0.1-3.2,0.3-4.7,0.8c-1.6,0.5-3,1.6-4,2.7c-0.4,0.5-1.9,3.2-2.3,4c-0.3,0.9-0.3,4.3-0.3,4.9
		c0,0.8,1,3.9,1,3.9s2.2,4.7,2.6,5.4c0.6,0.9,1.1,1.9,1.6,2.8c0.4,0.7,1.9,2.4,2.3,2.3c1.1-0.5,2.3-1.1,3.4-1.4
		c1.1-0.4,2.2-0.7,3.4-0.8c0.9-0.1,1.6-0.4,2.2,0.4c1.2,1.4-0.8,3-1.9,1.8c-0.1-0.2-0.3-0.4-0.4-0.5c-0.3-0.5-1.1-0.7-1.7-0.6
		c-0.5,0.1-3.7,1.7-3.9,1.8c-0.5,0.3-1.1,0.7-0.6,1.1c1,1,3.4,3.9,3.7,4.4c0.9,1.4,2.6,4.9,2.7,6.2c0.2,1.8,0.3,3.7-0.8,5.1
		c-1.7,2.3-3.3,3.7-7.7,3.9c-0.7,0.1-2.1-0.2-2.8-0.4c-1.3-0.4-2.5-1-3.3-2c-0.7-0.8-1.3-1.7-1.5-2.7c-0.5-1.9-0.5-3.9,0-5.8
		c0.3-1.2,0.9-2.4,1.6-3.6c0.7-1.2,1.6-2.2,2.7-3.2c0.6-0.5,1.1-1.1,1.6-1.6c0.1-0.1,0.1-0.2,0-0.4c-0.2-0.3-0.5-0.6-0.7-0.9
		c-0.1,0-5.7-10.4-5.7-10.5c-0.5-1.3-0.8-2.6-0.9-3.9c-0.1-1.1-0.2-2.3-0.2-3.4c0-1.9,1.6-5,2.7-6.5c1.4-1.8,4.4-3.4,6.9-3.9
		c0.5-0.1,1.8-0.4,2.4-0.4c2.2-0.1,3.9-0.2,6,0.3s4.1,2,4.8,2.7c0.9,0.9,1.8,1.8,1.7,3.1C64.2,197.6,63.1,196.7,63.2,195.9z
		 M41.1,208.6L41.1,208.6L41.1,208.6z M47.7,221.4c-0.5,0.6-2.5,3-2.9,3.6c-2.1,2.7-2,7.3-1.9,7.9c0.6,3.2,4.3,4.5,4.8,4.7
		c3.4,0.2,6.2-1.5,6.9-2.3c1.8-2.4,0.9-5.7,0.3-6.6c-0.8-1.2-3-4.4-4-5.3c-0.7-0.7-1.3-1.2-2-1.9C48.5,220.9,48.4,220.7,47.7,221.4z
		 M43.9,207.5C43.9,207.5,43.9,207.4,43.9,207.5C43.9,207.4,43.9,207.4,43.9,207.5z M184.2,217.1c-1.4,0.3-5.7,0.8-7.2,0.8
		c-1.4,0-2.7,0-4.1,0c-0.7,0-3.7,0.1-4.2,0.2c-2,0.4-3.9,0.7-5.5,1.7c-0.4,0.2-1,0.7-1.6,1.3c0,0,0,0.1,0,0.2c0,0.2,0.1,0.5,0.2,0.8
		c0.2,1,0.4,2.1,0.5,3.2c0.1,0.9,0.1,1.8,0.1,2.7c0,0.8-0.2,1.5-0.7,2.1c-1.1,1.8-3.7,2.1-4.4,0c-0.3-0.8-0.3-1.6-0.2-2.5
		c0.2-1.4,0.8-2.7,1.5-3.9c0.1-0.1,0.3-0.5,0.5-0.7c0.2-0.3,0.5-0.6,0.7-0.9c-0.1-0.5-0.2-0.8-0.2-0.8c-0.2-0.7-0.4-1.5-0.7-2.2
		c-0.3-0.8-0.5-1.6-0.8-2.4c-0.3,1-2.9,8.1-3.3,8.6c-1.1,1.7-3,1.8-3.7,0c-0.9-2.3-0.9-9-0.9-8.9c-0.2,1.2-0.5,2.4-0.7,3.7
		c-0.2,1.1-1,3.3-2.2,3.4c-2.5,0.2-3.1-2.1-3.2-4c-0.2,0.5-0.3,0.9-0.4,1.3c-0.2,0.7-0.6,1.4-0.9,2.1c-0.1,0.3-0.3,0.6-0.5,0.9
		c-0.7,0.9-1.4,1.3-2.8,1.1c-1.3-0.3-1.8-1.5-1.9-1.8c-0.5-0.9-0.7-1.8-0.8-2.8c-0.1-0.4-0.1-0.7-0.1-1.1c-0.1,0.2-0.2,0.5-0.3,0.7
		c-0.4,0.9-2.4,6.9-3,7.9c-0.2,0.4-0.9,1.3-1.1,1.4c-0.9,0.6-1.7,0.7-2.5,0.2c-0.7-0.3-1.1-2.2-1.1-3c0-1.2,0.1-2.5,0.2-3.7
		c0-0.8,0.1-1.5,0.2-2.3c0.1-1,0.1-1.1,0.2-1.7c0.1-1.2-0.6-1.4-1.4-1.8c-0.2-0.1-0.4-0.3-0.5-0.5c-0.1,0.3-0.2,0.5-0.3,0.8
		c-0.2,0.7-1.3,6-3.8,9.7c-0.5,1-1.5,1.6-2.7,0.9c-2.8-1.7-0.9-11.3-0.7-13.9c0-0.1-0.5,0.9-0.7,1.4c-0.2,0.7-0.5,1.4-0.7,2.1
		c-0.2,0.5-0.3,0.9-0.5,1.4s-0.4,1.1-0.6,1.6c-0.2,0.5-0.6,0.9-0.9,1.5c-0.6,1.1-2.1,1.7-3.2,0.7c-0.3-0.2-0.5-0.5-0.7-0.8
		c-0.1,0.3-0.2,0.7-0.3,1c-0.6,1.7-0.8,2.9-1.7,4.5c-0.7,1.2-1.5,2.2-3,2.1c-1.3-0.1-2.2-1.4-2.4-2.6c-0.4-1.7-0.5-2.9-0.6-4.6
		c0-0.3,0-0.6-0.1-0.9c-0.1,0.5-0.2,1-0.4,1.5c-0.6,1.7-0.8,2.9-1.7,4.5c-0.7,1.2-1.5,2.2-3,2.1c-1.3-0.1-2.2-1.4-2.4-2.6
		c-0.4-1.7-0.5-2.9-0.6-4.6c-0.1-0.8-0.1-1.6-0.1-2.4c-0.1,0.3-0.2,0.6-0.2,0.8c-0.2,0.7-0.6,1.4-0.9,2.1c-0.1,0.3-0.3,0.6-0.5,0.9
		c-0.7,0.9-1.4,1.3-2.8,1.1c-0.2-0.1-1.2-0.1-1.9-1.8c-0.5-0.9-0.7-1.8-0.8-2.8c-0.1-0.7-0.2-1.4-0.2-2.2s0-1.5,0.1-2.3
		c-0.3,0.1-0.5,0.3-0.7,0.5c-0.6,0.4-1.2,0.9-1.8,1.3c-0.2,0.1-0.3,0.3-0.5,0.4c-0.2,0.2-0.3,0.5-0.3,0.8c0,1.3,0,2.6,0,3.9
		c0,0.7-0.4,4.8-0.5,5.5c0,0.4-0.1,3-0.8,4.3c-0.5,1.8-3,2.2-3.5,0.7c-0.2-0.7-0.4-1.4-0.4-2.2c0-0.6-0.1-1.2-0.1-1.8
		c0-1.1,0.3-2.2,0.6-3.3c0.2-0.7,0.3-1.3,0.6-2c0.5-1.3,1-2.5,1.8-3.7c0.2-0.3,0.2-0.6,0.2-0.9c0-1,0-2.1,0-3
		c-0.1-1.2-0.2-2.4-0.4-3.7v-0.1c0,0-1.1,2.8-1.3,3.4c-0.3,0.7-0.6,1.4-0.9,2.2c-0.2,0.4-0.9,2.2-1.4,2.7c-0.2,0.2-0.4,0.5-0.7,0.6
		c-0.7,0.5-1.7,0.3-2.4-0.2c-0.4-0.3-0.4-0.5-0.5-0.9c0,0.1-1.2,4.3-2.9,6.6c-0.5,1-1.5,1.6-2.7,0.9c-2.8-1.7-0.8-14.2-0.8-14.1
		c-0.2,0.5-0.3,1.1-0.5,1.6c-0.2,0.7-0.5,1.4-0.7,2.1c-0.2,0.5-0.3,0.9-0.5,1.4s-0.4,1.1-0.6,1.6c-0.2,0.5-0.6,0.9-0.9,1.5
		c-0.6,1.1-2.1,1.7-3.2,0.7c-0.5-0.4-0.9-0.9-1-1.6c-0.2-1.5-0.1-3,0.4-4.4c0.4-1.4,1-2.6,1.8-3.8c0.4-0.5,1.1-0.9,1.8-1.1
		c0.7-0.2,1.6,0.1,1.9,0.7c0.2,0.3,0.2,0.7,0.3,1c0,0.2,0.8-1.1,0.9-1.5c0-0.1,0.2-0.2,0.2-0.2c0.5-0.1,1,0,1.5,0.2s0.7,0.5,0.6,1
		c-0.1,0.8-0.1,1.6-0.2,2.3c-0.1,0.5-0.3,2.8-0.4,3.4c-0.1,1.3-0.3,2.5-0.4,3.8c-0.1,0.7-0.1,1.4-0.1,2.1c0,0.3-0.1,1.1,0.1,1.7
		c0.3,1,1.2,0.8,1.6,0.2c0.3-0.6,0.7-1.1,0.9-1.8c0.5-0.9,0.9-1.9,1.2-2.8c0.3-0.9,0.9-2.7,1.2-3.9c0-0.1,0-0.1,0-0.2
		c0.1-1.5,0.6-2.9,1.4-4.3c0.3-0.5,0.7-1.1,1.3-1.5c0.5-0.3,0.9-0.3,1.4-0.2c0.2,0,0.9,1.5,0.9,2.1c0,0.4,2.1-3.5,2.3-5
		c0-0.2,0.7-0.3,1.3-0.1c0.2,0.1,0.4,0.6,0.4,0.8c0.1,0.6,0.3,2.8,0.4,3.3c0,0.4,0.1,1.2,0.1,1.6c0.1,0.7,0.1,1.6,0.1,2.4
		c0,0.1,0.2,0,0.3,0c0.4-0.3,0.8-0.6,1.3-0.9c0.3-0.2,0.6-0.4,0.9-0.5c0.3-0.2,0.6-0.3,0.9-0.5c0.1-0.8,0.2-1.6,0.4-2.5
		c0.1-0.7,0.3-0.7,1.1-0.7c0.4,0,0.8,0.2,1.1,0.4c0.2,0.1,0.2,0.3,0.2,0.5c-0.2,1.1-0.4,2.2-0.5,3.3s-0.1,2.2,0,3.3
		c0,0.9,0.1,3.7,0.7,4.1c0.7,0.4,2-0.5,2.2-0.9c0.5-1.2,1.4-3.2,1.9-4.9c0-1,0.3-6.5,0.3-6.8c0,0,0.5-5.5,0.5-5.9
		c0-0.5,0.1-0.5-0.5-0.5c-1.1,0-1.4,0.2-2.2,0.7c-0.1,0.1-0.2,0.2-0.3,0.2s-0.2,0-0.3,0s-0.1-0.2-0.1-0.2c0-0.1,0-0.2,0.1-0.2
		c0.4-0.3,0.7-0.6,1.2-0.8c0.7-0.2,0.9-0.2,1.7-0.2c0.6,0,0.6-0.5,0.6-1.1c0-0.8,0.1-1.3,0.1-2.1c0-0.2,0.1-0.3,0.4-0.4
		c0.6,0,1.4,0.2,1.8,0.6c0.1,0.1,0.1,0.2,0.1,0.3c0,0.8,0,1.3-0.1,2.1c0,0.2,0,0.9,0.3,1c0.9,0.2,1.7,0.3,2.5,0.3
		c0.2-0.2,0.5-0.4,0.8-0.5c0.7-0.2,0.9-0.2,1.7-0.2c0.6,0,0.6-0.5,0.6-1.1c0-0.8,0.1-1.3,0.1-2.1c0-0.2,0.1-0.3,0.4-0.4
		c0.6,0,1.4,0.2,1.8,0.6c0.1,0.1,0.1,0.2,0.1,0.3c0,0.8,0,1.3-0.1,2.1c0,0.2,0,0.9,0.3,1c1.1,0.2,2,0.4,3,0.2c0.5-0.1,0.7,0,0.9,0.3
		c0.1,0.2,0.1,0.2-0.1,0.3c-0.9,0.2-1.8,0.2-2.7,0c-0.5-0.1-0.8-0.2-1.4-0.3c-0.2,0-0.3,0-0.3,0.2c0,0.8-0.2,0.8-0.2,1.6
		c0,0.5-0.1,1-0.1,1.5c-0.1,1.1-0.2,5.6-0.3,6.7c0,1-0.3,8.6,0.3,12.2c0.1,0.4,0.1,0.5,0.3,0.9c0.2,0.5,1.1,0.5,1.5-0.1
		c0.5-0.8,3-7,3.2-7.7c-0.1-1.2,0.1-2.3,0.5-3.4c0.4-1.4,1-2.6,1.8-3.8c0.4-0.5,1.1-0.9,1.8-1.1c0.7-0.2,1.6,0.1,1.9,0.7
		c0.2,0.3,0.2,0.7,0.3,1c0,0.2,0.5,0,0.5-0.2c0.1-0.4,0.2-0.8,0.4-1.2c0-0.1,0.2-0.2,0.2-0.2c0.5-0.1,1,0,1.5,0.2s0.7,0.5,0.6,1
		c-0.1,0.8-0.1,1.6-0.2,2.3c-0.1,0.5-0.1,1.1-0.1,1.6c-0.1,0.6-0.2,1.2-0.2,1.8c-0.1,1.3-0.3,2.5-0.4,3.8c-0.1,0.7-0.1,1.4-0.1,2.1
		c0,0.3-0.1,1.1,0.1,1.7c0.3,1,1.2,0.8,1.6,0.2c0.3-0.6,0.7-1.1,0.9-1.8c0.5-0.9,0.9-1.9,1.2-2.8c0.4-1.1,1.1-3.4,1.4-4.6
		c0.1-0.6,0.4-1.3,0.6-2c-0.9-1.5-1-3.7-0.6-5.1c0.3-1.1,1-2,2.2-2.4c0.6-0.2,1.1-0.1,1.6,0.2c0.4,0.2,0.4,0.7,0.4,1.1
		c-0.1,1.3-1.2,3.8-2,5.1c-0.2,0.2-0.2,0.3-0.1,0.6c0.4,1.1,3.3,1.1,3.4,3.2c0,0.8-0.1,1.7-0.2,3c-0.1,0.9-0.3,1.7-0.3,2.5
		c0,0.7-0.3,3.7-0.1,4.5c0.1,0.2,1.3-0.1,1.5-0.5c0.5-0.8,0.9-1.7,1.1-2.6c0.3-1,2.7-6.6,3.1-7.8c0.1-1.6,0.3-3.2,0.6-4.8
		c0.1-0.7,0.3-0.7,1.1-0.7c0.4,0,0.8,0.2,1.1,0.4c0.2,0.1,0.2,0.3,0.2,0.5c-0.2,1.1-0.4,2.2-0.5,3.3s-0.1,2.2,0,3.3
		c0,0.9,0.2,1.7,0.3,2.5c0.1,0.7,0.6,1.8,0.7,1.8c0.7,0.7,1.7-0.9,1.9-1.2c0.6-1.3,1.5-3.5,2-5.2c-0.1-2.2,0.1-1.6,0.2-4.4
		c0-0.5,0.3-0.7,0.7-0.7c0.5,0,1.7,0.7,1.6,1.1c-0.2,1.1-0.4,1.8-0.3,3c0,1,0.1,3.4,0.2,4.9c0,0.6,0.5,2,1.1,0.8
		c0.7-1.3,0.8-1.7,1.3-3.2c0.3-1.1,0.5-2.3,0.8-3.4c0.4-1.8,0.3-1.3,0.5-3.2c0.1-0.5,0.2-1,0.2-1.5c0-0.4,0.1-0.4,0.4-0.4
		c0.2,0,0.3,0.1,0.5,0.1s1.7,1,1.7,1.2c-0.2,1.4-0.1,0.5-0.2,1.9c-0.1,1.1-0.1,2.3-0.2,3.4c0,0.7-0.1,1.5-0.1,2.3
		c0,1.5-0.1,4.3,0.3,5.7c0.3,1,1.1,0.1,1.5-0.7s2.9-7.5,3.3-9c-0.2-0.5-0.3-0.9-0.5-1.4c-0.3-0.8-0.6-1.6-0.7-2.5
		c-0.1-1.2,0-2.4,0.7-3.4c0.5-0.8,1.3-1.2,2.2-1.2c0.9,0.1,1.6,0.5,2,1.4c0.7,1.4,0.7,2.9,0.3,4.4c0,0.1-0.1,0.3-0.2,0.3
		c-0.1,0.1-0.4,0.1-0.5,0.1c-0.2-0.1-0.1-0.3-0.1-0.5c0.3-1.2,0-3.4-0.5-4.4c-0.4-0.9-1.2-0.9-1.6-0.1c-0.4,0.8-0.7,1.6-0.6,2.5
		c0,1.1,0.3,2.1,0.7,3c0.3,0.7,0.7,1.5,0.9,2.3c0.4,1.1,0.8,2.2,1.1,3.3c0,0.1,0.1,0.2,0.1,0.2c0.2,0.4,0.2,0.7,0.3,0.9
		c0.9-0.8,2.1-1.5,3.3-2.1c0.6-0.3,1.3-0.5,2-0.7c0.5-0.1,1.1-0.2,1.6-0.3c1-0.2,4.7-0.3,5-0.3c2,0,4,0,6,0c1.1,0,2.2-0.1,3.3-0.2
		c1.3-0.2,2.5-0.5,3.4-0.9c2-0.9,2.3-1.8,2.1-3.2c-0.3-1.8,1.6-2,2.1-0.9C191,214.2,187.4,216.2,184.2,217.1z M68.5,215.3l-0.1-0.2
		c-0.3,0-0.3-0.1-0.3-0.3c0-0.6-0.1-1.1-0.2-1.7c-0.1-0.3-0.2-0.6-0.4-0.9c-0.2-0.2-0.3-0.2-0.5,0c-0.3,0.5-1.6,2.4-1.8,2.9
		c-0.3,0.7-0.5,1.4-0.7,2.1c-0.2,0.8-0.3,1.6-0.4,2.4c-0.1,1.9,0.8,2.3,1,2.2c0.3-0.3,2.7-4.8,2.9-5.5
		C68.2,216,68.4,215.7,68.5,215.3z M80.7,216.1c-0.1-0.5-0.2-1-0.2-1.6c0-0.7-0.2-1.4-0.5-2c0-0.1-0.1-0.2-0.2-0.3
		c0,0-0.1-0.1-0.1,0c-0.2,0.3-0.3,0.6-0.5,0.8c-0.5,0.9-1.5,4-1.4,5c0,0.6,0,1.3,0.1,1.9c0,0.2,0.1,0.4,0.1,0.6
		c0.4,0,0.5-0.3,0.6-0.5v-0.1c0.8-1.1,1.4-2.2,1.9-3.4C80.7,216.5,80.7,216.3,80.7,216.1z M84.4,220.4
		C84.4,220.4,84.3,220.4,84.4,220.4c-0.3,0.3-0.8,1-0.8,1c0,0.1-0.9,1.9-1.1,2.8c-0.2,0.6-0.3,1.3-0.6,1.9c-0.4,1.2-0.7,4.9-0.2,6.5
		c1,0.2,2.1-1.2,2.2-3.7C83.9,228.9,84.4,220.6,84.4,220.4C84.4,220.5,84.4,220.4,84.4,220.4z M104.9,204.2c-0.5,0-0.8,0.1-1.1,0.2
		c0.1,0.1,0.1,0.1,0.1,0.2c0.1,0.2,0.1,0.2-0.1,0.3c-0.4,0.1-0.8,0.1-1.2,0.1c-0.1,0.1-0.2,0.1-0.3,0.2c-0.1,0-0.2,0-0.3,0l-0.1-0.1
		c-0.3,0-0.5-0.1-0.8-0.1c-0.5-0.1-0.8-0.2-1.4-0.3c-0.2,0-0.3,0-0.3,0.2c0,0.8-0.2,0.8-0.2,1.6c0,0.5-0.1,1-0.1,1.5
		c-0.1,1.1-0.2,5.6-0.3,6.7c0,1-0.1,2.1-0.2,3.1c0,0.1-0.2,5.5,0.5,9.1c0.1,0.4,0.1,0.5,0.3,0.9c0.2,0.5,1.1,0.5,1.5-0.1
		c0.5-0.8,2.5-5.3,2.5-5.5c0.3-1.2,0.7-2.4,1-3.5c0-1.3,0-2.8,0-4.1c0-0.9,0.8-9.4,0.8-9.8C105.4,204.3,105.4,204.2,104.9,204.2z
		 M118.5,215.3l-0.1-0.2c-0.3,0-0.3-0.1-0.3-0.3c0-0.6-0.1-1.1-0.2-1.7c-0.1-0.3-0.2-0.6-0.4-0.9c-0.2-0.2-0.3-0.2-0.5,0
		c-0.3,0.5-0.7,0.9-0.9,1.3c-0.3,0.5-0.7,1.1-0.9,1.6c-0.3,0.7-0.5,1.4-0.7,2.1c-0.2,0.8-0.5,1.6-0.4,2.4c0,0.2,0,0.5,0,0.6
		c-0.1,0.3,0.1,1.4,0.2,1.6c0,0.1,0.1,0.2,0.2,0.2c0.2,0.2,0.3,0.2,0.5,0c0.3-0.3,0.6-0.6,0.9-0.9c0.6-0.9,1.1-1.9,1.4-3
		c0.2-0.7,0.5-1.3,0.7-1.9C118.2,216,118.4,215.7,118.5,215.3z M127.9,213.4c0.7-1.5,1.4-2.9,1.4-4.6c0-0.2-0.1-0.5-0.4-0.5
		c-0.5-0.2-1.4,1.5-1.4,2.1c-0.2,1.4,0,2.8,0.2,3.2C127.9,213.4,127.9,213.4,127.9,213.4z M159.4,230.4c0.7-0.7,1-1.4,1-2.4
		c0-0.6,0-1.1,0-1.7c-0.1-0.9-0.2-1.8-0.3-2.6c0,0-0.1-0.4-0.2-0.8c-0.4,0.4-0.5,0.9-0.8,1.4c-0.3,0.7-0.5,1.3-0.7,2
		c-0.1,0.7-0.4,2.1-0.2,2.9C158.4,229.5,158.9,230.9,159.4,230.4z M160.5,229.7C160.4,229.7,160.4,229.7,160.5,229.7L160.5,229.7
		C160.4,229.8,160.4,229.8,160.5,229.7L160.5,229.7z"/>
</g>
</svg>
