<?xml version="1.0" encoding="utf-8"?>
<!-- Generator: Adobe Illustrator 22.1.0, SVG Export Plug-In . SVG Version: 6.00 Build 0)  -->
<svg version="1.1" id="Layer_1" xmlns="http://www.w3.org/2000/svg" xmlns:xlink="http://www.w3.org/1999/xlink" x="0px" y="0px"
	 viewBox="0 0 191.9 193.4" style="enable-background:new 0 0 191.9 193.4;" xml:space="preserve">
<g id="taurus">
	<path d="M180.7,166.4l-5.1-10l-41.1-20.5L114,114l0,0l-13.6-5.2l-0.1-0.1L89,99.8L21.8,56.2l0.6-1l67.3,44l11.1,8.5l12.8,4.9
		L108.4,96l-8.5-16.5l0,0L51.8,26.4l0.9-0.8l47.8,52.5l9,17.3l5.6,18l20.1,21.6l41,20.4l5.5,10.4L180.7,166.4z"/>
	<path d="M181.9,162.7c1.6,0.7,2.4,2.5,1.8,4.2s-2.5,2.4-4.2,1.8c-1.6-0.7-2.4-2.5-1.8-4.2C178.4,162.9,180.2,162.1,181.9,162.7z
		 M131.6,133.9c-0.7,1.6,0.1,3.5,1.8,4.2c1.6,0.7,3.5-0.1,4.2-1.8c0.7-1.6-0.1-3.5-1.8-4.2S132.2,132.2,131.6,133.9z M106,94.6
		c-0.7,1.6,0.1,3.5,1.8,4.2c1.6,0.7,3.5-0.1,4.2-1.8s-0.1-3.5-1.8-4.2C108.5,92.2,106.6,93,106,94.6z M97,77.5
		c-0.7,1.6,0.1,3.5,1.8,4.2c1.6,0.7,3.5-0.1,4.2-1.8c0.7-1.6-0.1-3.5-1.8-4.2C99.6,75.1,97.7,75.9,97,77.5z M49,24.4
		c-0.7,1.6,0.1,3.5,1.8,4.2s3.5-0.1,4.2-1.8s-0.1-3.5-1.8-4.2S49.6,22.8,49,24.4z M98.2,107.1c-0.7,1.6,0.1,3.5,1.8,4.2
		c1.6,0.7,3.5-0.1,4.2-1.8c0.7-1.6-0.1-3.5-1.8-4.2C100.7,104.7,98.8,105.4,98.2,107.1z M173,154.8c-0.7,1.6,0.1,3.5,1.8,4.2
		c1.6,0.7,3.5-0.1,4.2-1.8c0.7-1.6-0.1-3.5-1.8-4.2C175.6,152.4,173.7,153.2,173,154.8z M111.4,112.4c-0.7,1.6,0.1,3.5,1.8,4.2
		c1.6,0.7,3.5-0.1,4.2-1.8c0.7-1.6-0.1-3.5-1.8-4.2C113.9,110,112.1,110.8,111.4,112.4z M86.2,98.4c-0.7,1.6,0.1,3.5,1.8,4.2
		c1.6,0.7,3.5-0.1,4.2-1.8c0.7-1.6-0.1-3.5-1.8-4.2C88.7,95.9,86.8,96.7,86.2,98.4z M19.1,54.6c-0.7,1.6,0.1,3.5,1.8,4.2
		c1.6,0.7,3.5-0.1,4.2-1.8c0.7-1.6-0.1-3.5-1.8-4.2S19.8,52.9,19.1,54.6z"/>
	<path d="M26.2,107.3h-2.8V122h-2.7v-14.7h-2.8v-2.5h8.3V107.3z M32.5,104.8l2.7,17.1h-2.7l-0.5-3.1h-3.3l-0.5,3.1h-2.5l2.7-17.1
		H32.5z M31.6,116.5l-1.3-8.6l0,0l-1.3,8.6H31.6z M41.8,118c0,1.2-0.5,1.7-1.4,1.7S39,119.3,39,118v-13.2h-2.7v13
		c0,2.7,1.4,4.3,4,4.3s4-1.6,4-4.3v-13h-2.5V118z M54.2,119.9c0,0.8,0,1.4,0.3,2.1h-2.7c-0.1-0.4-0.2-0.7-0.2-2.1v-2.7
		c0-1.6-0.5-2.2-1.8-2.2h-0.9v7h-2.7v-17.2h4.1c2.8,0,4,1.3,4,3.9v1.3c0,1.8-0.6,2.9-1.8,3.4l0,0c1.3,0.6,1.8,1.8,1.8,3.6v2.9H54.2z
		 M51.5,109c0-1.2-0.4-1.8-1.4-1.8h-1.3v5.3h1.1c1,0,1.6-0.4,1.6-1.8C51.5,110.7,51.5,109,51.5,109z M61.3,118
		c0,1.2-0.5,1.7-1.4,1.7s-1.4-0.4-1.4-1.7v-13.2h-2.7v13c0,2.7,1.4,4.3,4,4.3s4-1.6,4-4.3v-13h-2.5V118z M70.3,112.5
		c-1.8-1.5-2.3-2.5-2.3-3.7s0.5-1.7,1.3-1.7s1.3,0.5,1.3,1.7v0.7h2.5V109c0-2.7-1.3-4.3-4-4.3c-2.6,0-4,1.6-4,4.3c0,2,0.7,3.4,3,5.3
		c1.8,1.5,2.3,2.5,2.3,3.7s-0.5,1.7-1.4,1.7s-1.4-0.4-1.4-1.7v-1.2h-2.5v1c0,2.7,1.4,4.3,4,4.3s4-1.6,4-4.3
		C73.3,115.9,72.6,114.5,70.3,112.5z"/>
	<path d="M41.8,135.7c-0.6,0.1-4.8,0.5-4.8,0.6c-0.5,0.2-0.8,0.4-0.9,0.9c-0.2,1.9-0.5,3.9-0.7,5.9c-0.2,1.6-0.3,9.9-0.3,11
		c0.1,1.4,0,2.7,0.1,4c0,1.1-0.2,8.7-0.2,10.2c0,0.8-0.1,4.9-0.1,5.8c-0.1,1.1-0.1,4.3-0.1,4.6c-0.1,0.9-0.3,10.2-1.6,10.6
		c-0.7,0.3-1.5,0.4-2.2,0.5c-0.8,0.1-0.1-2.5,0.1-3.3c0.1-0.8,0.2-1.6,0.3-2.4c0.2-1.4,0.3-2.9,0.4-4.2c0.1-1.4,0.2-3,0.2-4.5
		c0.1-1.9,0-3.8,0-5.6c0-0.2,0.1-19.1,0.1-19.2s0-0.2,0-0.2c0.1-1.9,0.5-8.6,0.6-9.8c0.2-1.1,0.3-2.2,0.5-3.4c0.1-0.3,0-0.4-0.4-0.4
		c-0.1,0-4.9,0.7-7.3,1c-0.7,0.1-9.9,1.9-10.2,1.9c-0.5,0-0.9-0.2-1-0.6c-0.3-0.6-0.3-2-0.1-2.1c0.5-0.1,19-3,21.1-3.2
		s3.8-0.5,5.6-0.6c0.9-0.1,13.6-1.3,14-1.3c0.2-0.1,0.4,0.3,0.5,0.5c0.2,0.3-0.2,0.9-0.4,1C54.1,133.9,43.6,135.6,41.8,135.7z
		 M137.6,163.2c-1.7,0.4-7.1,1-8.9,1c-1.7,0-3.4,0-5.1,0c-0.9,0-4.6,0.1-5.2,0.2c-2.5,0.5-4.8,0.8-6.8,2.1c-0.5,0.3-1.2,0.9-2,1.6
		c0,0.1,0.2,0.9,0.3,1.2c0.3,1.3,0.5,2.6,0.6,3.9c0.2,1.1,0.1,2.2,0.1,3.3c0,1-0.3,1.8-0.8,2.6c-1.4,2.2-4.6,2.6-5.5-0.1
		c-0.4-1-0.4-2-0.2-3.1c0.3-1.7,1-3.4,1.8-4.9c0.1-0.2,0.4-0.6,0.6-0.9c0.2-0.4,0.6-0.8,0.9-1.2c-0.1-0.6-0.2-1-0.2-1
		c-0.3-0.9-0.5-1.8-0.8-2.8s-0.7-2-1-2.9c-0.3,1.3-0.7,2.6-0.9,3.6c-0.2,0.7-0.6,1.5-0.8,2.2c-0.2,0.5-1.9,4.3-2.4,4.9
		c-1.3,2.1-3.7,2.2-4.6-0.1c-1.2-2.9-0.9-9.7-0.9-11c0-0.2-0.8,3-1.1,4.5c-0.3,1.3-1.3,4.1-2.7,4.3c-3.3,0.3-3.9-3-4.1-5.5
		c-0.1,0.3-0.3,0.6-0.4,0.8c-0.5,1.2-0.9,2.3-1.3,3.5c-0.3,0.8-1.7,5.1-2.4,6.3c-0.3,0.5-1.2,1.6-1.3,1.7c-1.1,0.7-2.1,0.9-3.2,0.3
		c-0.3-0.2-0.6-0.5-0.7-0.9c-0.5-0.8-0.7-1.8-0.6-2.9c0-1.5,0.1-3.1,0.2-4.6c0.1-1,0.2-1.9,0.3-2.9c0.2-1.2,0.2-1.4,0.2-2.1
		c0.1-1.5-0.8-1.7-1.7-2.3c-0.3-0.2-0.6-0.4-0.8-0.7c-0.3,1.5-1.7,5.7-1.9,6.4c-0.2,0.5-1.9,4.3-2.4,4.9c-1.3,2.1-3.7,2.2-4.6-0.1
		c-1.2-2.9-0.9-11.6-1-11.6c0,0.2-0.1,0.4-0.1,0.5c-0.3,1.5-0.6,3-0.9,4.5c-0.3,1.3-1.3,4.1-2.7,4.3c-3.1,0.3-3.8-2.6-4-5
		c-0.2,0.5-0.3,0.9-0.4,1.1c-0.4,1-0.6,2-1,3.1s-2.2,7.6-5.6,6.2c-3.7-1.6-1.2-14.1-0.9-17.3c0-0.1-0.6,1.1-0.8,1.8
		c-0.3,0.9-0.6,1.7-0.9,2.6c-0.2,0.6-0.4,1.2-0.6,1.8c-0.3,0.7-0.5,1.4-0.8,2c-0.3,0.7-0.7,1.2-1.1,1.9c-0.8,1.4-2.5,2.1-4,0.9
		c-0.7-0.5-1.1-1.2-1.2-1.9c-0.3-1.9-0.2-3.7,0.5-5.5c0.5-1.7,1.2-3.3,2.3-4.7c0.5-0.7,1.4-1.1,2.3-1.4c0.8-0.3,1.9,0.2,2.4,0.9
		c0.3,0.4,0.7,1.9,0.7,2c0-0.1,0.3-0.7,0.4-1c0.2-0.5,0.3-1,0.5-1.5c0.1-0.1,0.2-0.2,0.3-0.2c0.7-0.1,1.3,0,1.9,0.3
		c0.7,0.3,0.9,0.7,0.8,1.3c-0.2,1-0.7,6.4-0.8,7.1c-0.2,1.6-0.4,3.1-0.5,4.7c-0.1,0.9-0.3,4-0.1,4.7c0.4,1.3,1.5,1,2,0.2
		c0.4-0.7,0.8-1.4,1.2-2.2c0.6-1.2,1.1-2.3,1.5-3.5c0.5-1.4,1.4-4.3,1.7-5.7c0,0,0.2-2.2,0.3-5.6c0-0.6,0.4-0.8,0.9-0.8
		c0.6,0,2.1,0.8,2,1.3c-0.2,1.4-0.4,2.9-0.4,4.1c0.1,1.9,0.1,3.8,0.3,5.7c0.1,0.8,0.6,2.5,1.4,1c0.9-1.6,1-2.1,1.6-4
		c0.4-1.4,0.7-2.8,1-4.2c0.5-2.3,0.4-1.6,0.7-4c0.1-0.6,0.2-1.3,0.3-1.9c0.1-0.5,0.1-0.5,0.5-0.5c0.2,0,2,0.7,2.4,1
		c0.3,0.1,0.3,0.4,0.3,0.6c-0.2,1.8-0.1,0.6-0.3,2.4c-0.1,1.4-0.2,2.9-0.2,4.3c-0.1,0.9-0.1,1.9-0.1,2.8c0,1.9-0.2,5.3,0.4,7.1
		c0.4,1.3,1.4,0.1,1.9-0.9s2.2-4.4,2.6-6.1c0.5-1.8,0.9-3.2,1.4-5.1c-1.1-1.9-1.2-4.5-0.7-6.2c0.4-1.4,1.3-2.4,2.7-3
		c0.7-0.3,1.4-0.1,1.9,0.3c0.5,0.3,0.5,0.8,0.5,1.3c-0.1,1.6-1.5,4.7-2.4,6.3c-0.2,0.3-0.2,0.4-0.1,0.7c0.5,1.4,4.1,1.3,4.3,4
		c0.1,1-0.1,2.1-0.3,3.8c-0.1,1.1-0.4,2.1-0.4,3.2c-0.1,0.9-0.4,4.6-0.1,5.6c0.1,0.3,1.6-0.2,1.8-0.7c0.6-1,3.3-7.7,3.5-8.3
		c0.6-1.5,1.2-3.1,1.8-4.7c-0.1-2.7,0.2-2,0.3-5.3c0-0.6,0.4-0.8,0.9-0.8c0.6,0,2.1,0.8,2,1.3c-0.2,1.4-0.4,2.9-0.4,4.1
		c0.1,1.9,0.1,3.8,0.3,5.7c0.1,0.8,0.6,2.5,1.4,1c0.9-1.6,1-2.1,1.6-4c0.4-1.4,0.7-2.8,1-4.2c0.5-2.3,0.4-1.6,0.7-4
		c0.1-0.6,0.2-1.3,0.3-1.9c0.1-0.5,0.1-0.5,0.5-0.5c0.2,0,2,0.7,2.4,1c0.3,0.1,0.3,0.4,0.3,0.6c-0.2,1.8-0.1,0.6-0.3,2.4
		c-0.1,1.4-0.2,2.9-0.2,4.3c-0.1,0.9-0.1,1.9-0.1,2.8c0,1.9-0.2,5.3,0.4,7.1c0.4,1.3,1.4,0.1,1.9-0.9s0.6-1,1-2
		c0.6-1.6,1.2-2.4,1.6-4.1c0.5-1.8,0.9-3.2,1.4-5.1c-0.2-0.6-0.4-1.1-0.6-1.7c-0.4-1-0.8-2-0.9-3.1c-0.2-1.5,0.1-3,0.8-4.3
		c0.6-1,1.6-1.5,2.8-1.5c1.1,0.1,2,0.7,2.4,1.7c0.8,1.8,0.8,3.6,0.4,5.5c0,0.2-0.1,0.4-0.3,0.4c-0.2,0.1-0.5,0.2-0.6,0.1
		c-0.3-0.1-0.2-0.4-0.1-0.6c0.4-1.5,0-4.2-0.7-5.5c-0.5-1.1-1.5-1.1-2-0.1s-0.8,2-0.7,3.1c0.1,1.3,0.4,2.5,0.9,3.7
		c0.4,0.9,0.8,1.9,1.2,2.9c0.5,1.3,1,2.7,1.4,4.1c0.1,0.1,0.4,1.1,0.5,1.4c1.2-1,2.5-1.8,4.1-2.5c0.8-0.4,1.6-0.6,2.5-0.8
		c0.7-0.2,1.4-0.3,2-0.4c1.2-0.2,5.8-0.4,6.2-0.4c2.5,0,4.9,0.1,7.4,0c1.3,0,2.7-0.1,4.1-0.3c1.6-0.3,3.1-0.6,4.2-1.1
		c2.5-1.2,2.8-2.3,2.6-3.9c-0.4-2.3,2-2.5,2.6-1.1C146.1,159.6,141.6,162.1,137.6,163.2z M49,160.9c0-0.1-0.1-0.2-0.1-0.2
		c-0.4,0-0.4-0.2-0.4-0.4c0.1-0.7-0.1-1.4-0.2-2.1c-0.1-0.4-0.3-0.7-0.5-1.1c-0.2-0.3-0.4-0.3-0.6,0c-0.4,0.6-0.8,1.1-1.2,1.6
		c-0.4,0.7-0.8,1.3-1.1,2c-0.4,0.9-0.6,1.7-0.8,2.6c-0.3,1-0.6,1.9-0.5,3c0.1,0.3,0.1,0.6,0.1,0.8c-0.1,0.4,0.1,1.7,0.3,2
		c0.1,0.1,0.2,0.2,0.3,0.3c0.3,0.3,0.4,0.3,0.6,0.1c0.4-0.4,0.8-0.8,1.1-1.2c0.8-1.1,1.3-2.4,1.7-3.7c0.3-0.8,0.6-1.6,0.8-2.4
		C48.6,161.8,48.8,161.4,49,160.9z M78.8,152.8c0-0.3-0.2-0.6-0.5-0.7c-0.6-0.3-1.7,1.9-1.8,2.5c-0.3,1.7-0.1,3.4,0.3,3.9
		C76.9,158.6,78.8,155,78.8,152.8z M108.2,176.7c-0.1-0.7,0-1.4-0.1-2.1c-0.1-1.1-0.3-2.2-0.4-3.3c0-0.1-0.1-0.5-0.2-1
		c-0.5,0.5-0.6,1.2-1,1.8c-0.4,0.8-0.7,1.6-0.8,2.4c-0.2,0.9-0.5,2.6-0.2,3.6c0.1,0.4,0.7,2,1.3,1.5
		C107.7,178.9,108.2,177.9,108.2,176.7z"/>
</g>
</svg>
