<?xml version="1.0" encoding="utf-8"?>
<!-- Generator: Adobe Illustrator 22.1.0, SVG Export Plug-In . SVG Version: 6.00 Build 0)  -->
<svg version="1.1" id="Layer_1" xmlns="http://www.w3.org/2000/svg" xmlns:xlink="http://www.w3.org/1999/xlink" x="0px" y="0px"
	 viewBox="0 0 161.2 254" style="enable-background:new 0 0 161.2 254;" xml:space="preserve">
<g id="cancer">
	<path d="M134.7,204.4l-1.1,0.3l-8.8-38.8L104.6,106l-46.7,45.8l-0.8-0.8l47.3-46.3l12.3-27.6l16.4-65.9l1.1,0.3l-16.4,66
		l-12.3,27.8l20.4,60.4v0.1L134.7,204.4z"/>
	<path d="M135.3,201.2c1.6,0.7,2.4,2.5,1.8,4.2s-2.5,2.4-4.2,1.8c-1.6-0.7-2.4-2.5-1.8-4.2S133.6,200.5,135.3,201.2z M55.5,149.4
		c-1.1,1.4-0.9,3.4,0.5,4.5s3.4,0.9,4.5-0.5s0.9-3.4-0.5-4.5C58.6,147.9,56.6,148.1,55.5,149.4z M115.1,76.1
		c-1.1,1.4-0.9,3.4,0.5,4.5s3.4,0.9,4.5-0.5s0.9-3.4-0.5-4.5C118.2,74.6,116.2,74.8,115.1,76.1z M123.6,164.6
		c-1.1,1.4-0.9,3.4,0.5,4.5s3.4,0.9,4.5-0.5s0.9-3.4-0.5-4.5S124.7,163.2,123.6,164.6z M102.4,102.9c-1.1,1.4-0.9,3.4,0.5,4.5
		s3.4,0.9,4.5-0.5s0.9-3.4-0.5-4.5S103.5,101.5,102.4,102.9z M131.2,9.2c-1.1,1.4-0.9,3.4,0.5,4.5s3.4,0.9,4.5-0.5s0.9-3.4-0.5-4.5
		C134.3,7.7,132.3,7.9,131.2,9.2z"/>
	<path d="M59.6,178.9v1.7h-2.5v-1.8c0-1.2-0.5-1.7-1.4-1.7s-1.4,0.5-1.4,1.7v9.2c0,1.2,0.5,1.7,1.4,1.7s1.4-0.4,1.4-1.7v-2.4h2.5
		v2.3c0,2.7-1.4,4.3-4,4.3s-4-1.6-4-4.3V179c0-2.7,1.4-4.3,4-4.3S59.6,176.2,59.6,178.9z M67.2,174.8l2.7,17.1h-2.7l-0.5-3.1h-3.3
		l-0.5,3.1h-2.5l2.7-17.1H67.2z M66.4,186.5l-1.3-8.6l0,0l-1.3,8.6H66.4z M77.3,185L77.3,185l-2.8-10.2h-3.4v17.1h2.4v-12.4l0,0
		l3.3,12.4h2.8v-17.1h-2.4V185H77.3z M85.4,174.6c-2.6,0-4,1.6-4,4.3v8.9c0,2.7,1.4,4.3,4,4.3s4-1.6,4-4.3v-2.3h-2.5v2.4
		c0,1.2-0.5,1.7-1.4,1.7s-1.4-0.4-1.4-1.7v-9.2c0-1.2,0.5-1.7,1.4-1.7s1.4,0.5,1.4,1.7v1.8h2.5v-1.7C89.4,176.2,88,174.6,85.4,174.6
		z M91,191.9h7.3v-2.4h-4.6v-5h3.7V182h-3.7v-4.8h4.6v-2.4H91V191.9z M108.4,191.9h-2.7c-0.1-0.4-0.2-0.7-0.2-2.1v-2.7
		c0-1.6-0.5-2.2-1.8-2.2h-0.9v7h-2.7v-17.1h4.1c2.8,0,4,1.3,4,3.9v1.3c0,1.8-0.6,2.9-1.8,3.4l0,0c1.3,0.6,1.8,1.8,1.8,3.6v2.6
		C108.1,190.7,108.1,191.3,108.4,191.9z M105.4,179c0-1.2-0.4-1.8-1.4-1.8h-1.3v5.3h1.1c1,0,1.6-0.4,1.6-1.8L105.4,179L105.4,179z"
		/>
	<path d="M42.9,229.3c0,0.5-0.1,0.9-0.2,1.4c-0.4,1.5-0.6,3.2-1.2,4.7c-0.7,1.5-1.3,3-2.2,4.3c-0.3,0.4-0.6,1-1,1.3
		c-0.8,0.9-1.5,1.8-2.3,2.5c-2.5,1.8-6.6,1.9-9.4,0.2c-0.3-0.1-0.5-0.3-0.8-0.5c-0.6-0.5-1.7-1.4-2.3-2.1c-0.7-0.8-1.4-1.6-2.2-2.3
		c-0.2-0.2-0.3-0.5-0.5-0.8c-0.2-0.4-0.5-0.8-0.7-1.2c-0.3-0.6-0.4-1.1-0.6-1.6c-0.8-1.9-1.3-3.8-1.4-5.8c-0.1-1.2-0.2-2.5-0.2-3.7
		c0-1.8,0.1-8,0.3-8.9c0.2-1.2,0.2-2.6,0.6-3.8c0.2-0.8,2.9-8.1,3.2-8.4c0.3-0.6,2.7-3.9,2.9-4.2c0.9-0.7,1.6-1.5,2.7-2
		c2.3-1.2,4.3-1.7,6.9-1c0.7,0.2,1.4,0.3,2.1,0.6c0.9,0.3,1.6,1,2.3,1.5c0.3,0.2,0.6,0.5,0.9,0.8c0.5,0.4,0.8,0.9,0.6,1.6
		c-0.1,0.4-0.2,1.2,0.1,1.6c1.2,1.4,2.5,0.5,2.5-0.5c0-0.9-0.2-3.2-3.1-4.3c-1.6-1.2-3.3-1.7-5.1-2.3c-2.1-0.7-5.6-0.3-7.5,0.5
		c-0.6,0.2-1.1,0.5-1.7,0.8c-4.6,2.6-9.1,9.9-9.9,15.1c-0.1,0.5-1,5.9-0.9,7.2c-0.2,9.5,0.8,19.5,10.3,24.5c1.4,0.8,4.8,1.9,6.5,1.8
		c1.5-0.1,3.1-0.4,4.6-1.2c0.2-0.1,0.5-0.2,0.8-0.5c0.4-0.4,0.9-0.9,1.3-1.3c0.6-0.7,1.2-1.3,1.8-2.1c2.2-2.8,3.1-5.8,3.9-9.3
		c0.1-0.6,0.3-1.3,0.5-1.9C44.5,228.6,43,228.8,42.9,229.3z M146.7,217.6c-0.6-1.4-2.8-1.2-2.5,1c0.2,1.5-0.1,2.6-2.4,3.7
		c-1.2,0.5-2.5,0.8-4,1.1c-1.3,0.2-2.6,0.3-3.8,0.3c-2.3,0-4.7,0-7,0c-0.3,0-4.6,0.1-5.8,0.3c-0.7,0.1-1.3,0.2-2,0.4
		c-0.8,0.1-1.6,0.4-2.3,0.8c-1.8,0.8-3.3,1.8-4.6,3.1c-0.6,0.6-2,2.7-2.1,2.8c-0.3,0.7-0.7,1.4-0.9,2.2c-0.3,1.1-0.7,2.1-1.3,3
		c-0.2,0.5-1.3,1.4-1.4,1.2c-0.1-0.2-0.2-0.4-0.3-0.6c-0.2-0.9,0-1.7,0-2.6s0-1.7,0.1-2.6c0-1,0.3-2,0.4-3c0.2-1.6,0.3-2.6,0.3-3.5
		c-0.1-2.5-3.5-2.5-4-3.8c-0.1-0.3-0.1-0.4,0.1-0.7c0.9-1.5,2.2-4.4,2.3-5.9c0-0.5,0-1-0.4-1.2c-0.5-0.4-1.2-0.5-1.8-0.3
		c-1.3,0.5-2.2,1.5-2.5,2.8c-0.5,1.6-0.4,4.1,0.6,5.9c0,0.1,0,0.1-0.1,0.2c0,0.2-1.4,4.5-1.5,4.7c-0.8,1.3-1.4,2.8-2.4,3.9
		c-0.4,0.5-1,0.7-1.6,0.9c-0.8,0.3-2.2-0.7-2.5-1.3c-0.4-0.8-0.9-2.6-0.7-3.8c0-0.3,0-0.6,0.3-0.8c0.6-0.4,1.2-0.9,1.7-1.5
		c0.3-0.5,0.8-0.9,1.1-1.5c0.6-1.6,0.7-1.9,0.8-3.7c0-0.1,0-0.3,0-0.4c0-1.9-2.2-1.7-3.4-1.2c-1.1,0.5-1.7,1.2-2.2,2.3
		c-0.5,1.1-1,2.9-1.1,4.8c-0.2,0.5-0.3,0.9-0.4,1.4c-0.1,0.3-0.1,0.6-0.2,1c-0.3,0.9-0.6,1.4-0.9,2.3c-0.4,1.4-1.4,3.2-2.4,4.3
		c-0.4,0.5-1.1,1.8-2.4,1.4c-0.3-0.1-0.6-0.2-0.8-0.4c-0.2-0.2-0.4-0.5-0.7-0.8c-0.4-0.4-0.6-0.9-0.7-1.4c-0.2-0.9-0.4-1.8-0.5-2.7
		c-0.1-1-0.2-2.1-0.1-3.1c0.1-1.1,0.2-2.2,0.5-3.2c0.2-1.1,0.5-2.1,0.9-3c0.1-0.4,0.3-0.8,0.5-1.1c0.3-0.4,1.5-2.3,2-1.7
		c0.6,0.8,0.2,4.5-0.2,5c-0.1,0.1,0,0.3,0.2,0.3c0.4,0,0.7-0.2,0.9-0.6c0.6-1.2,1.2-5.3-1.2-5.5c-0.4,0-1.1,0-1.5,0.1
		c-0.7,0.2-1.3,0.6-1.8,1c-0.6,0.6-1.2,1.4-1.5,2.3s-0.8,3.2-0.9,3.5c-0.1,0.4-0.1,0.8-0.2,1.3c-0.3,0.9-0.7,2.3-1.1,3.6
		c-1,2.6-3.7,8-4.3,8.6c-0.5,0.4-1.3-4.4-1.2-4.9c0-1.2,0-2.5,0.1-3.8c0-1,0.1-2,0.1-3c0.2-1.9,0.2-3.8,0.2-5.8
		c0-0.8-0.2-1.3-0.8-1.9c-1.7-1.8-3.6-1-4.5,0.2c-0.4,0.5-0.6,1.2-0.9,1.7c-0.5,1.2-1,2.4-1.3,3.8c-0.2,1-0.9,3.1-0.9,3s0-0.3,0-0.5
		c0-0.4,0-0.8,0-1.2c0-3.6,0.1-4.2-0.2-4.4c-0.8-0.6-1.5-0.8-2.4-0.7c-0.2,0-0.3,0.5-0.3,0.8c0,1.6,0,1.2,0,2.5c0,0.4,0,0.9,0,1.3
		v0.1c-0.3,1.3-1.2,4.1-1.6,5.4c-0.4,1.1-0.9,2.2-1.4,3.3c-0.3,0.7-0.7,1.4-1.1,2.1c-0.4,0.8-1.5,1-1.9-0.2c-0.2-0.7-0.1-1.6-0.1-2
		c0-0.8,0-1.7,0.1-2.5c0.1-1.5,0.3-2.9,0.4-4.4c0-0.7,0.2-1.4,0.3-2.1c0-0.6,0-1.3,0.1-1.9c0.2-0.9,0.1-1.8,0.3-2.7
		c0.1-0.6-0.1-0.9-0.7-1.2c-0.6-0.3-1.2-0.4-1.8-0.3c-0.1,0-0.2,0.1-0.3,0.2c-0.1,0.5-0.3,1-0.4,1.4c-0.1,0.3-0.2,0.6-0.3,0.8
		c0,0-0.3-0.3-0.3-0.5c-0.1-0.4-0.1-0.8-0.4-1.2c-0.4-0.7-1.5-1.1-2.3-0.8c-0.8,0.2-1.7,0.7-2.2,1.3c-1,1.4-1.7,2.9-2.2,4.5
		c-0.6,1.7-0.7,3.4-0.4,5.2c0.1,0.7,0.5,1.3,1.2,1.8c1.4,1.2,3.1,0.4,3.8-0.9c0.4-0.7,0.8-1.2,1.1-1.8c0.3-0.6,0.5-1.3,0.7-1.9
		s0.3-1.2,0.5-1.7c0.3-0.9,0.6-1.7,0.8-2.5c0.2-0.6,0.8-1.8,0.8-1.7c-0.3,3-2.4,14.3,0.8,16.3c1.3,0.8,2.5,0.1,3.1-1.1
		c0.3-0.6,0.7-1,1-1.6c0.3-1.1,0.8-2.1,1.2-3.1c0.3-1,0.6-1.9,0.9-2.9c0.1-0.2,0.2-0.6,0.3-0.9c0,0.4,0,0.7,0,1.1c0,0.2,0,2.5,0,2.7
		s0.1,0.4,0.3,0.4c0.6,0.1,0.8,0.3,1.3,0.5c0.5,0.1,0.8-0.1,1.2-0.2c0.3-0.1,0.1-2.5,0.3-2.7c0,0,0,0,0-0.1c0.3-1.1,0.6-2.1,0.9-3.2
		c0.3-1.1,0.5-2.2,0.9-3.2c0.4-1.2,0.8-2.5,1.6-3.5c0.2-0.3,0.5-0.5,0.8-0.8c0.3-0.2,0.5-0.1,0.5,0.3c0,0.1-0.2,6-0.2,8.6
		c0,2.5-0.5,11.4,3.3,11.8c1.7,0.2,2.2-1.2,3.2-3.1c0.4-1.1,0.9-2.1,1.3-3.2c0.4-0.9,0.7-1.7,1.1-2.6c0.2-0.4,0.4-0.9,0.5-1.3
		c0.1,0.8,0.1,1.6,0.3,2.4c0.5,2.5,1.9,5.1,5.1,5c2.2-0.2,3-1.8,3.8-3.2c0.9-1.5,1.8-3.4,2.4-5.2c0.2,1.7,0.8,3.2,2,4.1
		c1,0.8,1.5,1.2,2.7,1.3c1.6,0.2,3.3-0.4,4.1-1.6c0.4-0.7,0.7-1.4,1.1-2.1c0.8-1.6,1.7-3.7,2.3-5.4c0.1-0.2,0.1-0.4,0.2-0.6
		c0.2,0.2,0.4,0.4,0.6,0.6c0.9,0.6,1.7,0.8,1.6,2.1c0,0.7,0,0.9-0.2,2c-0.1,0.9-0.2,1.8-0.2,2.7c-0.1,1.4-0.2,2.9-0.2,4.3
		c0,1,0.1,1.9,0.6,2.7c0.1,0.3,0.4,0.7,0.7,0.8c1,0.5,2,0.4,3-0.3c0.1-0.1,0.3-0.2,0.4-0.3c0.3-0.4,0.6-0.9,0.9-1.3
		c1-1.5,1.2-3.4,1.9-4.9c1.5-2,3.2-3.4,4-4c1.9-1.2,4.1-1.6,6.4-2c0.6-0.1,4.1-0.2,4.9-0.2c1.6,0,3.2,0,4.8,0c1.7,0,6.8-0.5,8.3-1
		C143.3,223.1,147.7,220.8,146.7,217.6z M92.6,223.8c0.3-1.7,0.4-2.3,1.1-3.9c0-0.2,1-1.6,1.1-1.8c0.1-0.2,0.5-0.3,0.6,0.1
		c0.4,2.4-0.5,4.4-2.2,6c-0.2,0.2-0.5,0.4-0.7,0.5C92.6,224.4,92.5,224.1,92.6,223.8z M51.6,223.3c-0.2,0.8-0.5,1.5-0.8,2.3
		c-0.4,1.2-0.9,2.4-1.6,3.5c-0.3,0.4-1.3,1.3-1.6,1.1c-1.2-0.9-0.4-4.8-0.1-5.7c0.2-0.9,0.4-1.7,0.8-2.5c0.2-0.6,0.6-1.2,1-1.9
		c0.3-0.5,0.7-1,1.1-1.5c0.2-0.2,0.4-0.2,0.6,0c0.2,0.3,0.4,0.6,0.5,1c0.1,0.7,0.2,1.3,0.2,2c0,0.2,0,0.4,0.3,0.4
		c0,0,0.1,0.1,0.1,0.2C51.9,222.4,51.8,222.8,51.6,223.3z M102.7,219.8c-0.3-0.5-0.5-2.2-0.3-3.7c0-0.6,1.1-2.7,1.7-2.4
		c0.3,0.1,0.4,0.4,0.4,0.7c0,2-0.9,3.6-1.7,5.3C102.8,219.7,102.7,219.8,102.7,219.8z M124.6,223.8L124.6,223.8L124.6,223.8
		L124.6,223.8z"/>
</g>
</svg>
