<?xml version="1.0" encoding="utf-8"?>
<!-- Generator: Adobe Illustrator 22.1.0, SVG Export Plug-In . SVG Version: 6.00 Build 0)  -->
<svg version="1.1" id="Layer_1" xmlns="http://www.w3.org/2000/svg" xmlns:xlink="http://www.w3.org/1999/xlink" x="0px" y="0px"
	 viewBox="0 0 204.8 160.6" style="enable-background:new 0 0 204.8 160.6;" xml:space="preserve">
<g id="leo">
	<path d="M177.4,36.7l-0.5,0.6l-26.3,27.1l2.1,26.8l-80.8,9.2l-53.5,49.9l-0.4,0.4l0.5,0.8l56-9.9l99.7,2.8v-1.1l-3.2-33l-17.2-19.2
		l-2-26l25.5-26.5l11,13.5l0.9-0.7L177.4,36.7z M169.8,110.9l3.1,32.2l-98.5-2.8l0,0h-0.1h-0.1l0,0l-53.7,9.5l52.1-48.5l80.8-9.1
		L169.8,110.9z"/>
	<path d="M185.9,52.4c-0.4-1.7,0.6-3.5,2.3-3.9s3.5,0.6,3.9,2.3s-0.6,3.5-2.3,3.9S186.3,54.1,185.9,52.4z M154.1,95
		c1.7-0.4,2.7-2.2,2.3-3.9s-2.2-2.7-3.9-2.3s-2.7,2.2-2.3,3.9C150.7,94.4,152.4,95.4,154.1,95z M73.1,104.1c1.7-0.4,2.7-2.2,2.3-3.9
		c-0.4-1.7-2.2-2.7-3.9-2.3c-1.7,0.4-2.7,2.2-2.3,3.9S71.4,104.6,73.1,104.1z M19.2,154.1c1.7-0.4,2.7-2.2,2.3-3.9
		c-0.4-1.7-2.2-2.7-3.9-2.3c-1.7,0.4-2.7,2.2-2.3,3.9S17.5,154.6,19.2,154.1z M174.3,36.5c-0.7,1.6,0.1,3.5,1.8,4.2s3.5-0.1,4.2-1.8
		c0.7-1.6-0.1-3.5-1.8-4.2C176.9,34,175,34.8,174.3,36.5z M167.4,108.7c-0.7,1.6,0.1,3.5,1.8,4.2s3.5-0.1,4.2-1.8
		c0.7-1.6-0.1-3.5-1.8-4.2C169.9,106.3,168.1,107.1,167.4,108.7z M70.8,139.7c-0.7,1.6,0.1,3.5,1.8,4.2c1.6,0.7,3.5-0.1,4.2-1.8
		c0.7-1.6-0.1-3.5-1.8-4.2C73.4,137.2,71.5,138,70.8,139.7z M148,63.8c-0.7,1.6,0.1,3.5,1.8,4.2c1.6,0.7,3.5-0.1,4.2-1.8
		s-0.1-3.5-1.8-4.2S148.7,62.1,148,63.8z M170.6,142.9c-0.7,1.6,0.1,3.5,1.8,4.2c1.6,0.7,3.5-0.1,4.2-1.8c0.7-1.6-0.1-3.5-1.8-4.2
		S171.3,141.2,170.6,142.9z"/>
	<path d="M21.7,106h4.4v2.4H19V91.3h2.7L21.7,106L21.7,106z M27.3,108.5h7.3v-2.4H30v-5h3.7v-2.5H30v-4.8h4.6v-2.4h-7.3V108.5z
		 M44.2,95.5v8.9c0,2.7-1.4,4.3-4.1,4.3s-4.1-1.6-4.1-4.3v-8.9c0-2.7,1.4-4.3,4.1-4.3S44.2,92.8,44.2,95.5z M41.6,95.3
		c0-1.2-0.5-1.7-1.4-1.7s-1.4,0.5-1.4,1.7v9.2c0,1.2,0.5,1.7,1.4,1.7s1.4-0.5,1.4-1.7V95.3z"/>
	<path d="M145.6,43.5c-0.7-1.7-3.4-1.4-3.1,1.2c0.3,1.9-0.1,3.2-3,4.6c-1.4,0.7-3.1,1-4.9,1.3c-1.6,0.2-3.2,0.4-4.8,0.4
		c-2.9,0.1-5.8,0-8.7,0c-0.5,0-6.3,0.3-7.2,0.4c-0.8,0.2-1.6,0.3-2.4,0.5c-1,0.2-2,0.5-3,1c-1.1,0.5-2,1-3,1.6
		c0.1-0.2,0.2-0.6,0.4-1c0.6-1.9,0.5-2.9,0.9-4.6c0.5-2.3,0.2-11.1-2.7-12.4c-0.9-0.4-2.2-0.6-2.9-0.2c-1.4,0.7-1.7,2.1-1.8,3.4
		c-0.1,1,0.1,1.9,0.2,2.9c0.1,0.8,0.8,3.2,0.9,3.5c0.1,0.1,0.1,0.1,0.1,0.2c-0.1-0.1-0.5-0.3-0.6-0.4c-0.8-0.7-2.1-0.6-2.6,0.1
		c-0.3,0.4-0.7,0.9-0.8,1.4c-0.4,1.3-0.8,2.6-0.9,4.1c-0.3,1-1,3.1-1.2,3.3c-1,1.7-1.8,3.7-3.3,4.9c-2,1.6-4.4,0.2-4.8-0.6
		c-0.5-1-1.1-3.3-0.8-4.7c0.1-0.4,0-0.7,0.4-1c0.8-0.5,3.1-3,3.4-3.7c0.8-2,0.8-2.4,1-4.6c0-0.2,0-0.4,0-0.5
		c-0.1-2.4-2.7-2.1-4.2-1.4c-1.4,0.7-2.1,1.5-2.7,2.9c-1.7,3.5-2.1,11.5,1.2,14.6c1.5,1.4,1.9,1.5,3.3,1.7c2,0.2,4-0.5,5.1-2
		c0.5-0.8,2.3-4.8,2.8-5.9c0.3,1.1,0.8,2.2,1.8,3.2s2.3,1.5,3.5,1.6c-0.1,0.1-0.2,0.3-0.4,0.4c-1.2,1.4,0.2,1.8,0.7,1
		s2.1-2.5,2.1-2.5c1.2-1.1,2.3-2,2.9-2.4c2.3-1.5,5-2,7.9-2.5c0.7-0.1,5-0.2,6.1-0.2c2,0,4,0,5.9,0c2.1,0,8.4-0.7,10.4-1.2
		C141.5,50.4,146.9,47.5,145.6,43.5z M85.7,51.3c0.4-2.1,0.5-2.8,1.4-4.9c0.1-0.2,1.2-2,1.4-2.2s0.7-0.4,0.8,0.1
		c0.5,3-0.7,5.4-2.7,7.4c-0.3,0.2-0.6,0.5-0.8,0.7C85.7,52,85.6,51.6,85.7,51.3z M105.5,49.3c-0.2,1-0.5,2.6-0.8,3.7
		c-0.2,1.1-0.6,2.2-1.2,3.2c-0.2,0.2-0.4,0.4-0.5,0.5c-0.2,0.2-0.5,0.6-0.8,1c-0.1,0.1-0.1,0.1-0.2,0.1c-0.2,0.2-1,0.1-1.2-0.1
		c-0.5-0.7-1.2-1.4-1.2-2.3c-0.7-3-0.2-5.6,1.2-8.1c0.1,0,0.1-0.1,0.1-0.1c0.1,0,0.2,0.1,0.2,0.1c0.2,0.5,0.5,1,0.8,1.5
		c0.4,0.6,2.6,0.1,1.7-1.7c-0.8-1.4-1.3-2.9-1.4-4.4c0-0.7-0.2-1.3-0.2-2c-0.1-0.4-0.2-0.7-0.1-1c0.2-0.7,0.2-2,1.2-2.1
		c0.3-0.1,1,0.2,1.1,0.8c0.4,0.9,0.6,1.8,0.9,2.7c0.4,1.4,0.5,2.8,0.5,4.2c0,1.1-0.2,2.1-0.2,3.2C105.6,48.7,105.5,49.2,105.5,49.3z
		 M92.6,80.1c-0.5,0.5-0.5,1.6-0.6,1.8c-0.1,0.4-0.5,0.5-1,0.7c-1.2,0.2-2.3,0.3-3.6,0.2c-1.8-0.2-5.8-2.8-7-3.7
		c-0.7-0.7-2.4-2-2.6-2.3c-0.8-0.8-8.9-8.1-10-8.6c-0.3-0.2-0.2-1.2-0.1-2c0.1-0.9,0.1-1.8,0.2-2.7c0.1-0.7,0.4-11.4,0.5-14.2
		c0.1-1.6,0.4-6.9,0.4-7.7c0.2-1.4,0.2-11,0.2-13c0.1-0.9-0.2-4.9-0.2-5.9c-0.1-1.5-0.2-2.9-0.3-4.4c-0.1-1.4-0.1-2.8-0.2-4.1
		c-0.2-5.3-4.5-3-4.4-2.5c0.1,1.2,0.3,2.3,0.4,3.6c0.2,3.2,0.3,6.4,0.4,9.6c0.1,2.5,0.1,5.1,0.1,7.6c0,1.2-0.1,2.3-0.1,3.5
		c0,0.1-0.1,9.6-0.1,9.7c-0.1,1.8-0.2,3.6-0.2,5.5c-0.1,1.7-0.2,3.3-0.3,5c0,0-0.1,2.1-0.1,3.2c0,2,0,3.9-0.1,5.8
		c0,0.7-0.1,1-0.1,1.5c-0.1,0.3-0.2,0.4-0.5,0.3c-1-0.2-2-0.5-3-0.5c-3,0.1-4.6,0.1-7.3,1.5c-2.9,1.5-3,5.5-2.3,7.4
		c0.7,1.8,2.4,3.3,4.8,3.4c1.4-0.1,2.7,0.2,4-0.4c1.5-0.5,2.7-1.2,3.7-2.1c1.1-0.9,2.3-2.4,2.9-3.4c0.5-1.1,0.5-1.7,1.7-0.9
		c0.1,0.1,3.4,3.2,4,3.9c1.2,1.2,2.6,2.4,4.1,3.4c0.4,0.2,6.1,4.4,9.4,4.9c2.8,0.2,5.2,0.3,8.2-0.8c2-0.6,2.9-1.7,2.8-2.6
		C96.3,78.3,94.1,78.7,92.6,80.1z M63.6,70.5c-0.2,0.5-0.4,1.1-0.6,1.7c-1,2-2.1,2.8-4.3,4c-1.2,0.6-4.4,0.8-5.2-0.1
		c-0.6-0.8-1-1.5-1-2.5c-0.1-0.9-0.1-1.8,0.4-2.7c0.4-0.8,1.1-1.5,2.1-1.8c1.2-0.4,2.4-0.8,3.7-0.7c1.6,0,3.1,0.5,4.5,1.2
		C63.6,69.7,63.8,70.1,63.6,70.5z M64.4,70.4L64.4,70.4L64.4,70.4L64.4,70.4z"/>
</g>
</svg>
