<?xml version="1.0" encoding="utf-8"?>
<!-- Generator: Adobe Illustrator 22.1.0, SVG Export Plug-In . SVG Version: 6.00 Build 0)  -->
<svg version="1.1" id="Layer_1" xmlns="http://www.w3.org/2000/svg" xmlns:xlink="http://www.w3.org/1999/xlink" x="0px" y="0px"
	 viewBox="0 0 223.6 201.3" style="enable-background:new 0 0 223.6 201.3;" xml:space="preserve">
<g id="scorpio">
	<path d="M135.1,52.1l-31.8,1.5l-0.7,0.7l-0.2-0.2L86.3,75.2l-8,41.3l10.4,43.2l2.2,10.9l-23.3,7.8l0,0l-29.2,8.3l-18-14.5l1.2-9
		l7.2-15l10.4,2.9l-0.3,1.1l-9.5-2.5l-6.7,14.1l-1,7.8l16.9,13.7l28.7-8.1l22.2-7.7l-2-9.3L77,116l8.3-41.9l16.6-21.4l13.3-40.6
		l1.1,0.4l-12.9,39.3l23.9-23.6l0.8,0.8l-23.6,23.3l30.5-1.4L135.1,52.1z"/>
	<path d="M119,11.7c0,1.8-1.4,3.2-3.2,3.2s-3.2-1.4-3.2-3.2s1.4-3.2,3.2-3.2S119,9.9,119,11.7z M85.9,71.6c-1.8,0-3.2,1.4-3.2,3.2
		s1.4,3.2,3.2,3.2s3.2-1.4,3.2-3.2S87.7,71.6,85.9,71.6z M88.2,156.5c-1.8,0-3.2,1.4-3.2,3.2s1.4,3.2,3.2,3.2s3.2-1.4,3.2-3.2
		S90,156.5,88.2,156.5z M103,49.8c-1.8,0-3.2,1.4-3.2,3.2c0,1.8,1.4,3.2,3.2,3.2s3.2-1.4,3.2-3.2S104.8,49.8,103,49.8z M77.7,113.2
		c-1.8,0-3.2,1.4-3.2,3.2s1.4,3.2,3.2,3.2s3.2-1.4,3.2-3.2S79.5,113.2,77.7,113.2z M39.1,148.4c-1.8,0-3.2,1.4-3.2,3.2
		s1.4,3.2,3.2,3.2s3.2-1.4,3.2-3.2C42.3,149.8,40.8,148.4,39.1,148.4z M29.2,145.5c-1.8,0-3.2,1.4-3.2,3.2s1.4,3.2,3.2,3.2
		s3.2-1.4,3.2-3.2C32.4,146.9,30.9,145.5,29.2,145.5z M22.2,159.7c-1.8,0-3.2,1.4-3.2,3.2s1.4,3.2,3.2,3.2s3.2-1.4,3.2-3.2
		S24,159.7,22.2,159.7z M21,169c-1.8,0-3.2,1.4-3.2,3.2s1.4,3.2,3.2,3.2s3.2-1.4,3.2-3.2S22.8,169,21,169z M39.1,182.7
		c-1.8,0-3.2,1.4-3.2,3.2s1.4,3.2,3.2,3.2s3.2-1.4,3.2-3.2S40.8,182.7,39.1,182.7z M67.5,174.2c-1.8,0-3.2,1.4-3.2,3.2
		s1.4,3.2,3.2,3.2s3.2-1.4,3.2-3.2S69.3,174.2,67.5,174.2z M88.8,172.8c1.6,0.8,3.5,0.1,4.3-1.5s0.1-3.5-1.5-4.3s-3.5-0.1-4.3,1.5
		C86.6,170.1,87.3,172,88.8,172.8z M124.8,27.3c-0.7,1.6,0.1,3.5,1.8,4.2c1.6,0.7,3.5-0.1,4.2-1.8c0.7-1.6-0.1-3.5-1.8-4.2
		C127.3,24.9,125.5,25.7,124.8,27.3z M132.1,50.3c-0.7,1.6,0.1,3.5,1.8,4.2c1.6,0.7,3.5-0.1,4.2-1.8s-0.1-3.5-1.8-4.2
		C134.6,47.9,132.7,48.7,132.1,50.3z"/>
	<path d="M107.4,103c0,2.7-1.4,4.3-4,4.3s-4-1.6-4-4.3v-1.1h2.5v1.2c0,1.2,0.5,1.7,1.4,1.7s1.4-0.4,1.4-1.7c0-1.2-0.5-2.2-2.3-3.7
		c-2.2-2-3-3.4-3-5.3c0-2.7,1.3-4.3,4-4.3c2.6,0,4,1.6,4,4.3v0.5h-2.5v-0.7c0-1.2-0.5-1.7-1.3-1.7c-0.9,0-1.3,0.5-1.3,1.7
		s0.5,2.2,2.3,3.7C106.7,99.7,107.4,101.1,107.4,103z M112.7,89.9c-2.6,0-4,1.6-4,4.3v8.9c0,2.7,1.4,4.3,4,4.3s4-1.6,4-4.3v-2.3
		h-2.5v2.4c0,1.2-0.5,1.7-1.4,1.7s-1.4-0.4-1.4-1.7V94c0-1.2,0.5-1.7,1.4-1.7s1.4,0.5,1.4,1.7v1.8h2.5v-1.7
		C116.7,91.4,115.3,89.9,112.7,89.9z M126.3,94.2v8.9c0,2.7-1.4,4.3-4.1,4.3c-2.6,0-4.1-1.6-4.1-4.3v-8.9c0-2.7,1.4-4.3,4.1-4.3
		C124.8,89.9,126.3,91.4,126.3,94.2z M123.6,94c0-1.2-0.5-1.7-1.4-1.7s-1.4,0.5-1.4,1.7v9.2c0,1.2,0.5,1.7,1.4,1.7s1.4-0.5,1.4-1.7
		V94z M136.1,105.1c0,0.8,0,1.4,0.3,2.1h-2.7c-0.1-0.4-0.2-0.7-0.2-2.1v-2.7c0-1.6-0.5-2.2-1.8-2.2h-0.9v7H128V90.1h4.1
		c2.8,0,4,1.3,4,3.9v1.3c0,1.8-0.6,2.9-1.8,3.4l0,0c1.3,0.6,1.8,1.8,1.8,3.6V105.1z M133.4,94.3c0-1.2-0.4-1.8-1.4-1.8h-1.3v5.3h1.1
		c1,0,1.6-0.4,1.6-1.8L133.4,94.3L133.4,94.3z M145.8,94.3v2.2c0,2.7-1.3,4.2-4,4.2h-1.3v6.4h-2.7V90h4
		C144.5,90.1,145.8,91.5,145.8,94.3z M143.1,94.1c0-1.2-0.5-1.6-1.3-1.6h-1.3v5.8h1.3c0.9,0,1.3-0.4,1.3-1.6V94.1z M147,107.2h2.7
		V90.1H147V107.2z M159.6,94.2v8.9c0,2.7-1.4,4.3-4.1,4.3s-4.1-1.6-4.1-4.3v-8.9c0-2.7,1.4-4.3,4.1-4.3S159.6,91.4,159.6,94.2z
		 M156.9,94c0-1.2-0.5-1.7-1.4-1.7s-1.4,0.5-1.4,1.7v9.2c0,1.2,0.5,1.7,1.4,1.7s1.4-0.5,1.4-1.7V94z"/>
	<path d="M122.9,118.4c0.1-0.7-0.6-1.3-1.1-1.9c-0.9-1.1-2-1.8-3.5-2.4c-1.7-0.7-3.5-1-5.4-1.1c-1.8-0.1-3.5,0.3-5.2,0.9
		c-1.8,0.6-5,4-5.4,4.6c-0.6,0.9-1,1.8-1.4,2.8s-0.6,2.3-0.5,3.4c0.1,2.1,1.1,5.6,1.3,5.9c0.1,0.1,2.3,5.6,2.8,6.3
		c0.6,1,1.2,2.1,1.8,3.1c0.4,0.7,2.1,2.6,2.5,2.5c1.3-0.5,2.5-1.2,3.8-1.6c1.2-0.4,2.4-0.7,3.7-0.9c1-0.1,1.7-0.4,2.4,0.4
		c1.3,1.6-0.9,3.3-2.1,1.9c-0.1-0.2-0.3-0.4-0.4-0.6c-0.4-0.5-1.2-0.8-1.8-0.6c-0.5,0.1-1.1,0.3-1.6,0.4c-0.9,0.4-2.5,1.4-2.6,1.5
		c-0.6,0.4-0.6,0.5-0.1,1c1.1,1.1,3.1,4.4,3.5,5c1,1.5,1.7,3,2.6,4.6c1.5,2.7,0.8,6.3-0.4,7.8c-1.9,2.5-3.6,4.1-8.4,4.2
		c-0.8,0.1-2.3-0.2-3.1-0.4c-1.4-0.4-2.7-1.1-3.6-2.2c-0.8-0.9-1.4-1.8-1.7-2.9c-0.5-2.1-0.6-4.2,0-6.3c0.4-1.3,1-2.6,1.8-3.9
		c0.7-1.3,1.7-2.4,2.9-3.5c0.6-0.5,1.2-1.2,1.8-1.8c0.1-0.1,0.1-0.2,0-0.4c-0.2-0.3-0.5-0.6-0.7-1c-0.1,0-6.2-11.3-6.3-11.5
		c-0.5-1.4-0.9-2.8-1-4.3c-0.1-1.3-0.2-2.5-0.2-3.7c0-2.1,1.7-5.4,3-7.1c1.5-2,4.8-3.7,7.5-4.3c0.6-0.1,2-0.4,2.6-0.4
		c2.4-0.1,4.2,0,6.5,0.4c0.7,0.1,1.9,0.7,2.5,0.9c1.1,0.4,2.1,1.2,2.8,1.9c0.9,1,2,2,1.9,3.4C124,120.2,122.8,119.2,122.9,118.4z
		 M105.9,146.1c-0.6,0.6-2.9,3.2-3.3,3.9c-1.3,2.1-2.1,4.3-2,6.8c0,0.7,0.8,4.1,1.7,5c0.6,0.6,2,1.9,5.5,2.4
		c1.2,0.2,4.3-0.8,5.8-2.8c0.6-0.8,1.6-4.3,0.4-7.2c-0.7-1.4-1.5-2.6-2.5-3.8c-0.6-0.8-3.6-3.5-4.3-4.3
		C106.5,145.4,106.5,145.4,105.9,146.1z M172.5,133.2c0.2,0,0.4-0.1,0.5-0.2c0.4-1.1,0-2.2,0-2.2c-0.1-0.4-1.3-0.4-1.5,0
		c-0.1,0.3-0.5,1.9-0.3,2.1C171.6,133.1,172.1,133.2,172.5,133.2z M209,141.5c-1.5,0.4-6.2,0.9-7.8,0.9c-1.5,0-3,0-4.5,0
		c-0.8,0-4,0.1-4.6,0.2c-2.2,0.4-4.3,0.7-6,1.9c-0.5,0.4-1.3,1-2.2,1.8l0,0c-0.1,0.1-0.2,0.2-0.3,0.3c-0.4,0.4-0.9,0.9-1.3,1.5
		c-0.4,0.6-1.4,0.3-0.5-0.8c0.1-0.1,0.2-0.2,0.3-0.3c-0.9,0-1.9-0.5-2.6-1.2c-0.7-0.7-1.1-1.5-1.3-2.3c-0.2,0.6-0.4,1.2-0.5,1.6
		c-0.2,0.8-0.7,1.5-0.9,2.3c-0.1,0.4-0.4,0.7-0.5,1c-0.8,0.9-1.5,1.4-3,1.2c-0.3-0.1-0.6-0.3-0.9-0.4c-0.3-0.2-0.4-0.3-0.7-0.6
		c-0.3-0.2-0.4-0.6-0.6-0.9c-0.5-1-0.7-2-0.9-3c-0.1-0.8-0.2-1.6-0.3-2.4c0-0.7,0-1.3,0.1-2c-0.5,0.3-3.4,1.3-3.4,1.3
		c0,0.4-0.2,0.8-0.2,1.1s-1,3.1-1.4,3.4c-0.1,0-0.9,1.3-2.3,0.9c-0.5-0.1-0.6,0.1-1.3-0.9l-0.1,0.1c0,0.2-0.1,0.4,0,0.7
		c0.2,1.1,0.1,2.2,0.1,3.4c0,2.2-0.2,6.8-1,9c-0.4,1.1-2.7,0.6-2.9-0.5c-0.1-0.7-0.1-1.5-0.2-2.2c-0.1-1.3,0-2.7-0.1-4.1
		c-0.1-1.4-0.1-2.8-0.1-4.1c0-1.6-0.1-3.3-0.1-4.9c-0.1,0.3-0.3,0.6-0.4,0.9c-0.4,1-0.8,2.1-1.2,3.1c-0.2,0.7-0.7,1.4-0.8,2.2
		c-0.5,1.1-0.7,2.3-1.3,3.4c-0.3,0.4-0.5,0.8-0.8,1.2c-0.1,0.1-0.2,0.2-0.4,0.3c-0.9,0.6-1.9,0.8-2.8,0.3c-0.3-0.1-0.5-0.4-0.6-0.8
		c-0.4-0.7-0.6-1.6-0.5-2.5c0-1.3,0.1-2.7,0.2-4c0-0.9,0.1-1.7,0.2-2.5c0.1-1.1,0.1-1.3,0.2-1.8c0.1-1.3-0.7-1.5-1.5-2
		c-0.4-0.3-0.7-0.6-1-1c-1,0.4-2.2,0.5-3.9,0.1c-0.4-0.1-0.4-0.1-0.6,0.4c-0.2,0.7-0.6,1.5-0.8,2.2c-0.8,2.1-1.9,4.3-4,4.4
		c-1.5,0.1-3-1.6-3.6-3.3c0-0.1-0.1-0.2-0.1-0.3c-0.6,2-1.7,4.3-2.6,6c-0.7,1.3-1.5,2.7-3.5,3c-3,0.1-4.3-2.3-4.8-4.7
		c-0.3-1.7-0.4-3.5-0.1-5.2c0-0.5,0.1-1.1,0.2-1.5c0.1-0.4,0.5-2.4,0.9-3.3c0.3-0.8,0.8-1.6,1.4-2.2c0.4-0.4,1-0.8,1.7-0.9
		c0.4-0.1,1-0.2,1.4-0.1c2.2,0.2,1.7,4,1.1,5.2c-0.2,0.3-0.5,0.5-0.9,0.5c-0.2,0-0.3-0.1-0.2-0.3c0.4-0.5,0.3-0.7,0.5-1.3
		c0.3-0.8,0.3-2.6-0.3-3.4c-0.5-0.6-1.6,1.2-1.9,1.6c-0.2,0.3-0.3,0.7-0.4,1c-0.4,0.9-0.7,1.8-0.9,2.8c-0.2,0.9-0.3,1.9-0.4,3
		c-0.1,0.9,0,1.9,0.1,2.9c0.1,0.9,0.3,1.7,0.5,2.5c0.1,0.4,0.3,0.9,0.7,1.3c0.2,0.2,0.4,0.5,0.6,0.7c0.2,0.2,0.5,0.3,0.8,0.4
		c1.3,0.4,1.9-0.8,2.3-1.3c0.9-1,1.9-2.7,2.2-4c0.3-0.8,0.6-1.3,0.9-2.1c0.1-0.3,0.1-0.6,0.2-0.9c0.1-0.5,0.2-1,0.4-1.6
		c0-0.8,0-1.6,0.1-2.7c0.3-2.2,2-5.9,4.8-4.2c0.4,0.3,0.6,0.6,0.7,1c0.2,0.9,0.3,1.7,0.2,2.5c0,0.3,0,0.4-0.3,0.6
		c-0.4,0.2-0.6,0.1-0.6-0.4c0-0.8,0-1.2-0.1-2c0-0.3-0.2-0.6-0.4-0.8c-0.9-0.9-1.5,3.4-1.5,4.1c-0.1,1.5,0,3,0.4,4.4
		c0.1,0.6,0.2,1.1,0.7,1.5c0.3,0.3,0.8,0.4,1.1,0.2s0.5-0.4,0.7-0.7c0.7-0.8,1.1-1.7,1.4-2.7s0.6-1.8,0.9-2.8
		c-0.1-0.2-0.4-0.6-0.6-0.8c-1.9-2.6-3.3-8.7,0.4-8.7c0.6,0,0.8,0.2,1.3,0.8c0.3,0.5,0.4,1.1,0.5,1.6c0.2,1.3,0.2,1.5,0.2,2.8
		c0,1.2-0.3,2.2-0.5,3.3c-0.1,0.5-0.1,0.5,0.4,0.7c1.3,0.6,2.4,0.3,3.2,0c-0.9-1.7-1-3.8-0.5-5.3c0.4-1.2,1.1-2.2,2.4-2.6
		c0.6-0.2,1.2-0.1,1.7,0.3c0.4,0.2,0.4,0.7,0.4,1.2c-0.1,1.4-1.3,4.1-2.2,5.6c-0.2,0.2-0.2,0.4-0.1,0.6c0.4,1.2,3.6,1.2,3.8,3.5
		c0,0.9-0.1,1.8-0.3,3.3c-0.1,0.9-0.3,1.8-0.4,2.8c0,0.8-0.1,1.6-0.1,2.5c0,0.8-0.2,1.6,0,2.4c0.1,0.2,0.2,0.4,0.3,0.6
		c0,0.1,0.3,0,0.4-0.1c0.4-0.4,0.6-0.6,0.9-1.1c0.5-0.9,0.9-1.8,1.2-2.8c0.4-1.1,0.9-2.1,1.4-3.1c0.2-0.4,0.3-0.9,0.5-1.3
		c0.6-1.4,1.1-2.9,1.6-4.4c0-2.7-0.1-7.3-0.1-9.5c0-0.5,0-1.9,0.7-1.9s0.9,0.2,1.4,0.7c0.2,0.2,0.2,0.4,0.2,0.6c0,1.6,0,6,0,7.5
		c0,0.5,0,1,0,1.5c0,0.6,0,1.2,0,1.7c0,1,0,1.9,0,2.9c0,0.6,0,1.2,0,1.7c0,0.3,0,0.5,0,0.9c0,0.3,0,0.6,0,0.9c0,0.9,0.1,1.9,0,2.8
		c0,1.3,0,4.5,0,5.9c0,0.3,0.7,0.6,0.8,0c0.4-2.9,0.4-4.2,0.3-6.6c0-2.3,0-4.7-0.1-7.1c0-0.2,0-2.6,0-2.8c-0.1-1.7,0.2-3.3,0.3-5
		c0.1-0.8,0.2-1.6,0.8-2.3c0.4-0.4,0.9-0.8,1.5-0.7c2.3,0.1,3.3,1.5,3.6,3.5c0.2,1.2,0,2.3,0.2,3.5c0,0.2,0,0.4,0,0.7
		c0,0.2,0.1,0.3,0.4,0.3c1.2-0.2,2.1-0.8,3-1.3c0.1-1,0.3-2,0.4-3c0.1-0.7,0.3-0.8,1.2-0.7c0.4,0,0.9,0.2,1.3,0.4
		c0.2,0.1,0.3,0.3,0.2,0.5c-0.2,1.2-0.4,2.4-0.5,3.6c-0.1,1.2-0.1,2.4,0,3.6c0,0.9,0.2,1.8,0.4,2.8c0.1,0.8,0,0.9,0.4,1.7
		c0,0.1,0.3,0.3,0.3,0.4c0.7,0.7,1.9-0.9,2.1-1.3c0.6-1.4,1.7-3.9,2.2-5.7c0.1-1.1,0.3-2.1,0.7-3c0.1-0.4,0.4-0.8,0.6-1.1
		c0.4-0.5,1.3-0.5,2,0c0.1,0,0.2,0.1,0.3,0.2c0,0,0.1,0,0.2,0v-0.1c0-0.2-0.1-0.4-0.2-0.7c-0.3-0.6-0.4-1.3-0.4-1.9
		c-0.1-0.8-0.2-1.5-0.2-2.2c0-1,0.3-2.1,1.3-2.6c0.5-0.3,1.5-0.2,2.2,0.1c2.2,1,2.4,7.6,2.1,9.3c-0.3,1.3-0.2,2.1-0.7,3.5
		c-0.1,0.3-0.2,0.5-0.3,0.7c0.7-0.4,1.4-0.9,2.2-1.2c0.7-0.3,1.5-0.5,2.2-0.7c0.6-0.1,1.2-0.2,1.8-0.4c0.7-0.1,5.1-0.3,5.4-0.3
		c2.2,0,4.3,0,6.5,0c1.2,0,2.4-0.1,3.6-0.3c1.4-0.3,2.6-0.5,3.7-1c2.2-1,2.5-2,2.2-3.5c-0.3-2,1.8-2.2,2.3-0.9
		C216.5,138.4,212.5,140.6,209,141.5z M141.5,136.6c0.1-1.2,0.1-1.3,0.1-2.4c0-1-0.1-1.9-0.4-2.8c-0.5-1.4-1.2-0.4-1.4,0.3
		c-0.5,2.6,0.2,4.8,1.5,6.4C141.4,137.8,141.4,136.8,141.5,136.6z M147.3,137.4c0.7-1.7,1.6-3.1,1.6-5c0-0.3-0.1-0.5-0.4-0.6
		c-0.5-0.3-1.5,1.7-1.6,2.2c-0.2,1.5,0,3,0.3,3.5C147.2,137.5,147.2,137.4,147.3,137.4z M164.2,142.2c0-0.2-0.1-0.2-0.3-0.1
		c-0.1,0-0.3,0.1-0.4,0.2c-0.5,0.3-0.8,0.8-0.9,1.3c-0.2,0.4-0.3,0.9-0.2,1.5c0,0.4,0.1,0.8,0.3,1.1s0.3,0.4,0.5,0.1
		c0.2-0.2,0.4-0.4,0.4-0.7C163.9,144.5,164.2,143.3,164.2,142.2z M164.3,140.2L164.3,140.2c0-0.5-0.1-0.9-0.1-1.3
		c0-1.4-0.2-2.7-0.5-4.1c-0.1-0.4-0.3-0.8-0.5-1.1c-0.1-0.2-0.2-0.3-0.4,0c-0.7,0.6-1,1.4-1.1,2.3c-0.1,0.8-0.2,1.6-0.3,2.3
		c0,0.7-0.1,1.3-0.1,2c0,0.3,0,0.6,0,0.9c-0.1,0.8,0,1.5,0,2.3v0.1l0.1-0.1c0.3-0.9,0.9-1.6,1.9-2
		C164.1,141.2,164.4,140.8,164.3,140.2z M184.7,142.6c0.2-0.9,0.5-2.1,0.6-2.8c0,0,0-0.5,0-0.6c0-0.8,0.2-1.6,0.2-2.4
		c0-1-0.1-2.1-0.4-3.1c-0.2-0.7-0.4-1.4-0.7-2.1c-0.1-0.4-0.6-0.6-0.9-0.6c-0.8,0.1-0.8,1.1-0.9,1.6c-0.1,0.2,0,0.5,0,0.8
		c0,0.5,0.2,1,0.2,1.5c0,1.2,0.4,2.2,1,3.3c0.7,1.3-0.9,1.7-1.3,1.3c-0.2-0.4-0.4-0.7-0.6-1.1c0,0-0.1-0.1-0.2-0.1c0,0,0,0-0.1,0
		c-1.1,1.8-1.5,3.8-0.9,6.1c0,0.6,0.5,1.2,0.9,1.7c0.1,0.2,0.8,0.2,0.9,0.1c0,0,0.1,0,0.1-0.1c0.2-0.3,0.4-0.5,0.6-0.7
		c0.1-0.1,0.3-0.3,0.4-0.4C184.3,144.3,184.6,143.5,184.7,142.6z"/>
</g>
</svg>
