<?xml version="1.0" encoding="utf-8"?>
<!-- Generator: Adobe Illustrator 22.1.0, SVG Export Plug-In . SVG Version: 6.00 Build 0)  -->
<svg version="1.1" id="Layer_1" xmlns="http://www.w3.org/2000/svg" xmlns:xlink="http://www.w3.org/1999/xlink" x="0px" y="0px"
	 viewBox="0 0 228.4 211" style="enable-background:new 0 0 228.4 211;" xml:space="preserve">
<g id="aquarius">
	<path d="M204.2,135.7l-0.9,0.7l-38.6-48.5l-21.4-40.2l-28.2,23.5l-4.2,30.7l-1.2-0.2l4.3-31.4L142.4,47l-17-5.3l-5.8-9.4l-7.4-5.8
		l-53.4,2.7l16.8,20l-9.2,27.3l-14,9L26,99.7l-0.6-1l26.3-14.2l13.4-8.6l9.1-26.5L57,29.3l-0.1-1.2l55.4-2.9l8.6,6.7l5.2,8.7
		l17.7,5.6l21.9,41L204.2,135.7z"/>
	<path d="M76.2,46.1c1.6,0.7,2.4,2.5,1.8,4.2c-0.7,1.6-2.5,2.4-4.2,1.8s-2.4-2.5-1.8-4.2C72.7,46.2,74.6,45.4,76.2,46.1z
		 M122.6,39.8c-0.7,1.6,0.1,3.5,1.8,4.2s3.5-0.1,4.2-1.8c0.7-1.6-0.1-3.5-1.8-4.2C125.2,37.4,123.3,38.2,122.6,39.8z M162.2,86.4
		c-0.7,1.6,0.1,3.5,1.8,4.2c1.6,0.7,3.5-0.1,4.2-1.8c0.7-1.6-0.1-3.5-1.8-4.2S162.9,84.7,162.2,86.4z M141,45.5
		c-0.7,1.6,0.1,3.5,1.8,4.2s3.5-0.1,4.2-1.8c0.7-1.6-0.1-3.5-1.8-4.2S141.6,43.9,141,45.5z M22.8,97.5c-0.7,1.6,0.1,3.5,1.8,4.2
		s3.5-0.1,4.2-1.8c0.7-1.6-0.1-3.5-1.8-4.2C25.3,95,23.5,95.8,22.8,97.5z M53.8,27.6c-0.7,1.6,0.1,3.5,1.8,4.2
		c1.6,0.7,3.5-0.1,4.2-1.8c0.7-1.6-0.1-3.5-1.8-4.2S54.4,25.9,53.8,27.6z M117.3,30.8c-0.7,1.6,0.1,3.5,1.8,4.2s3.5-0.1,4.2-1.8
		c0.7-1.6-0.1-3.5-1.8-4.2S118,29.1,117.3,30.8z M49.1,83.8c-0.7,1.6,0.1,3.5,1.8,4.2c1.6,0.7,3.5-0.1,4.2-1.8
		c0.7-1.6-0.1-3.5-1.8-4.2C51.7,81.4,49.8,82.2,49.1,83.8z M107.1,100.7c-0.7,1.6,0.1,3.5,1.8,4.2c1.6,0.7,3.5-0.1,4.2-1.8
		c0.7-1.6-0.1-3.5-1.8-4.2C109.6,98.2,107.7,99,107.1,100.7z M62.7,74.9c-0.7,1.6,0.1,3.5,1.8,4.2c1.6,0.7,3.5-0.1,4.2-1.8
		c0.7-1.6-0.1-3.5-1.8-4.2C65.2,72.4,63.4,73.2,62.7,74.9z M111.6,69.7c-0.7,1.6,0.1,3.5,1.8,4.2c1.6,0.7,3.5-0.1,4.2-1.8
		c0.7-1.6-0.1-3.5-1.8-4.2C114.2,67.2,112.3,68,111.6,69.7z M200.8,134.8c-0.7,1.6,0.1,3.5,1.8,4.2c1.6,0.7,3.5-0.1,4.2-1.8
		c0.7-1.6-0.1-3.5-1.8-4.2S201.5,133.2,200.8,134.8z M109.3,24.8c-0.7,1.6,0.1,3.5,1.8,4.2c1.6,0.7,3.5-0.1,4.2-1.8
		c0.7-1.6-0.1-3.5-1.8-4.2C111.8,22.4,109.9,23.1,109.3,24.8z"/>
	<path d="M24.4,112.6l-2.7,17.1h2.5l0.5-3.1H28l0.5,3.1h2.7l-2.7-17.1H24.4z M24.9,124.3l1.3-8.6l0,0l1.3,8.6H24.9z M39.7,128
		c0.3-0.6,0.5-1.4,0.5-2.4v-8.9c0-2.7-1.4-4.3-4.1-4.3S32,114,32,116.7v8.9c0,2.7,1.4,4.3,4.1,4.3c0.7,0,1.3-0.1,1.9-0.3
		c0.4,0.7,1.1,1.2,2.3,1.2h0.4v-2.4h-0.2C40,128.3,39.8,128.3,39.7,128z M37.5,125.8c0,1.2-0.5,1.7-1.4,1.7s-1.4-0.5-1.4-1.7v-9.2
		c0-1.2,0.5-1.7,1.4-1.7s1.4,0.5,1.4,1.7V125.8z M47.3,112.6h2.5v13c0,2.7-1.4,4.3-4,4.3s-4-1.6-4-4.3v-13h2.7v13.2
		c0,1.2,0.5,1.7,1.4,1.7s1.4-0.4,1.4-1.7V112.6z M53.7,112.6L51,129.7h2.5l0.5-3.1h3.3l0.5,3.1h2.7l-2.7-17.1H53.7z M54.2,124.3
		l1.3-8.6l0,0l1.3,8.6H54.2z M69.7,125c0-1.8-0.4-3.1-1.8-3.6l0,0c1.2-0.6,1.8-1.7,1.8-3.4v-1.3c0-2.6-1.2-3.9-4-3.9h-4.1v17.1h2.7
		v-7h0.9c1.2,0,1.8,0.6,1.8,2.2v2.7c0,1.4,0.1,1.7,0.2,2.1h2.7c-0.3-0.6-0.3-1.2-0.3-2.1L69.7,125L69.7,125z M67,118.5
		c0,1.4-0.6,1.8-1.6,1.8h-1.1V115h1.3c1,0,1.4,0.5,1.4,1.8L67,118.5L67,118.5z M71.4,112.6h2.7v17.1h-2.7V112.6z M81.4,112.6h2.5v13
		c0,2.7-1.4,4.3-4,4.3s-4-1.6-4-4.3v-13h2.7v13.2c0,1.2,0.5,1.7,1.4,1.7s1.4-0.4,1.4-1.7V112.6z M93.4,125.6c0,2.7-1.4,4.3-4,4.3
		s-4-1.6-4-4.3v-1h2.5v1.2c0,1.2,0.5,1.7,1.4,1.7s1.4-0.4,1.4-1.7c0-1.2-0.5-2.2-2.3-3.7c-2.2-2-3-3.4-3-5.3c0-2.7,1.3-4.3,4-4.3
		s4,1.6,4,4.3v0.5h-2.5v-0.7c0-1.2-0.5-1.7-1.3-1.7s-1.3,0.5-1.3,1.7s0.5,2.2,2.3,3.7C92.7,122.2,93.4,123.6,93.4,125.6z"/>
	<path d="M71.8,185.7c-0.2-0.1-0.5,0-0.7,0.1s-0.3,0.4-0.4,0.6c-0.5,0.9-1,2-1.5,2.9c-0.6,0.9-3.4-1.5-3.6-2.7
		c-0.4-1.3-1.5-8.3-1.7-10.4c-0.2-2.6-0.3-5.3-0.2-8c0.1-2.3,0.3-4.8,0.5-7.1c0.5-5.8,0.5-11.5,1.1-17.2c0.1-1.4-0.7-2.3-2-2.5
		c-0.9-0.1-1.9,0-2.8,0c-0.5,0.1-0.7,0.3-0.7,0.8c0,0.9-0.1,0.7-0.1,1.7c0,0.3-0.1,0.6-0.1,0.7c0-0.1-2-3.7-2.1-3.9
		c-2.1-3-5.6-4-9.3-3.5c-3,0.4-7.7,3.5-9.3,6c-0.9,1.2-5.9,9.4-6.9,12.5c-3.6,7.1-4.3,18.3-4.3,18.4c-0.3,2.4-0.3,4.9,0.4,7.4
		c0.3,1.2,2.7,8.6,4.3,10.4c1.2,1.5,3.9,2.4,5.8,2.8c3.5,0.9,7.2-0.5,9.6-3.7c5.3-7,6.7-15.5,7-16.4c0.5-2.2,1.1-4.6,1.6-6.8
		c0.7-2.8,2.3-10.2,2.4-10.6c0.5-1.1,0.6-0.6,0.6,0.1c-0.1,0.9-0.2,2.8-0.2,3c-0.1,2.6-0.3,5.3-0.4,7.9c-0.2,2.4,0.7,13.1,1.4,15.9
		c0.5,1.9,0.9,3.6,1.9,5.3c0.9,1.6,2.3,2.4,3.9,2.8c1.1,0.4,2.5,0.3,3.7-0.2c0.7-0.3,1.4-0.7,1.7-1.2c0.7-1.3,1.1-2.9,0.9-4.5
		C72.2,185.9,72,185.7,71.8,185.7z M58.2,150.6c-0.8,3.6-1.7,7.3-2.4,10.9c-0.7,2.6-1.3,5.3-2,7.9c-3.4,13.4-10.7,23.2-12.2,22.9
		c-8.2-1.7-8.6-10.1-8.8-11.2c-0.6-2.6-0.6-5.1-0.4-7.7c0.3-2.5,0.7-4.9,1.3-7.3c1.1-4.6,2.3-9,4.7-13.1c1.8-3.2,3.4-6.4,5.7-9.3
		c0.8-1,1.8-1.8,2.7-2.7c0.7-0.7,2.6-1.6,4.3-1.6c3.8-0.1,6.5,6.1,7.1,9.2C58.4,149.3,58.3,150,58.2,150.6z M144.3,166.5
		c-0.3-0.2,0.2-2.2,0.3-2.6c0.2-0.4,1.7-0.4,1.8,0.1c0,0,0.5,1.4,0.1,2.8c-0.2,0.1-0.4,0.2-0.7,0.2
		C145.3,166.9,144.8,166.7,144.3,166.5z M215.4,169.7c-0.6-1.6-3.2-1.3-2.8,1.2c0.2,1.8-0.1,3-2.8,4.3c-1.3,0.6-2.9,0.9-4.6,1.2
		c-1.5,0.2-3,0.3-4.5,0.3c-2.7,0.1-5.4,0-8.1,0c-0.4,0-5.4,0.2-6.7,0.4c-0.7,0.2-1.5,0.3-2.2,0.4c-0.9,0.2-1.9,0.5-2.7,0.9
		c-1.7,0.8-3.2,1.7-4.5,2.8c-0.1-0.3-0.4-1.4-0.5-1.5c-0.5-1.5-1-3-1.6-4.5c-0.4-1.1-0.8-2.1-1.3-3.1c-0.6-1.3-0.9-2.6-1-4.1
		c-0.1-1.2,0.2-2.3,0.8-3.3c0.6-1.1,1.7-1.1,2.2,0.1c0.7,1.4,1.1,4.3,0.7,6c-0.1,0.2-0.2,0.5,0.1,0.6c0.2,0.1,0.5,0,0.7-0.1
		s0.3-0.3,0.3-0.4c0.4-2.1,0.4-4.1-0.4-6c-0.5-1.2-1.4-1.8-2.7-1.9c-1.3-0.1-2.3,0.6-3,1.6c-0.8,1.4-1.1,3-0.9,4.7
		c0.1,1.2,0.6,2.3,0.9,3.4c0.2,0.6,0.4,1.3,0.6,1.9c-0.5,2.1-1,3.6-1.5,5.6c-0.5,1.8-1.2,2.7-1.8,4.5c-0.4,1.1-0.6,1.1-1.1,2.2
		c-0.5,1.1-1.6,2.3-2.1,0.9c-0.6-2-0.4-5.7-0.4-7.8c0-1,0.1-2.1,0.1-3.1c0.1-1.6,0.1-3.1,0.2-4.7c0.2-2,0.1-0.7,0.3-2.6
		c0.1-0.3,0-0.6-0.3-0.7c-0.4-0.3-0.8-0.8-1.4-0.8c-0.2,0-0.3-0.1-0.6-0.2c-0.2-0.1-0.4-0.2-0.6-0.2c-0.4,0-0.5,0-0.6,0.5
		c-0.1,0.7-0.2,1.4-0.3,2.1c-0.3,2.6-0.2,1.8-0.7,4.3c-0.3,1.6-0.6,3.1-1.1,4.6c-0.7,2.1-0.7,2.6-1.7,4.4c-0.9,1.6-1.4-0.3-1.5-1.1
		c-0.2-2.1-0.2-4.1-0.3-6.2c-0.1-1.3,0.2-3,0.4-4.5c0.1-0.6,0-0.6-0.5-0.9c-0.6-0.4-2.7-0.3-2.7,0.3c-0.1,3.7-0.4,2.9-0.3,5.9
		c-0.7,2.3-2,5.3-2.8,7.1c-0.2,0.4-1.7,2.5-2.6,1.6c-0.1-0.1-0.8-1.6-0.9-2.5c-0.2-1.2-0.4-2.3-0.4-3.5c-0.1-1.5-0.1-3,0.1-4.5
		s0.4-3,0.7-4.5c0.1-0.3-0.1-0.5-0.3-0.7c-0.5-0.3-2.8-0.6-3,0.3c-0.4,2.2-0.7,4.3-0.8,6.5c-0.6,1.7-1.2,3.4-1.9,5.1
		c-0.2,0.6-0.4,1.1-0.6,1.6c-0.6,1.3-2.6,6.3-3.2,7.4c-0.3,0.6-2,1.5-2.2,0c-0.3-1,0.2-4.4,0.3-5.4c0.1-1.2,0.8-6.5,0.8-7.6
		c-0.2-3-4.1-2.9-4.7-4.4c-0.1-0.3-0.1-0.5,0.1-0.8c1.1-1.8,2.6-5.2,2.7-6.9c0.1-0.6,0-1.2-0.5-1.4c-0.6-0.4-1.3-0.6-2.1-0.3
		c-1.6,0.6-2.5,1.7-3,3.2c-0.6,2-0.4,4.9,0.8,7c-0.3,0.9-0.6,1.8-0.8,2.7c-0.3,1.6-1.4,4.7-1.9,6.2c-0.5,1.3-1.1,2.6-1.7,3.8
		c-0.4,0.8-0.8,1.6-1.3,2.4c-0.5,0.9-1.8,1.2-2.2-0.2c-0.2-0.8-0.1-1.8-0.1-2.3c0.1-0.9,1.1-11.9,1.2-12.6c0.2-1,0.2-2.1,0.3-3.1
		c0.1-0.7-0.1-1.1-0.8-1.4c-0.7-0.3-1.3-0.4-2.1-0.3c-0.1,0-0.3,0.1-0.3,0.2c-0.2,0.6-0.3,1.1-0.5,1.7c-0.1,0.3-0.2,0.7-0.3,0.9
		c0,0.1-0.6-1.6-0.8-2c-0.5-0.8-1.7-1.2-2.6-0.9s-2,0.8-2.5,1.5c-1.2,1.6-2,3.3-2.5,5.2c-0.4,1-0.6,2.1-0.6,3.2
		c0,0.2-0.1,0.3-0.1,0.5c-0.5,1.8-1.2,2.7-1.8,4.5c-0.4,1.1-0.6,1.1-1.1,2.2c-0.5,1.1-1.6,2.3-2.1,0.9c-0.6-2-0.4-5.7-0.4-7.8
		c0-1,0.1-2.1,0.1-3.1c0.1-1.6,0.1-3.1,0.2-4.7c0.2-2,0.1-0.7,0.3-2.6c0.1-0.3,0-0.6-0.3-0.7c-0.4-0.3-1.8-0.9-2-0.9
		c-0.2-0.1-0.4-0.2-0.6-0.2c-0.4,0-0.5,0-0.6,0.5c-0.1,0.7-0.2,1.4-0.3,2.1c-0.3,2.6-0.2,1.8-0.7,4.3c-0.3,1.6-0.6,3.1-1.1,4.6
		c-0.7,2.1-0.7,2.6-1.7,4.4c-0.9,1.6-1.4-0.3-1.5-1.1c-0.2-2.1-0.2-4.1-0.3-6.2c-0.1-1.3,0.2-3,0.4-4.5c0.1-0.6-1.6-1.4-2.2-1.4
		s-1,0.2-1,0.9c-0.1,3.3-0.4,3-0.3,5.1c-0.1,0.3-0.3,0.5-0.5,0.7c-1,1.1-4.4,3.9-6.2,4c-0.4,0-0.5,0-0.5-0.3
		c0-1.1,0.8-11.4,0.8-11.7c0.1-0.4,0.1-0.8,0.1-1.3c0.1-0.4,0.1-0.7,0.1-1.1c0-0.5-0.5-0.8-1.1-0.9c-0.4-0.1-0.8-0.1-1.2-0.1
		c-0.4,0.1-0.6,0.2-0.6,0.5c-0.1,0.5-0.2,1-0.2,1.5c-0.1,0.7-0.2,1.3-0.3,2c-0.1,0.2-0.2,0.2-0.3,0.1c-0.6-2.2-3.5-3.1-5.9-1.6
		c-2.6,1.4-3.9,10.5-1.4,13c0.7,0.7,1.6,0.9,2.3,0.9c3.6-0.5,4.9-7.5,4.9-7.1c0,0.3-0.1,0.6-0.1,0.9c0,0.8,0,1.4-0.1,2.2
		c0,1.4-0.1,2.9,0,4.4c0.1,1.8,0,3.7,0.3,5.5c0.3,2.3,0.6,4.7,1.4,7c0.9,2.2,1.8,5.6,4.6,5.5c0.8,0,1.3-0.9,1.7-1.6
		c0.4-0.8,0.5-1.7,0.6-2.6c0.1-1.1,0.3-7.6-2.3-12c-0.1-0.2-0.2-0.3-0.3-0.5c-0.4-0.6-0.7-1.2-1.2-1.7c-0.3-0.2-0.2-0.3,0.1-0.4
		c3.4-1.6,3.2-1.6,5.2-3.4c0.1,2.7,0.1,7.9,4.5,7.5c1.6-0.2,2.6-3.2,3-4.7c0.3-1.7,1.2-5.1,1.2-4.9c-0.1,1.4-0.3,8.9,0.9,12
		c1,2.5,3.6,2.3,5,0.1c0.6-0.7,2.5-4.8,2.6-5.3v-0.1c0.2,0.8,0.6,1.4,1.3,2c1.6,1.3,3.4,0.7,4.5-0.6s3.1-7.1,3.4-8.1
		c0.3-0.7-1.9,13.2,1.9,15.5c1.6,0.9,3.3,0.1,4-1.3c2.8-3,5.2-13.7,5.3-14c0.2,0.2,0.4,0.3,0.6,0.5c1.1,0.7,2,0.9,1.9,2.5
		c-0.1,0.7-0.4,4.3-0.5,5.4c-0.1,1.7-0.2,3.3-0.2,5c-0.1,1.1,0.1,3.1,1.4,4.1c1.1,0.6,2.4,0.6,3.5-0.3c2.4-2.2,4.2-7.8,4.5-8.7
		c0.5-1.3,1.3-4.2,1.5-4.5c0,0.5,0.1,0.6,0.2,1.1c0.2,1.3,0.4,2.6,1.1,3.8c0.2,0.4,1.2,1.6,1.6,1.9c0.3,0.2,0.7,0.4,1.1,0.6
		c1.9,0.3,2.7-0.3,3.7-1.4c0.2-0.4,2.2-5.1,2.4-5.8c0.2,2.7,1,5.8,4.4,5.5c1.6-0.2,2.6-3.2,3-4.7c0.3-1.7,0.7-3.3,1-5
		c0-0.2,0.1-0.4,0.1-0.6c0.1-0.1,0.1-0.2,0.1-0.2c0,0.1,0.1,0.1,0.1,0.2c0,0.2,0,0.4,0,0.6c-0.1,1.4-0.3,8.9,0.9,12
		c1,2.5,3.6,2.3,5,0.1c0.6-0.7,2.5-4.8,2.6-5.3c0.2-0.8,0.6-1.6,0.8-2.4c0.2-1.1,0.7-2.5,1-3.9c0.4,1.1,0.7,2.1,1.1,3.2
		c0.3,1,0.6,2,0.9,3c0,0,0.1,0.5,0.2,1.1c-0.3,0.4-0.7,0.8-0.9,1.3c-0.2,0.3-0.5,0.8-0.6,0.9c-0.9,1.7-1.7,3.5-2,5.3
		c-0.2,1.1-0.2,2.2,0.2,3.3c1,3,4.5,2.5,6,0.1c0.6-0.8,0.9-1.8,0.9-2.8c0-1.2,0.1-2.5-0.1-3.6c-0.1-1.4-0.3-2.9-0.6-4.3
		c-0.1-0.3-0.3-1.2-0.3-1.3c0.8-0.8,1.7-1.4,2.2-1.8c2.1-1.4,4.7-1.8,7.4-2.3c0.7-0.1,4.7-0.2,5.7-0.2c1.9,0,3.7,0,5.6,0
		c2,0,7.9-0.7,9.8-1.1C211.5,176.1,216.5,173.4,215.4,169.7z M82.2,172.6c-0.2,0.9-3,8.5-4.3,7c-0.4-0.5-0.4-0.6-0.6-1.2
		c-0.1-0.3-0.1-0.6-0.1-0.9c-0.2-1.8,0.7-8.6,3.2-8.7c1.2,0,1.7,1.7,1.7,1.7C82.5,171.3,82.4,171.9,82.2,172.6z M87,184
		c0.2,0.3,0.3,0.6,0.5,0.9c0.6,1,0.7,2.1,0.9,3.2c0.2,0.8,0.3,1.6,0.5,2.5c0.2,1,0.4,2,0.6,3.1c0.1,1.3,0.2,2.7-0.2,4
		c-0.1,0.4-0.2,0.8-0.4,1.3c-0.2,0.3-0.4,0.3-0.6,0s-0.4-0.6-0.6-0.9c-0.5-1.3-1-2.7-1.4-4c-0.3-1.3-0.5-2.7-0.8-4.1
		c-0.1-0.8-0.2-1.7-0.3-2.6c-0.1-1.2-0.2-2.4-0.2-3.6c0-0.3,0-0.6-0.1-0.9c0-0.2,0-0.4,0.1-0.6c0.1-0.2,0.2-0.2,0.3-0.1
		c0.1,0.1,0.2,0.2,0.3,0.2C86.2,182.8,86.6,183.4,87,184z M117.6,176.3c-0.3,0.9-0.6,1.7-0.9,2.6c-0.4,1.4-1.1,2.8-1.9,4
		c-0.3,0.4-0.8,0.9-1.2,1.3c-0.3,0.2-0.4,0.2-0.7-0.1c-0.1-0.1-0.2-0.2-0.3-0.3c-0.2-0.4-0.4-1.8-0.3-2.2c0-0.2,0-0.5-0.1-0.8
		c-0.2-1.1,0.2-2.2,0.5-3.2s0.5-2,0.9-2.9c0.3-0.7,0.7-1.4,1.2-2.2c0.4-0.6,0.8-1.2,1.3-1.8c0.2-0.3,0.4-0.3,0.7,0
		c0.2,0.4,0.4,0.7,0.6,1.2c0.1,0.8,0.3,1.5,0.2,2.3c-0.1,0.3,0,0.4,0.4,0.4l0.1,0.2C117.9,175.3,117.7,175.8,117.6,176.3z
		 M130.7,172.3c-0.4-0.6-0.6-2.5-0.3-4.3c0.1-0.7,1.3-3.1,2-2.8c0.3,0.1,0.5,0.4,0.5,0.7c0,2.3-1.1,4.2-2,6.2
		C130.8,172.2,130.8,172.3,130.7,172.3z M161.7,174.9L161.7,174.9L161.7,174.9L161.7,174.9z M173.6,195.3c-0.7,0.6-1.3-1.2-1.4-1.6
		c-0.3-1,0.1-2.9,0.2-3.9c0.2-0.9,0.5-1.8,0.9-2.7c0.4-0.7,0.6-1.4,1.1-2c0.1,0.6,0.2,1,0.2,1.1c0.1,1.2,0.3,2.3,0.4,3.6
		c0.1,0.7,0,1.5,0.1,2.3C175,193.4,174.5,194.4,173.6,195.3z"/>
</g>
</svg>
