<?xml version="1.0" encoding="utf-8"?>
<!-- Generator: Adobe Illustrator 22.1.0, SVG Export Plug-In . SVG Version: 6.00 Build 0)  -->
<svg version="1.1" id="Layer_1" xmlns="http://www.w3.org/2000/svg" xmlns:xlink="http://www.w3.org/1999/xlink" x="0px" y="0px"
	 viewBox="0 0 199.6 171.1" style="enable-background:new 0 0 199.6 171.1;" xml:space="preserve">
<g id="aries">
	<path d="M177.3,150.1l-1-0.7l7.4-10.7l-3.9-33.8l-37.6-85.8l-82.6,9.3l-0.1-1.2l83.4-9.3l38.2,86.6l0,0l3.9,34.3L177.3,150.1z"/>
	<path d="M185.2,142c-1.7,0.4-3.5-0.6-3.9-2.3s0.6-3.5,2.3-3.9s3.5,0.6,3.9,2.3S186.9,141.5,185.2,142z M141.7,15.4
		c-1.7,0.4-2.7,2.2-2.3,3.9s2.2,2.7,3.9,2.3s2.7-2.2,2.3-3.9C145.2,16,143.4,14.9,141.7,15.4z M177.8,146.8
		c-1.6-0.7-3.5,0.1-4.2,1.8c-0.7,1.6,0.1,3.5,1.8,4.2c1.6,0.7,3.5-0.1,4.2-1.8C180.2,149.4,179.4,147.5,177.8,146.8z M183.5,105.2
		c0.7-1.6-0.1-3.5-1.8-4.2s-3.5,0.1-4.2,1.8c-0.7,1.6,0.1,3.5,1.8,4.2S182.8,106.9,183.5,105.2z M60.7,24.8
		c-1.6-0.7-3.5,0.1-4.2,1.8c-0.7,1.6,0.1,3.5,1.8,4.2c1.6,0.7,3.5-0.1,4.2-1.8S62.4,25.5,60.7,24.8z"/>
	<path d="M70.3,68.4l-2.7,17.1h2.5l0.5-3.1h3.3l0.5,3.1h2.7l-2.7-17.1H70.3z M70.8,80.1l1.3-8.6l0,0l1.3,8.6H70.8z M86.3,80.8
		c0-1.8-0.4-3.1-1.8-3.6l0,0c1.2-0.6,1.8-1.7,1.8-3.4v-1.3c0-2.6-1.2-3.9-4-3.9h-4.1v17.1h2.7v-7h0.9c1.2,0,1.8,0.6,1.8,2.2v2.7
		c0,1.4,0.1,1.7,0.2,2.1h2.7c-0.3-0.6-0.3-1.2-0.3-2.1L86.3,80.8L86.3,80.8z M83.6,74.3c0,1.4-0.6,1.8-1.6,1.8h-1.1v-5.3h1.3
		c1,0,1.4,0.5,1.4,1.8L83.6,74.3L83.6,74.3z M88,68.4h2.7v17.1H88V68.4z M92.7,68.4h7.3v2.4h-4.6v4.8h3.7V78h-3.7v5h4.6v2.4h-7.3
		V68.4z M109.3,81.4c0,2.7-1.4,4.3-4,4.3s-4-1.6-4-4.3v-1h2.5v1.2c0,1.2,0.5,1.7,1.4,1.7s1.4-0.4,1.4-1.7c0-1.2-0.5-2.2-2.3-3.7
		c-2.2-2-3-3.4-3-5.3c0-2.7,1.3-4.3,4-4.3s4,1.6,4,4.3v0.5h-2.5v-0.7c0-1.2-0.5-1.7-1.3-1.7c-0.9,0-1.3,0.5-1.3,1.7s0.5,2.2,2.3,3.7
		C108.6,78,109.3,79.4,109.3,81.4z"/>
	<path d="M59.3,133c-0.2-0.1-0.5,0-0.7,0.1s-0.3,0.4-0.4,0.6c-0.5,1-1.1,2.1-1.6,3.1c-0.6,1-0.9,1.1-1.8,0.4c-1.1-0.9-1.8-2-2.1-3.3
		c-0.4-1.4-0.6-2.9-0.9-4.3c-0.5-2.3-0.7-4.6-0.9-6.8c-0.2-2.8-0.3-5.6-0.2-8.5c0.1-2.5,0.3-5.1,0.5-7.5c0.5-6.1,0.5-12.2,1.2-18.3
		c0.1-1.5-0.8-2.5-2.2-2.7c-1-0.1-2,0-3,0c-0.5,0.1-0.8,0.3-0.8,0.9c0,1-0.1,0.7-0.1,1.8c0,0.3-0.1,0.6-0.1,0.8c0-0.1-2.1-4-2.3-4.2
		c-2.3-3.2-5.9-4.3-9.9-3.8c-3.2,0.4-9.5,5.4-12.6,10.4c-1.8,2.9-3.6,5.9-4.7,9.2c-5.6,11.3-4.9,24.8-4.2,27.3
		c0.3,1.3,0.5,6.4,4.6,11.1c1.3,1.6,4.2,2.6,6.1,3c3.8,1,7.6-0.5,10.2-4c2.1-3.5,3.1-4.6,4.4-8.4c0.3-0.6,4.3-13.9,4.8-16.3
		c0.7-3,2-8.8,2-8.9c0.2-1.3,0.5-2,0.6-2.4c0.5-1.2,0.6-0.6,0.6,0.1c-0.1,1-0.2,3-0.2,3.2c-0.1,2.8-0.3,5.6-0.4,8.4
		c-0.2,2.6,0.1,5.2,0.3,7.6c0.2,3.2,0.4,6.3,1.2,9.3c0.5,2,1,3.9,2,5.6c1,1.7,2.5,2.6,4.2,3c1.2,0.4,2.7,0.3,4-0.2
		c0.7-0.3,1.5-0.7,1.8-1.3c0.8-1.4,1.2-3.1,1-4.8C59.7,133.3,59.5,133,59.3,133z M44.8,95.8c-0.9,3.9-1.8,7.7-2.6,11.6
		c-0.7,2.8-1.4,5.6-2.1,8.4c-0.7,2.9-4.8,15-5.9,17.4c-1.1,1.8-5.5,7.1-7.1,7c-5.9-0.5-7.1-3.5-7.9-6c-0.6-1.7-1.3-5.6-1.4-5.8
		c-0.6-2.8-0.6-5.5-0.4-8.2c0.3-2.7,0.7-5.3,1.4-7.7c1.2-4.9,2.5-9.6,5-14c1.9-3.4,3.7-6.8,6-9.9c0.9-1.1,1.9-1.9,2.9-2.9
		c0.7-0.8,2.8-1.7,4.6-1.7c4.1-0.1,6.9,6.4,7.5,9.8C45,94.4,44.9,95.1,44.8,95.8z M78.8,112.6c-0.3-0.2,0.2-2.4,0.4-2.7
		c0.2-0.5,1.8-0.4,2,0.1c0,0,0.5,1.5,0.1,3c-0.2,0.1-0.5,0.2-0.7,0.2C79.9,113.1,79.3,112.9,78.8,112.6z M148.8,116
		c-0.7-1.7-3.4-1.4-3,1.2c0.2,1.9-0.1,3.2-3,4.6c-1.4,0.7-3.1,0.9-4.9,1.3c-1.6,0.2-3.2,0.4-4.7,0.4c-2.9,0.1-5.7,0-8.7,0
		c-0.4,0-6.2,0.2-9.5,0.9c-1,0.2-2,0.5-2.9,0.9c-1.8,0.8-3.4,1.8-4.8,3c-0.1-0.3-0.2-0.7-0.4-1.2c0-0.1-0.1-0.2-0.1-0.4
		c-0.5-1.6-1.1-3.2-1.7-4.7c-0.4-1.1-0.9-2.3-1.4-3.3c-0.6-1.4-1-2.8-1.1-4.3c-0.1-1.2,0.2-2.4,0.8-3.6c0.7-1.2,1.8-1.2,2.4,0.1
		c0.8,1.5,1.2,4.6,0.8,6.4c-0.1,0.2-0.2,0.5,0.1,0.7c0.2,0.1,0.5,0,0.7-0.1s0.3-0.3,0.3-0.5c0.5-2.3,0.5-4.3-0.5-6.4
		c-0.5-1.2-1.5-1.9-2.8-2c-1.4-0.1-2.5,0.6-3.2,1.7c-0.9,1.5-1.1,3.2-0.9,5c0.1,1.2,0.6,2.4,1,3.6c0.2,0.7,0.4,1.3,0.7,2
		c0.1,1.7-3.5,9.3-4.8,10.8c-0.5,0.6-1.3,1-2.1,1.2c-0.9,0.4-2.7-0.8-3.1-1.7c-0.5-1-1.1-3.3-0.8-4.7c0.1-0.4,0-0.7,0.4-0.9
		c0.8-0.5,3-3,3.4-3.7c1.6-3.2,1-5,1-5.2c-0.1-2.4-2.7-2.1-4.1-1.4c-1.4,0.7-2.1,1.5-2.7,2.8c-0.7,1.5-1.2,3.7-1.4,6.1
		c-0.8,2.4-2,5.3-2.8,7.1c-0.2,0.5-1.8,2.7-2.7,1.7c-1.3-1.6-1.5-9.5-1.4-11.1c0.2-1.6,0.5-3.1,0.7-4.7c0.1-0.3-0.1-0.5-0.3-0.7
		c-0.5-0.4-1.1-0.5-1.7-0.6c-1.1-0.1-1.4,0-1.5,0.9c-0.4,2.3-0.7,4.6-0.8,6.9c-0.7,1.8-6.8,17.3-8.3,15.8c-0.3-1.1,0.1-5.4,0.1-6.5
		c0.1-1.2,0.4-2.4,0.5-3.7c0.2-2,0.4-3.2,0.4-4.4c-0.2-3.1-4.4-3.1-5-4.7c-0.1-0.4-0.1-0.5,0.1-0.8c1.1-1.9,2.7-5.5,2.8-7.3
		c0.1-0.6,0-1.2-0.5-1.5c-0.7-0.5-1.4-0.7-2.3-0.4c-1.7,0.6-2.7,1.8-3.1,3.4c-0.8,2.8-0.2,7.4,2.6,9.3c1.1,0.7,2.1,0.9,2,2.7
		c-0.1,0.8-0.1,1-0.2,2.4c-0.1,1.1-0.2,2.2-0.3,3.3c-0.1,1.8-0.2,3.6-0.2,5.3c-0.1,1.2,0.1,2.4,0.7,3.3c0.2,0.4,0.5,0.8,0.8,1
		c1.2,0.7,2.7,0.8,3.7-0.4c3.8-4.5,6.2-13.6,6.4-14c0.1,0.5,0.1,0.6,0.2,1.1c0.2,1.4,0.5,2.7,1.1,4c0.2,0.4,1.2,1.7,1.7,2
		c0.4,0.2,0.8,0.5,1.1,0.6c2,0.4,2.9-0.3,4-1.5c0.2-0.4,0.5-0.8,0.7-1.3c0.4-1,1-2,1.2-3c0.1-0.3,0.2-0.7,0.4-1.2
		c0.3,2.2,1,4.2,2.5,5.3c1.2,0.9,1.9,1.5,3.3,1.7c2,0.2,4.1-0.9,5.2-2.4c0.5-0.8,3.4-6.5,4.1-8.5c0.4,1.1,0.6,1.8,0.9,2.9
		c0.4,1.1,0.7,2.1,0.9,3.2c0,0,0.1,0.5,0.2,1.2c-0.3,0.5-0.8,0.9-1,1.4c-0.2,0.4-0.5,0.8-0.7,1c-1,1.8-1.8,3.7-2.1,5.7
		c-0.2,1.2-0.2,2.4,0.2,3.6c1.1,3.1,4.9,2.8,6.5,0.2c0.7-0.9,1-2.2,1-3.3c0-1.3-0.6-6.8-1-8.3c-0.1-0.4-0.2-0.8-0.2-1.1
		c-0.1-0.1-0.1-0.2-0.1-0.2c0.9-0.9,1.8-1.5,2.3-1.9c2.3-1.5,5-2,7.9-2.5c0.7-0.1,5-0.2,6-0.2c2,0,4,0,5.9,0c2.1,0,8.4-0.7,10.4-1.2
		C144.7,122.9,150,120,148.8,116z M91.1,123.7c0.4-2.1,0.5-2.8,1.4-4.9c0.1-0.2,1.2-2,1.4-2.2s0.7-0.4,0.8,0.1
		c0.5,3-0.7,5.4-2.7,7.4c-0.3,0.2-0.6,0.5-0.8,0.7C91.1,124.5,91,124.1,91.1,123.7z M64.3,118.8c-0.4-0.6-0.7-2.6-0.4-4.6
		c0.1-0.8,1.4-3.3,2.1-3c0.4,0.1,0.5,0.4,0.5,0.8c0,2.5-1.1,4.4-2.1,6.6C64.4,118.7,64.4,118.8,64.3,118.8z M104.4,143.3
		c-0.7,0.7-1.4-1.2-1.5-1.7c-0.3-1.1,0.1-3.1,0.2-4.1c0.2-0.9,0.5-1.9,0.9-2.8c0.5-0.7,0.6-1.5,1.1-2.1c0.1,0.6,0.2,1.1,0.2,1.1
		c0.1,1.2,0.3,2.5,0.4,3.8c0.1,0.8,0,1.6,0.1,2.4C105.9,141.2,105.3,142.4,104.4,143.3z"/>
</g>
</svg>
