<?xml version="1.0" encoding="utf-8"?>
<!-- Generator: Adobe Illustrator 22.1.0, SVG Export Plug-In . SVG Version: 6.00 Build 0)  -->
<svg version="1.1" id="Layer_1" xmlns="http://www.w3.org/2000/svg" xmlns:xlink="http://www.w3.org/1999/xlink" x="0px" y="0px"
	 viewBox="0 0 240.6 240.5" style="enable-background:new 0 0 240.6 240.5;" xml:space="preserve">
<g id="virgo">
	<path d="M227.2,133.1l-27.5-16.9l-23.1-31.6l-16.8-58.3l-1.1,0.3l16.7,58.1l-28.7,14.1l-44.9,4.6l0.1,1.2l44-4.6l18.7,41.4
		l-13.9,28.8l-5.1,48.9l1.2,0.1l5-48.5l13.9-28.9l60.6-7.6l-2.3,47.9l-30.2,7.5l-1.2,19l-9.2,14.8l1,0.6l9.4-15.2l1.3-18.4l29.9-7.5
		l0.2-0.5l2.3-49L227.2,133.1z M165.6,140.7L165.6,140.7l-18.4-40.8l28.9-14.2l22.7,31l26.5,16.4L165.6,140.7z"/>
	<path d="M185.1,220.9c1.6,0.7,2.4,2.5,1.8,4.2c-0.7,1.6-2.5,2.4-4.2,1.8c-1.6-0.7-2.4-2.5-1.8-4.2S183.4,220.3,185.1,220.9z
		 M148.3,169.4c-0.7,1.6,0.1,3.5,1.8,4.2c1.6,0.7,3.5-0.1,4.2-1.8s-0.1-3.5-1.8-4.2C150.9,167,149,167.8,148.3,169.4z M98.6,102.9
		c-0.7,1.6,0.1,3.5,1.8,4.2c1.6,0.7,3.5-0.1,4.2-1.8s-0.1-3.5-1.8-4.2C101.1,100.5,99.3,101.2,98.6,102.9z M162.3,140.1
		c-0.7,1.6,0.1,3.5,1.8,4.2c1.6,0.7,3.5-0.1,4.2-1.8s-0.1-3.5-1.8-4.2C164.8,137.7,163,138.4,162.3,140.1z M143.3,98.2
		c-0.7,1.6,0.1,3.5,1.8,4.2c1.6,0.7,3.5-0.1,4.2-1.8c0.7-1.6-0.1-3.5-1.8-4.2C145.8,95.8,144,96.6,143.3,98.2z M156.9,25.7
		c-0.7,1.6,0.1,3.5,1.8,4.2c1.6,0.7,3.5-0.1,4.2-1.8s-0.1-3.5-1.8-4.2C159.4,23.3,157.5,24.1,156.9,25.7z M173.2,83.9
		c-0.7,1.6,0.1,3.5,1.8,4.2c1.6,0.7,3.5-0.1,4.2-1.8s-0.1-3.5-1.8-4.2C175.7,81.5,173.8,82.2,173.2,83.9z M190.2,207.6
		c-0.7,1.6,0.1,3.5,1.8,4.2c1.6,0.7,3.5-0.1,4.2-1.8s-0.1-3.5-1.8-4.2C192.8,205.2,190.9,206,190.2,207.6z M221.6,181.3
		c-0.7,1.6,0.1,3.5,1.8,4.2c1.6,0.7,3.5-0.1,4.2-1.8c0.7-1.6-0.1-3.5-1.8-4.2C224.2,178.9,222.3,179.6,221.6,181.3z M195.7,114.9
		c-0.7,1.6,0.1,3.5,1.8,4.2c1.6,0.7,3.5-0.1,4.2-1.8s-0.1-3.5-1.8-4.2C198.2,112.5,196.3,113.3,195.7,114.9z M143.3,218.1
		c-0.7,1.6,0.1,3.5,1.8,4.2c1.6,0.7,3.5-0.1,4.2-1.8c0.7-1.6-0.1-3.5-1.8-4.2S144,216.4,143.3,218.1z M191,189.4
		c-0.7,1.6,0.1,3.5,1.8,4.2s3.5-0.1,4.2-1.8s-0.1-3.5-1.8-4.2C193.5,187,191.7,187.8,191,189.4z M224,132.1
		c-0.7,1.6,0.1,3.5,1.8,4.2c1.6,0.7,3.5-0.1,4.2-1.8s-0.1-3.5-1.8-4.2S224.6,130.4,224,132.1z"/>
	<path d="M85.4,121.1h2.5l-2.6,17.1h-4l-2.7-17.1h2.7l2,13.9l0,0L85.4,121.1z M89.1,138.2h2.7v-17.1h-2.7V138.2z M101.8,136.1
		c0,0.8,0,1.4,0.3,2.1h-2.7c-0.1-0.4-0.2-0.7-0.2-2.1v-2.7c0-1.6-0.5-2.2-1.8-2.2h-0.9v7h-2.7v-17.1h4.1c2.8,0,4,1.3,4,3.9v1.3
		c0,1.8-0.6,2.9-1.8,3.4l0,0c1.3,0.6,1.8,1.8,1.8,3.6v2.8H101.8z M99.1,125.3c0-1.2-0.4-1.8-1.4-1.8h-1.3v5.3h1.1
		c1,0,1.6-0.4,1.6-1.8C99.1,127,99.1,125.3,99.1,125.3z M107.3,120.9c-2.6,0-4,1.6-4,4.3v8.9c0,2.7,1.4,4.3,4,4.3s4-1.6,4-4.3v-5.4
		h-3.7v2.4h1.2v3.2c0,1.2-0.5,1.7-1.4,1.7s-1.4-0.4-1.4-1.7v-9.2c0-1.2,0.5-1.7,1.4-1.7s1.4,0.5,1.4,1.7v1.8h2.5v-1.7
		C111.4,122.5,110,120.9,107.3,120.9z M121,125.2v8.9c0,2.7-1.4,4.3-4.1,4.3s-4.1-1.6-4.1-4.3v-8.9c0-2.7,1.4-4.3,4.1-4.3
		S121,122.5,121,125.2z M118.3,125.1c0-1.2-0.5-1.7-1.4-1.7s-1.4,0.5-1.4,1.7v9.2c0,1.2,0.5,1.7,1.4,1.7s1.4-0.5,1.4-1.7V125.1z"/>
	<path d="M67.3,151.3c-4.1,4.9-4.9,10-6.7,14.9c-0.7,2-4.5,13.6-4.9,14.9c-0.1,0.2-3.5,13-3.8,14c-0.5,1.7-0.7,2.9-1.2,5.2
		c-0.1,0.5-0.5,3.5-0.6,4.5c-0.1,0.9-1.2,2.6-1.4,2.7c-2.7,1.8-3.3-3.7-3.4-4.1c-0.2-0.8-0.6-3.2-0.7-3.4c-0.2-0.7-0.3-1.5-0.4-2.2
		c0-0.1-1-6.3-1.3-7.4c-0.3-1.1-0.6-2.3-0.8-3.5c-0.3-1.9-0.7-3.8-1-5.8c-0.3-1.8-0.6-3.8-0.8-5.7c-0.2-1-0.2-2-0.4-3
		s-0.5-2.7-0.7-3.6c-0.3-1.8-0.7-3.4-1.1-5.2c-0.2-0.7-1.9-7.6-3.1-10.3c-0.9-1.9-2.2-3.4-3.9-4.9c-1-0.8-4.7-0.7-5.6-0.6
		c-1.1,0.2-2.5,0.4-3.5,1c-5.3,2.8-7.9,8-8.2,8.5c-1.7,4.1-1.4,10.2-1.3,11.5c0,0.5,1,1.3,1.4,1.5c0.7,0.3,0.9,1.7-0.3,2.3
		c-0.5,0.4-1.5-0.2-1.7-0.7c-0.5-1.4-0.8-2.9-0.8-4.2c0.1-1.6-0.5-5.6,1.1-9.9c1-2.8,2.8-5.2,5.2-7.2c1.2-1.1,2.5-2.2,4-2.8
		c0.9-0.4,3.7-1.5,7.8-1.3c3.2,0.2,6.9,3.1,8.1,4.8c0.8,1,1.4,2.2,1.8,3.5c0.1,0.1,0.9,2.7,1.4,4c0.2,0.7,1.3,5.2,1.4,6.5
		c0.2,1,1.2,6.9,1.4,8.7c0.3,2.2,0.6,4.2,1,6.3c0.2,1.3,0.4,2.5,0.6,3.7c0.3,1.4,0.5,2.7,0.8,4.1c0.1,0.4,0.2,0.8,0.3,1.2
		c0.3,1.1,0.8,4.8,0.9,5.6c0.2,0.9,0.4,1.9,0.6,2.7c0.1,1.1,0.3,2.3,0.5,3.4c0.1,0.4,0.4,3.5,0.4,3.6c0.1-0.1,0.2-0.2,0.2-0.3
		c0.1-0.6,0.2-1.3,0.3-2c0.6-3.8,1.4-7.6,2.4-11.4c0.4-1.3,2.4-8.2,2.7-9.6c0.3-1,0.7-1.9,1-2.9c0.5-1.4,0.8-2.7,1.3-4.1
		c1.7-5.3,6.5-21.4,10.4-25c0.4-0.4,0.8-0.8,1.2-1.2c0.9-1,2.2,0.2,1.4,1C68.6,150.1,68,150.4,67.3,151.3z M135.7,179.8
		c-1.7,0.4-7,1-8.8,1c-1.7,0-3.3,0-5.1,0c-0.9,0-4.5,0.1-5.2,0.2c-2.5,0.5-4.8,0.8-6.7,2.1c-0.6,0.4-1.5,1.1-2.5,2.1
		c0,0-0.3,0.3-0.4,0.4c-0.5,0.5-1,1.1-1.4,1.7c-0.4,0.7-1.6,0.3-0.6-0.9c0.1-0.1,0.2-0.3,0.3-0.4c-1.1-0.1-2.2-0.6-3-1.4
		c-1-1-1.5-2.1-1.6-3.2c-0.2-1.4,0-2.6,0.3-3.8c-0.4,0.2-0.8,0.5-1.1,0.7c-0.8,0.5-1.5,1.1-2.2,1.6c-0.2,0.2-0.4,0.4-0.6,0.5
		c-0.3,0.3-0.4,0.6-0.4,1c-0.1,1.6-0.6,10.8-0.6,11.7c-0.1,3.2-0.9,4.6-1.1,5.2c-0.7,2.3-3.6,2.9-4.2,1c-1-2.8-0.6-4.1-0.6-4.9
		c0.1-1.4,0.4-2.7,0.8-4c0.2-0.8,0.4-1.6,0.7-2.4c0.7-1.6,1.3-3.1,2.2-4.6c0.2-0.4,0.3-0.8,0.3-1.1c0-1.3,0.1-2.5-0.1-3.7
		c-0.1-1.5-0.5-4.6-0.5-4.6l-0.1-0.1c-0.1,0-0.7,1.5-0.9,2.1c-0.3,0.7-0.5,1.4-0.7,2.1c-0.4,0.9-2.2,5.4-2.7,6
		c-0.3,0.3-0.5,0.6-0.9,0.8c-0.9,0.6-2.1,0.4-3-0.3c-0.6-0.5-0.6-0.7-0.6-1.3c0,0.3-3.9,10.3-5.3,11.2c-1.1,0.7-2.1,0.9-3.1,0.3
		c-0.3-0.2-0.6-0.5-0.7-0.9c-0.5-0.8-0.7-1.8-0.6-2.8c0-1.5,0.1-3,0.2-4.5c0.1-1,0.2-1.9,0.3-2.8c0.2-1.2,0.2-1.4,0.2-2.1
		c0.1-1.5-0.8-1.7-1.7-2.3c-0.3-0.2-0.5-0.4-0.8-0.7c0,0-1.4,4.3-1.8,5.5c-0.2,0.9-1.5,3.3-1.7,3.7c-0.9,1.1-1.7,1.6-3.4,1.3
		c-0.3-0.1-0.7-0.3-1-0.5c-0.4-0.3-1.2-1.4-1.4-1.7c-0.6-1.1-0.8-2.3-1-3.4c-0.2-0.9-0.2-1.8-0.3-2.7c0-2.3,0.3-4.5,0.7-6.7
		c0.2-0.8,0.4-0.9,1.3-0.8c0.5,0.1,1,0.2,1.4,0.5c0.2,0.2,0.3,0.4,0.3,0.6c-0.2,1.4-0.5,2.7-0.6,4c-0.2,1.3-0.2,2.7-0.1,4
		c0.1,1.1,0.2,2.1,0.4,3.1c0.1,0.9,0.8,2.2,0.8,2.3c0.8,0.8,2.1-1.1,2.3-1.5c0.9-2,3-8.5,3.1-8.8v-0.1c-1-1.9-1.2-4.4-0.6-6.1
		c0.4-1.4,1.3-2.4,2.7-2.9c0.7-0.3,1.4-0.1,1.9,0.3c0.5,0.3,0.5,0.8,0.5,1.3c-0.1,1.6-1.5,4.6-2.4,6.3c-0.2,0.3-0.2,0.4-0.1,0.7
		c0.5,1.4,4.1,1.3,4.2,4c0.1,1-0.7,5.8-0.7,6.9c-0.1,0.9-0.4,4.6-0.1,5.5c0.8,0.9,2.9-2.7,3.2-3.8c0.8-1.6,1.9-4.5,2.1-5
		c0.6-1.4,1-2.7,1.5-4.1c0.2-1.7,0.8-3.4,1.7-5c0.4-0.7,0.9-1.3,1.6-1.9c1.4-1.1,2.2,0,2.3,0.2c0.4,0.7,0.8,3.6,0.9,3.7
		c0.1-0.1,2.4-5.8,2.6-7.7c0-0.2,0.9-0.4,1.6-0.2c0.3,0.1,0.5,0.7,0.5,1c0.1,0.7,0.4,3.4,0.5,4.1c0.1,0.5,0.1,1.5,0.2,1.9
		c0.1,0.9,0.1,2,0.2,2.9c0,0.1,0.3,0.1,0.4-0.1c0.5-0.4,1-0.8,1.6-1.1c0.4-0.3,0.7-0.5,1.1-0.7c0.5-0.3,1.6-0.8,1.6-0.8
		c0-0.1,0.1-0.3,0.1-0.4c0.1-0.5,0.4-0.9,0.7-1.2c0.4-0.6,1.5-0.6,2.2-0.1c0.1,0.1,0.4,0.3,0.5,0.3c0-0.1,0-0.1-0.1-0.2
		c-0.1-0.3-0.2-0.5-0.3-0.8c-0.4-0.7-0.4-1.5-0.5-2.2c-0.1-0.9-0.3-1.7-0.2-2.5c0.1-1.2,0.3-2.3,1.5-2.9c0.6-0.4,1.7-0.2,2.5,0.2
		c2.5,1.1,2.7,8.6,2.3,10.5c-0.3,1.5-0.3,2.3-0.8,3.9c-0.1,0.3-0.2,0.6-0.3,0.8c0.8-0.5,1.6-1,2.5-1.4c0.8-0.4,1.7-0.6,2.5-0.8
		c0.7-0.2,1.4-0.3,2-0.4c1.3-0.3,5.7-0.4,6.1-0.4c2.4,0,4.9,0.1,7.4,0c1.3,0,2.7-0.1,4-0.3c1.6-0.3,3-0.6,4.2-1.1
		c2.5-1.2,2.8-2.3,2.5-3.9c-0.3-2.3,2-2.5,2.6-1.1C144.1,176.2,139.6,178.7,135.7,179.8z M74.1,175.2c0.8-1.9,1.8-3.5,1.8-5.7
		c0-0.3-0.2-0.6-0.5-0.7c-0.6-0.3-1.7,1.9-1.8,2.5c-0.3,1.7-0.1,3.4,0.3,3.9C74,175.2,74.1,175.2,74.1,175.2z M90.5,178.6
		c-0.2-0.6-0.3-1.3-0.2-1.9c0.1-0.8-0.2-1.7-0.6-2.4c-0.1-0.2-0.1-0.3-0.2-0.4c-0.1-0.1-0.1-0.1-0.2,0c-0.2,0.4-0.4,0.7-0.6,1
		c-0.7,1.1-1.8,4.9-1.8,6.1c0.1,0.8,0.1,1.6,0.1,2.3c0,0.3,0.1,0.5,0.2,0.7c0.5-0.1,0.6-0.4,0.8-0.6c0.1-0.1,0.1-0.1,0.1-0.1
		c1-1.4,1.8-2.7,2.3-4.2C90.5,179,90.5,178.8,90.5,178.6z M95,183.8c-0.1,0.1-1,1.7-1.1,1.7c-0.6,1-2.8,8.2-2.7,9.7
		c-0.1,3.6,0.9,4.1,1.1,4.1c1.8-0.8,2.3-7.7,2.3-7.6c0,0.1,0.1-1.2,0.1-1.4C94.6,190.2,95,183.9,95,183.8z M109,177.2
		c0.1-0.9,0.2-1.8,0.2-2.7c0-1.2-0.2-2.3-0.5-3.5c-0.3-0.8-0.5-1.6-0.8-2.3c-0.2-0.5-0.7-0.7-1-0.7c-0.9,0.1-0.9,1.2-1.1,1.8
		c-0.1,0.3,0,0.6,0.1,0.9c0.1,0.6,0.2,1.1,0.2,1.7c0.1,1.3,0.5,2.5,1.2,3.7c0.8,1.5-1.1,1.9-1.4,1.4c-0.3-0.4-0.5-0.8-0.7-1.3
		c-0.1-0.1-0.2-0.1-0.2-0.1l-0.1,0.1c-1.2,2.1-1.7,4.3-1.1,6.9c0,0.7,0.6,1.3,1.1,1.9c0.2,0.2,0.9,0.3,1,0.1
		c0.1-0.1,0.1-0.1,0.2-0.1c0.3-0.3,0.5-0.6,0.7-0.8s0.3-0.3,0.5-0.5c0.5-0.8,0.8-1.7,1-2.7c0.3-1,0.6-2.3,0.7-3.2
		C109,177.8,109,177.3,109,177.2z M64.6,167.7c-0.1,0.3-0.6,2.1-0.3,2.3c0.4,0.3,0.9,0.4,1.4,0.5c0.2,0,0.4-0.1,0.6-0.2
		c0.4-1.2-0.1-2.5-0.1-2.5C66.1,167.3,64.7,167.2,64.6,167.7z"/>
</g>
</svg>
